M48
; DRILL file {KiCad 7.0.9} date Tue Dec 12 13:04:44 2023
; FORMAT={-:-/ absolute / inch / decimal}
; #@! TF.CreationDate,2023-12-12T13:04:44+02:00
; #@! TF.GenerationSoftware,Kicad,Pcbnew,7.0.9
; #@! TF.FileFunction,Plated,1,2,PTH
FMAT,2
INCH
; #@! TA.AperFunction,Plated,PTH,ViaDrill
T1C0.0157
; #@! TA.AperFunction,Plated,PTH,ComponentDrill
T2C0.0236
; #@! TA.AperFunction,Plated,PTH,ComponentDrill
T3C0.0335
; #@! TA.AperFunction,Plated,PTH,ComponentDrill
T4C0.0362
; #@! TA.AperFunction,Plated,PTH,ComponentDrill
T5C0.0390
; #@! TA.AperFunction,Plated,PTH,ComponentDrill
T6C0.0394
; #@! TA.AperFunction,Plated,PTH,ComponentDrill
T7C0.0512
; #@! TA.AperFunction,Plated,PTH,ComponentDrill
T8C0.0906
%
G90
G05
T1
X3.9764Y-4.7539
X4.0118Y-5.4724
X4.0118Y-5.5846
X4.0157Y-5.3642
X4.0246Y-5.0552
X4.0551Y-4.4035
X4.0746Y-5.2402
X4.0748Y-4.8091
X4.0906Y-4.9547
X4.1346Y-4.7052
X4.1496Y-5.4626
X4.1796Y-5.1431
X4.185Y-4.7421
X4.1988Y-5.8858
X4.248Y-4.0492
X4.2756Y-4.2539
X4.2756Y-4.3917
X4.2756Y-4.5138
X4.2756Y-5.2264
X4.2795Y-4.6988
X4.2913Y-5.6634
X4.311Y-5.3169
X4.315Y-5.5256
X4.3228Y-4.8681
X4.3354Y-4.7461
X4.3465Y-5.4882
X4.3543Y-4.9902
X4.3583Y-5.372
X4.3583Y-5.6043
X4.4488Y-4.4941
X4.4528Y-4.2894
X4.4744Y-4.3898
X4.4803Y-5.2539
X4.5236Y-4.7776
X4.5394Y-5.1791
X4.5551Y-5.5886
X4.5591Y-4.565
X4.5591Y-5.3878
X4.5787Y-5.1201
X4.5866Y-4.6949
X4.5965Y-5.4882
X4.6102Y-5.2579
X4.6378Y-5.4291
X4.6417Y-5.1201
X4.6604Y-5.8202
X4.6811Y-5.2392
X4.7047Y-4.1713
X4.7421Y-4.7461
X4.7874Y-5.4724
X4.7874Y-5.7028
X4.8484Y-4.6988
X4.8583Y-5.7185
X4.8622Y-5.313
X4.8642Y-5.7776
X4.8888Y-5.5728
X4.8898Y-4.8209
X4.8937Y-5.9094
X4.938Y-5.4183
X5.0079Y-4.4941
X5.0354Y-5.7303
X5.0433Y-5.2421
X5.0669Y-5.5689
X5.1929Y-5.8268
X5.2008Y-5.2461
X5.2106Y-5.4961
X5.2126Y-5.6083
X5.2165Y-4.6516
X5.2244Y-5.7461
X5.2756Y-4.2815
X5.3209Y-5.4134
X5.3504Y-5.7087
X5.3898Y-5.8957
X5.4213Y-5.5768
X5.4724Y-5.7756
X5.5Y-4.8051
X5.6063Y-4.565
X5.6575Y-5.1909
X5.6969Y-5.8504
X5.7008Y-4.128
X5.7539Y-5.2756
X5.8031Y-5.5217
X5.9016Y-4.3327
X5.9331Y-4.6358
X5.9803Y-5.2579
X6.1693Y-5.5886
X6.1732Y-5.3209
X6.1969Y-4.561
X6.2126Y-4.998
T3
X4.9169Y-5.0369
X5.0169Y-5.0369
X5.2169Y-5.0369
X5.3169Y-5.0369
X5.4169Y-5.0369
X5.5165Y-5.0369
T4
X5.8583Y-5.1083
X5.8583Y-5.2067
X5.8583Y-5.2854
X5.8583Y-5.3839
T5
X4.3563Y-5.8661
X4.5335Y-5.8661
T6
X4.9685Y-4.8543
X4.9843Y-5.3287
X5.2638Y-4.8543
X5.2795Y-5.3287
T7
X4.3067Y-5.7681
X4.5827Y-5.7681
T8
X5.965Y-4.9874
X5.965Y-5.5047
T2
G00X4.0285Y-4.2295
M15
G01X3.997Y-4.2295
M16
G05
G00X4.0285Y-4.5697
M15
G01X3.997Y-4.5697
M16
G05
G00X4.0285Y-5.3004
M15
G01X3.997Y-5.3004
M16
G05
G00X4.0285Y-5.6406
M15
G01X3.997Y-5.6406
M16
G05
G00X4.199Y-4.2295
M15
G01X4.1557Y-4.2295
M16
G05
G00X4.199Y-4.5697
M15
G01X4.1557Y-4.5697
M16
G05
G00X4.199Y-5.3004
M15
G01X4.1557Y-5.3004
M16
G05
G00X4.199Y-5.6406
M15
G01X4.1557Y-5.6406
M16
G05
T0
M30
