%TF.GenerationSoftware,KiCad,Pcbnew,7.0.9*%
%TF.CreationDate,2023-12-12T13:04:40+02:00*%
%TF.ProjectId,ADuM3165_USB_ISOLATION,4144754d-3331-4363-955f-5553425f4953,rev?*%
%TF.SameCoordinates,Original*%
%TF.FileFunction,Legend,Top*%
%TF.FilePolarity,Positive*%
%FSLAX46Y46*%
G04 Gerber Fmt 4.6, Leading zero omitted, Abs format (unit mm)*
G04 Created by KiCad (PCBNEW 7.0.9) date 2023-12-12 13:04:40*
%MOMM*%
%LPD*%
G01*
G04 APERTURE LIST*
G04 Aperture macros list*
%AMRoundRect*
0 Rectangle with rounded corners*
0 $1 Rounding radius*
0 $2 $3 $4 $5 $6 $7 $8 $9 X,Y pos of 4 corners*
0 Add a 4 corners polygon primitive as box body*
4,1,4,$2,$3,$4,$5,$6,$7,$8,$9,$2,$3,0*
0 Add four circle primitives for the rounded corners*
1,1,$1+$1,$2,$3*
1,1,$1+$1,$4,$5*
1,1,$1+$1,$6,$7*
1,1,$1+$1,$8,$9*
0 Add four rect primitives between the rounded corners*
20,1,$1+$1,$2,$3,$4,$5,0*
20,1,$1+$1,$4,$5,$6,$7,0*
20,1,$1+$1,$6,$7,$8,$9,0*
20,1,$1+$1,$8,$9,$2,$3,0*%
G04 Aperture macros list end*
%ADD10C,0.150000*%
%ADD11C,0.500000*%
%ADD12C,0.125000*%
%ADD13C,0.375000*%
%ADD14C,0.120000*%
%ADD15RoundRect,0.225000X-0.250000X0.225000X-0.250000X-0.225000X0.250000X-0.225000X0.250000X0.225000X0*%
%ADD16C,2.100000*%
%ADD17C,1.750000*%
%ADD18RoundRect,0.225000X0.250000X-0.225000X0.250000X0.225000X-0.250000X0.225000X-0.250000X-0.225000X0*%
%ADD19RoundRect,0.200000X0.275000X-0.200000X0.275000X0.200000X-0.275000X0.200000X-0.275000X-0.200000X0*%
%ADD20R,1.524000X1.524000*%
%ADD21C,1.524000*%
%ADD22C,3.500000*%
%ADD23RoundRect,0.200000X-0.200000X-0.275000X0.200000X-0.275000X0.200000X0.275000X-0.200000X0.275000X0*%
%ADD24RoundRect,0.218750X-0.218750X-0.256250X0.218750X-0.256250X0.218750X0.256250X-0.218750X0.256250X0*%
%ADD25RoundRect,0.150000X-0.512500X-0.150000X0.512500X-0.150000X0.512500X0.150000X-0.512500X0.150000X0*%
%ADD26RoundRect,0.200000X0.200000X0.275000X-0.200000X0.275000X-0.200000X-0.275000X0.200000X-0.275000X0*%
%ADD27C,0.650000*%
%ADD28R,1.150000X0.600000*%
%ADD29R,1.150000X0.300000*%
%ADD30O,2.100000X1.000000*%
%ADD31O,1.800000X1.000000*%
%ADD32C,3.200000*%
%ADD33RoundRect,0.225000X0.225000X0.250000X-0.225000X0.250000X-0.225000X-0.250000X0.225000X-0.250000X0*%
%ADD34RoundRect,0.200000X-0.275000X0.200000X-0.275000X-0.200000X0.275000X-0.200000X0.275000X0.200000X0*%
%ADD35RoundRect,0.150000X-0.587500X-0.150000X0.587500X-0.150000X0.587500X0.150000X-0.587500X0.150000X0*%
%ADD36R,0.900000X0.800000*%
%ADD37C,2.000000*%
%ADD38R,0.600000X0.450000*%
%ADD39R,0.800000X0.900000*%
%ADD40RoundRect,0.250000X0.250000X0.475000X-0.250000X0.475000X-0.250000X-0.475000X0.250000X-0.475000X0*%
%ADD41RoundRect,0.150000X0.512500X0.150000X-0.512500X0.150000X-0.512500X-0.150000X0.512500X-0.150000X0*%
%ADD42RoundRect,0.125000X-0.825000X-0.125000X0.825000X-0.125000X0.825000X0.125000X-0.825000X0.125000X0*%
%ADD43R,1.850000X1.850000*%
%ADD44C,1.850000*%
%ADD45RoundRect,0.225000X-0.225000X-0.250000X0.225000X-0.250000X0.225000X0.250000X-0.225000X0.250000X0*%
%ADD46R,0.640000X2.000000*%
%ADD47R,0.800000X2.700000*%
%ADD48RoundRect,0.150000X0.825000X0.150000X-0.825000X0.150000X-0.825000X-0.150000X0.825000X-0.150000X0*%
G04 APERTURE END LIST*
D10*
X146200000Y-131450000D02*
X145800000Y-131450000D01*
X115500000Y-126350000D02*
X115500000Y-126650000D01*
X118800000Y-132350000D02*
X119100000Y-132350000D01*
D11*
X130200000Y-150950000D02*
X130200000Y-147250000D01*
D10*
X117900000Y-129550000D02*
X117900000Y-135175000D01*
X118800000Y-126550000D02*
X119100000Y-126550000D01*
X118800000Y-126550000D02*
X118800000Y-132350000D01*
X135900000Y-114150000D02*
X158200000Y-114150000D01*
X158200000Y-119350000D01*
X135900000Y-119350000D01*
X135900000Y-114150000D01*
G36*
X135900000Y-114150000D02*
G01*
X158200000Y-114150000D01*
X158200000Y-119350000D01*
X135900000Y-119350000D01*
X135900000Y-114150000D01*
G37*
X128050000Y-121400000D02*
X122800000Y-121400000D01*
X122100000Y-122450000D02*
X114300000Y-122450000D01*
X120497000Y-122323000D02*
X120497000Y-122823000D01*
X114700000Y-126350000D02*
X118600000Y-126350000D01*
X117900000Y-129950000D02*
X118700000Y-129950000D01*
X122800000Y-121900000D02*
X122800000Y-120900000D01*
X112400000Y-132350000D02*
X112400000Y-132650000D01*
X117900000Y-135175000D02*
X117600000Y-135175000D01*
X146200000Y-126100000D02*
X145800000Y-126100000D01*
X118600000Y-126350000D02*
X118600000Y-126550000D01*
X114700000Y-132350000D02*
X114700000Y-126450000D01*
D11*
X127800000Y-117950000D02*
X130200000Y-120350000D01*
D10*
X112400000Y-132350000D02*
X115400000Y-132350000D01*
X146200000Y-121700000D02*
X146200000Y-131450000D01*
X117900000Y-129550000D02*
X117500000Y-129550000D01*
D11*
X130200000Y-121000000D02*
X130200000Y-120450000D01*
D10*
X114700000Y-126450000D02*
X114700000Y-126350000D01*
D11*
X115500000Y-117950000D02*
X109500000Y-117950000D01*
D10*
X122800000Y-121900000D02*
X122100000Y-122450000D01*
X128200000Y-121850000D02*
X128200000Y-121550000D01*
X115400000Y-132350000D02*
X115400000Y-132650000D01*
X145600000Y-121700000D02*
X146200000Y-121700000D01*
D11*
X127700000Y-117950000D02*
X124700000Y-117950000D01*
D10*
X114300000Y-122450000D02*
X114300000Y-122850000D01*
X129150000Y-121350000D02*
X129150000Y-120750000D01*
X135933333Y-108619104D02*
X136409523Y-108619104D01*
X135838095Y-108904819D02*
X136171428Y-107904819D01*
X136171428Y-107904819D02*
X136504761Y-108904819D01*
X136838095Y-108904819D02*
X136838095Y-107904819D01*
X136838095Y-107904819D02*
X137076190Y-107904819D01*
X137076190Y-107904819D02*
X137219047Y-107952438D01*
X137219047Y-107952438D02*
X137314285Y-108047676D01*
X137314285Y-108047676D02*
X137361904Y-108142914D01*
X137361904Y-108142914D02*
X137409523Y-108333390D01*
X137409523Y-108333390D02*
X137409523Y-108476247D01*
X137409523Y-108476247D02*
X137361904Y-108666723D01*
X137361904Y-108666723D02*
X137314285Y-108761961D01*
X137314285Y-108761961D02*
X137219047Y-108857200D01*
X137219047Y-108857200D02*
X137076190Y-108904819D01*
X137076190Y-108904819D02*
X136838095Y-108904819D01*
X138266666Y-108238152D02*
X138266666Y-108904819D01*
X137838095Y-108238152D02*
X137838095Y-108761961D01*
X137838095Y-108761961D02*
X137885714Y-108857200D01*
X137885714Y-108857200D02*
X137980952Y-108904819D01*
X137980952Y-108904819D02*
X138123809Y-108904819D01*
X138123809Y-108904819D02*
X138219047Y-108857200D01*
X138219047Y-108857200D02*
X138266666Y-108809580D01*
X138742857Y-108904819D02*
X138742857Y-107904819D01*
X138742857Y-107904819D02*
X139076190Y-108619104D01*
X139076190Y-108619104D02*
X139409523Y-107904819D01*
X139409523Y-107904819D02*
X139409523Y-108904819D01*
X139790476Y-107904819D02*
X140409523Y-107904819D01*
X140409523Y-107904819D02*
X140076190Y-108285771D01*
X140076190Y-108285771D02*
X140219047Y-108285771D01*
X140219047Y-108285771D02*
X140314285Y-108333390D01*
X140314285Y-108333390D02*
X140361904Y-108381009D01*
X140361904Y-108381009D02*
X140409523Y-108476247D01*
X140409523Y-108476247D02*
X140409523Y-108714342D01*
X140409523Y-108714342D02*
X140361904Y-108809580D01*
X140361904Y-108809580D02*
X140314285Y-108857200D01*
X140314285Y-108857200D02*
X140219047Y-108904819D01*
X140219047Y-108904819D02*
X139933333Y-108904819D01*
X139933333Y-108904819D02*
X139838095Y-108857200D01*
X139838095Y-108857200D02*
X139790476Y-108809580D01*
X141361904Y-108904819D02*
X140790476Y-108904819D01*
X141076190Y-108904819D02*
X141076190Y-107904819D01*
X141076190Y-107904819D02*
X140980952Y-108047676D01*
X140980952Y-108047676D02*
X140885714Y-108142914D01*
X140885714Y-108142914D02*
X140790476Y-108190533D01*
X142219047Y-107904819D02*
X142028571Y-107904819D01*
X142028571Y-107904819D02*
X141933333Y-107952438D01*
X141933333Y-107952438D02*
X141885714Y-108000057D01*
X141885714Y-108000057D02*
X141790476Y-108142914D01*
X141790476Y-108142914D02*
X141742857Y-108333390D01*
X141742857Y-108333390D02*
X141742857Y-108714342D01*
X141742857Y-108714342D02*
X141790476Y-108809580D01*
X141790476Y-108809580D02*
X141838095Y-108857200D01*
X141838095Y-108857200D02*
X141933333Y-108904819D01*
X141933333Y-108904819D02*
X142123809Y-108904819D01*
X142123809Y-108904819D02*
X142219047Y-108857200D01*
X142219047Y-108857200D02*
X142266666Y-108809580D01*
X142266666Y-108809580D02*
X142314285Y-108714342D01*
X142314285Y-108714342D02*
X142314285Y-108476247D01*
X142314285Y-108476247D02*
X142266666Y-108381009D01*
X142266666Y-108381009D02*
X142219047Y-108333390D01*
X142219047Y-108333390D02*
X142123809Y-108285771D01*
X142123809Y-108285771D02*
X141933333Y-108285771D01*
X141933333Y-108285771D02*
X141838095Y-108333390D01*
X141838095Y-108333390D02*
X141790476Y-108381009D01*
X141790476Y-108381009D02*
X141742857Y-108476247D01*
X143219047Y-107904819D02*
X142742857Y-107904819D01*
X142742857Y-107904819D02*
X142695238Y-108381009D01*
X142695238Y-108381009D02*
X142742857Y-108333390D01*
X142742857Y-108333390D02*
X142838095Y-108285771D01*
X142838095Y-108285771D02*
X143076190Y-108285771D01*
X143076190Y-108285771D02*
X143171428Y-108333390D01*
X143171428Y-108333390D02*
X143219047Y-108381009D01*
X143219047Y-108381009D02*
X143266666Y-108476247D01*
X143266666Y-108476247D02*
X143266666Y-108714342D01*
X143266666Y-108714342D02*
X143219047Y-108809580D01*
X143219047Y-108809580D02*
X143171428Y-108857200D01*
X143171428Y-108857200D02*
X143076190Y-108904819D01*
X143076190Y-108904819D02*
X142838095Y-108904819D01*
X142838095Y-108904819D02*
X142742857Y-108857200D01*
X142742857Y-108857200D02*
X142695238Y-108809580D01*
X143457143Y-109000057D02*
X144219047Y-109000057D01*
X144457143Y-107904819D02*
X144457143Y-108714342D01*
X144457143Y-108714342D02*
X144504762Y-108809580D01*
X144504762Y-108809580D02*
X144552381Y-108857200D01*
X144552381Y-108857200D02*
X144647619Y-108904819D01*
X144647619Y-108904819D02*
X144838095Y-108904819D01*
X144838095Y-108904819D02*
X144933333Y-108857200D01*
X144933333Y-108857200D02*
X144980952Y-108809580D01*
X144980952Y-108809580D02*
X145028571Y-108714342D01*
X145028571Y-108714342D02*
X145028571Y-107904819D01*
X145457143Y-108857200D02*
X145600000Y-108904819D01*
X145600000Y-108904819D02*
X145838095Y-108904819D01*
X145838095Y-108904819D02*
X145933333Y-108857200D01*
X145933333Y-108857200D02*
X145980952Y-108809580D01*
X145980952Y-108809580D02*
X146028571Y-108714342D01*
X146028571Y-108714342D02*
X146028571Y-108619104D01*
X146028571Y-108619104D02*
X145980952Y-108523866D01*
X145980952Y-108523866D02*
X145933333Y-108476247D01*
X145933333Y-108476247D02*
X145838095Y-108428628D01*
X145838095Y-108428628D02*
X145647619Y-108381009D01*
X145647619Y-108381009D02*
X145552381Y-108333390D01*
X145552381Y-108333390D02*
X145504762Y-108285771D01*
X145504762Y-108285771D02*
X145457143Y-108190533D01*
X145457143Y-108190533D02*
X145457143Y-108095295D01*
X145457143Y-108095295D02*
X145504762Y-108000057D01*
X145504762Y-108000057D02*
X145552381Y-107952438D01*
X145552381Y-107952438D02*
X145647619Y-107904819D01*
X145647619Y-107904819D02*
X145885714Y-107904819D01*
X145885714Y-107904819D02*
X146028571Y-107952438D01*
X146790476Y-108381009D02*
X146933333Y-108428628D01*
X146933333Y-108428628D02*
X146980952Y-108476247D01*
X146980952Y-108476247D02*
X147028571Y-108571485D01*
X147028571Y-108571485D02*
X147028571Y-108714342D01*
X147028571Y-108714342D02*
X146980952Y-108809580D01*
X146980952Y-108809580D02*
X146933333Y-108857200D01*
X146933333Y-108857200D02*
X146838095Y-108904819D01*
X146838095Y-108904819D02*
X146457143Y-108904819D01*
X146457143Y-108904819D02*
X146457143Y-107904819D01*
X146457143Y-107904819D02*
X146790476Y-107904819D01*
X146790476Y-107904819D02*
X146885714Y-107952438D01*
X146885714Y-107952438D02*
X146933333Y-108000057D01*
X146933333Y-108000057D02*
X146980952Y-108095295D01*
X146980952Y-108095295D02*
X146980952Y-108190533D01*
X146980952Y-108190533D02*
X146933333Y-108285771D01*
X146933333Y-108285771D02*
X146885714Y-108333390D01*
X146885714Y-108333390D02*
X146790476Y-108381009D01*
X146790476Y-108381009D02*
X146457143Y-108381009D01*
X147219048Y-109000057D02*
X147980952Y-109000057D01*
X148219048Y-108904819D02*
X148219048Y-107904819D01*
X148647619Y-108857200D02*
X148790476Y-108904819D01*
X148790476Y-108904819D02*
X149028571Y-108904819D01*
X149028571Y-108904819D02*
X149123809Y-108857200D01*
X149123809Y-108857200D02*
X149171428Y-108809580D01*
X149171428Y-108809580D02*
X149219047Y-108714342D01*
X149219047Y-108714342D02*
X149219047Y-108619104D01*
X149219047Y-108619104D02*
X149171428Y-108523866D01*
X149171428Y-108523866D02*
X149123809Y-108476247D01*
X149123809Y-108476247D02*
X149028571Y-108428628D01*
X149028571Y-108428628D02*
X148838095Y-108381009D01*
X148838095Y-108381009D02*
X148742857Y-108333390D01*
X148742857Y-108333390D02*
X148695238Y-108285771D01*
X148695238Y-108285771D02*
X148647619Y-108190533D01*
X148647619Y-108190533D02*
X148647619Y-108095295D01*
X148647619Y-108095295D02*
X148695238Y-108000057D01*
X148695238Y-108000057D02*
X148742857Y-107952438D01*
X148742857Y-107952438D02*
X148838095Y-107904819D01*
X148838095Y-107904819D02*
X149076190Y-107904819D01*
X149076190Y-107904819D02*
X149219047Y-107952438D01*
X149838095Y-107904819D02*
X150028571Y-107904819D01*
X150028571Y-107904819D02*
X150123809Y-107952438D01*
X150123809Y-107952438D02*
X150219047Y-108047676D01*
X150219047Y-108047676D02*
X150266666Y-108238152D01*
X150266666Y-108238152D02*
X150266666Y-108571485D01*
X150266666Y-108571485D02*
X150219047Y-108761961D01*
X150219047Y-108761961D02*
X150123809Y-108857200D01*
X150123809Y-108857200D02*
X150028571Y-108904819D01*
X150028571Y-108904819D02*
X149838095Y-108904819D01*
X149838095Y-108904819D02*
X149742857Y-108857200D01*
X149742857Y-108857200D02*
X149647619Y-108761961D01*
X149647619Y-108761961D02*
X149600000Y-108571485D01*
X149600000Y-108571485D02*
X149600000Y-108238152D01*
X149600000Y-108238152D02*
X149647619Y-108047676D01*
X149647619Y-108047676D02*
X149742857Y-107952438D01*
X149742857Y-107952438D02*
X149838095Y-107904819D01*
X151171428Y-108904819D02*
X150695238Y-108904819D01*
X150695238Y-108904819D02*
X150695238Y-107904819D01*
X151457143Y-108619104D02*
X151933333Y-108619104D01*
X151361905Y-108904819D02*
X151695238Y-107904819D01*
X151695238Y-107904819D02*
X152028571Y-108904819D01*
X152219048Y-107904819D02*
X152790476Y-107904819D01*
X152504762Y-108904819D02*
X152504762Y-107904819D01*
X153123810Y-108904819D02*
X153123810Y-107904819D01*
X153790476Y-107904819D02*
X153980952Y-107904819D01*
X153980952Y-107904819D02*
X154076190Y-107952438D01*
X154076190Y-107952438D02*
X154171428Y-108047676D01*
X154171428Y-108047676D02*
X154219047Y-108238152D01*
X154219047Y-108238152D02*
X154219047Y-108571485D01*
X154219047Y-108571485D02*
X154171428Y-108761961D01*
X154171428Y-108761961D02*
X154076190Y-108857200D01*
X154076190Y-108857200D02*
X153980952Y-108904819D01*
X153980952Y-108904819D02*
X153790476Y-108904819D01*
X153790476Y-108904819D02*
X153695238Y-108857200D01*
X153695238Y-108857200D02*
X153600000Y-108761961D01*
X153600000Y-108761961D02*
X153552381Y-108571485D01*
X153552381Y-108571485D02*
X153552381Y-108238152D01*
X153552381Y-108238152D02*
X153600000Y-108047676D01*
X153600000Y-108047676D02*
X153695238Y-107952438D01*
X153695238Y-107952438D02*
X153790476Y-107904819D01*
X154647619Y-108904819D02*
X154647619Y-107904819D01*
X154647619Y-107904819D02*
X155219047Y-108904819D01*
X155219047Y-108904819D02*
X155219047Y-107904819D01*
D11*
X100842857Y-146749238D02*
X100842857Y-144749238D01*
X100842857Y-145701619D02*
X101985714Y-145701619D01*
X101985714Y-146749238D02*
X101985714Y-144749238D01*
X103223809Y-146749238D02*
X103033333Y-146654000D01*
X103033333Y-146654000D02*
X102938095Y-146558761D01*
X102938095Y-146558761D02*
X102842857Y-146368285D01*
X102842857Y-146368285D02*
X102842857Y-145796857D01*
X102842857Y-145796857D02*
X102938095Y-145606380D01*
X102938095Y-145606380D02*
X103033333Y-145511142D01*
X103033333Y-145511142D02*
X103223809Y-145415904D01*
X103223809Y-145415904D02*
X103509524Y-145415904D01*
X103509524Y-145415904D02*
X103700000Y-145511142D01*
X103700000Y-145511142D02*
X103795238Y-145606380D01*
X103795238Y-145606380D02*
X103890476Y-145796857D01*
X103890476Y-145796857D02*
X103890476Y-146368285D01*
X103890476Y-146368285D02*
X103795238Y-146558761D01*
X103795238Y-146558761D02*
X103700000Y-146654000D01*
X103700000Y-146654000D02*
X103509524Y-146749238D01*
X103509524Y-146749238D02*
X103223809Y-146749238D01*
X104652381Y-146654000D02*
X104842857Y-146749238D01*
X104842857Y-146749238D02*
X105223809Y-146749238D01*
X105223809Y-146749238D02*
X105414286Y-146654000D01*
X105414286Y-146654000D02*
X105509524Y-146463523D01*
X105509524Y-146463523D02*
X105509524Y-146368285D01*
X105509524Y-146368285D02*
X105414286Y-146177809D01*
X105414286Y-146177809D02*
X105223809Y-146082571D01*
X105223809Y-146082571D02*
X104938095Y-146082571D01*
X104938095Y-146082571D02*
X104747619Y-145987333D01*
X104747619Y-145987333D02*
X104652381Y-145796857D01*
X104652381Y-145796857D02*
X104652381Y-145701619D01*
X104652381Y-145701619D02*
X104747619Y-145511142D01*
X104747619Y-145511142D02*
X104938095Y-145415904D01*
X104938095Y-145415904D02*
X105223809Y-145415904D01*
X105223809Y-145415904D02*
X105414286Y-145511142D01*
X106080953Y-145415904D02*
X106842857Y-145415904D01*
X106366667Y-144749238D02*
X106366667Y-146463523D01*
X106366667Y-146463523D02*
X106461905Y-146654000D01*
X106461905Y-146654000D02*
X106652381Y-146749238D01*
X106652381Y-146749238D02*
X106842857Y-146749238D01*
D12*
X138188095Y-148944547D02*
X138454761Y-148944547D01*
X138569047Y-149363595D02*
X138188095Y-149363595D01*
X138188095Y-149363595D02*
X138188095Y-148563595D01*
X138188095Y-148563595D02*
X138569047Y-148563595D01*
X138835714Y-149363595D02*
X139254762Y-148830261D01*
X138835714Y-148830261D02*
X139254762Y-149363595D01*
X139445238Y-148830261D02*
X139750000Y-148830261D01*
X139559524Y-148563595D02*
X139559524Y-149249309D01*
X139559524Y-149249309D02*
X139597619Y-149325500D01*
X139597619Y-149325500D02*
X139673809Y-149363595D01*
X139673809Y-149363595D02*
X139750000Y-149363595D01*
X139826191Y-149439785D02*
X140435714Y-149439785D01*
X140626191Y-148830261D02*
X140626191Y-149630261D01*
X140626191Y-148868357D02*
X140702381Y-148830261D01*
X140702381Y-148830261D02*
X140854762Y-148830261D01*
X140854762Y-148830261D02*
X140930953Y-148868357D01*
X140930953Y-148868357D02*
X140969048Y-148906452D01*
X140969048Y-148906452D02*
X141007143Y-148982642D01*
X141007143Y-148982642D02*
X141007143Y-149211214D01*
X141007143Y-149211214D02*
X140969048Y-149287404D01*
X140969048Y-149287404D02*
X140930953Y-149325500D01*
X140930953Y-149325500D02*
X140854762Y-149363595D01*
X140854762Y-149363595D02*
X140702381Y-149363595D01*
X140702381Y-149363595D02*
X140626191Y-149325500D01*
X141464286Y-149363595D02*
X141388096Y-149325500D01*
X141388096Y-149325500D02*
X141350001Y-149287404D01*
X141350001Y-149287404D02*
X141311905Y-149211214D01*
X141311905Y-149211214D02*
X141311905Y-148982642D01*
X141311905Y-148982642D02*
X141350001Y-148906452D01*
X141350001Y-148906452D02*
X141388096Y-148868357D01*
X141388096Y-148868357D02*
X141464286Y-148830261D01*
X141464286Y-148830261D02*
X141578572Y-148830261D01*
X141578572Y-148830261D02*
X141654763Y-148868357D01*
X141654763Y-148868357D02*
X141692858Y-148906452D01*
X141692858Y-148906452D02*
X141730953Y-148982642D01*
X141730953Y-148982642D02*
X141730953Y-149211214D01*
X141730953Y-149211214D02*
X141692858Y-149287404D01*
X141692858Y-149287404D02*
X141654763Y-149325500D01*
X141654763Y-149325500D02*
X141578572Y-149363595D01*
X141578572Y-149363595D02*
X141464286Y-149363595D01*
X141997620Y-148830261D02*
X142150001Y-149363595D01*
X142150001Y-149363595D02*
X142302382Y-148982642D01*
X142302382Y-148982642D02*
X142454763Y-149363595D01*
X142454763Y-149363595D02*
X142607144Y-148830261D01*
X143216668Y-149325500D02*
X143140477Y-149363595D01*
X143140477Y-149363595D02*
X142988096Y-149363595D01*
X142988096Y-149363595D02*
X142911906Y-149325500D01*
X142911906Y-149325500D02*
X142873810Y-149249309D01*
X142873810Y-149249309D02*
X142873810Y-148944547D01*
X142873810Y-148944547D02*
X142911906Y-148868357D01*
X142911906Y-148868357D02*
X142988096Y-148830261D01*
X142988096Y-148830261D02*
X143140477Y-148830261D01*
X143140477Y-148830261D02*
X143216668Y-148868357D01*
X143216668Y-148868357D02*
X143254763Y-148944547D01*
X143254763Y-148944547D02*
X143254763Y-149020738D01*
X143254763Y-149020738D02*
X142873810Y-149096928D01*
X143597620Y-149363595D02*
X143597620Y-148830261D01*
X143597620Y-148982642D02*
X143635715Y-148906452D01*
X143635715Y-148906452D02*
X143673810Y-148868357D01*
X143673810Y-148868357D02*
X143750001Y-148830261D01*
X143750001Y-148830261D02*
X143826191Y-148830261D01*
D10*
X136042857Y-112904819D02*
X136042857Y-111904819D01*
X136471428Y-112904819D02*
X136471428Y-112381009D01*
X136471428Y-112381009D02*
X136423809Y-112285771D01*
X136423809Y-112285771D02*
X136328571Y-112238152D01*
X136328571Y-112238152D02*
X136185714Y-112238152D01*
X136185714Y-112238152D02*
X136090476Y-112285771D01*
X136090476Y-112285771D02*
X136042857Y-112333390D01*
X136804762Y-112238152D02*
X137185714Y-112238152D01*
X136947619Y-111904819D02*
X136947619Y-112761961D01*
X136947619Y-112761961D02*
X136995238Y-112857200D01*
X136995238Y-112857200D02*
X137090476Y-112904819D01*
X137090476Y-112904819D02*
X137185714Y-112904819D01*
X137376191Y-112238152D02*
X137757143Y-112238152D01*
X137519048Y-111904819D02*
X137519048Y-112761961D01*
X137519048Y-112761961D02*
X137566667Y-112857200D01*
X137566667Y-112857200D02*
X137661905Y-112904819D01*
X137661905Y-112904819D02*
X137757143Y-112904819D01*
X138090477Y-112238152D02*
X138090477Y-113238152D01*
X138090477Y-112285771D02*
X138185715Y-112238152D01*
X138185715Y-112238152D02*
X138376191Y-112238152D01*
X138376191Y-112238152D02*
X138471429Y-112285771D01*
X138471429Y-112285771D02*
X138519048Y-112333390D01*
X138519048Y-112333390D02*
X138566667Y-112428628D01*
X138566667Y-112428628D02*
X138566667Y-112714342D01*
X138566667Y-112714342D02*
X138519048Y-112809580D01*
X138519048Y-112809580D02*
X138471429Y-112857200D01*
X138471429Y-112857200D02*
X138376191Y-112904819D01*
X138376191Y-112904819D02*
X138185715Y-112904819D01*
X138185715Y-112904819D02*
X138090477Y-112857200D01*
X138947620Y-112857200D02*
X139042858Y-112904819D01*
X139042858Y-112904819D02*
X139233334Y-112904819D01*
X139233334Y-112904819D02*
X139328572Y-112857200D01*
X139328572Y-112857200D02*
X139376191Y-112761961D01*
X139376191Y-112761961D02*
X139376191Y-112714342D01*
X139376191Y-112714342D02*
X139328572Y-112619104D01*
X139328572Y-112619104D02*
X139233334Y-112571485D01*
X139233334Y-112571485D02*
X139090477Y-112571485D01*
X139090477Y-112571485D02*
X138995239Y-112523866D01*
X138995239Y-112523866D02*
X138947620Y-112428628D01*
X138947620Y-112428628D02*
X138947620Y-112381009D01*
X138947620Y-112381009D02*
X138995239Y-112285771D01*
X138995239Y-112285771D02*
X139090477Y-112238152D01*
X139090477Y-112238152D02*
X139233334Y-112238152D01*
X139233334Y-112238152D02*
X139328572Y-112285771D01*
X139804763Y-112809580D02*
X139852382Y-112857200D01*
X139852382Y-112857200D02*
X139804763Y-112904819D01*
X139804763Y-112904819D02*
X139757144Y-112857200D01*
X139757144Y-112857200D02*
X139804763Y-112809580D01*
X139804763Y-112809580D02*
X139804763Y-112904819D01*
X139804763Y-112285771D02*
X139852382Y-112333390D01*
X139852382Y-112333390D02*
X139804763Y-112381009D01*
X139804763Y-112381009D02*
X139757144Y-112333390D01*
X139757144Y-112333390D02*
X139804763Y-112285771D01*
X139804763Y-112285771D02*
X139804763Y-112381009D01*
X140995238Y-111857200D02*
X140138096Y-113142914D01*
X142042857Y-111857200D02*
X141185715Y-113142914D01*
X142804762Y-112238152D02*
X142804762Y-113047676D01*
X142804762Y-113047676D02*
X142757143Y-113142914D01*
X142757143Y-113142914D02*
X142709524Y-113190533D01*
X142709524Y-113190533D02*
X142614286Y-113238152D01*
X142614286Y-113238152D02*
X142471429Y-113238152D01*
X142471429Y-113238152D02*
X142376191Y-113190533D01*
X142804762Y-112857200D02*
X142709524Y-112904819D01*
X142709524Y-112904819D02*
X142519048Y-112904819D01*
X142519048Y-112904819D02*
X142423810Y-112857200D01*
X142423810Y-112857200D02*
X142376191Y-112809580D01*
X142376191Y-112809580D02*
X142328572Y-112714342D01*
X142328572Y-112714342D02*
X142328572Y-112428628D01*
X142328572Y-112428628D02*
X142376191Y-112333390D01*
X142376191Y-112333390D02*
X142423810Y-112285771D01*
X142423810Y-112285771D02*
X142519048Y-112238152D01*
X142519048Y-112238152D02*
X142709524Y-112238152D01*
X142709524Y-112238152D02*
X142804762Y-112285771D01*
X143280953Y-112904819D02*
X143280953Y-112238152D01*
X143280953Y-111904819D02*
X143233334Y-111952438D01*
X143233334Y-111952438D02*
X143280953Y-112000057D01*
X143280953Y-112000057D02*
X143328572Y-111952438D01*
X143328572Y-111952438D02*
X143280953Y-111904819D01*
X143280953Y-111904819D02*
X143280953Y-112000057D01*
X143614286Y-112238152D02*
X143995238Y-112238152D01*
X143757143Y-111904819D02*
X143757143Y-112761961D01*
X143757143Y-112761961D02*
X143804762Y-112857200D01*
X143804762Y-112857200D02*
X143900000Y-112904819D01*
X143900000Y-112904819D02*
X143995238Y-112904819D01*
X144328572Y-112904819D02*
X144328572Y-111904819D01*
X144757143Y-112904819D02*
X144757143Y-112381009D01*
X144757143Y-112381009D02*
X144709524Y-112285771D01*
X144709524Y-112285771D02*
X144614286Y-112238152D01*
X144614286Y-112238152D02*
X144471429Y-112238152D01*
X144471429Y-112238152D02*
X144376191Y-112285771D01*
X144376191Y-112285771D02*
X144328572Y-112333390D01*
X145661905Y-112238152D02*
X145661905Y-112904819D01*
X145233334Y-112238152D02*
X145233334Y-112761961D01*
X145233334Y-112761961D02*
X145280953Y-112857200D01*
X145280953Y-112857200D02*
X145376191Y-112904819D01*
X145376191Y-112904819D02*
X145519048Y-112904819D01*
X145519048Y-112904819D02*
X145614286Y-112857200D01*
X145614286Y-112857200D02*
X145661905Y-112809580D01*
X146138096Y-112904819D02*
X146138096Y-111904819D01*
X146138096Y-112285771D02*
X146233334Y-112238152D01*
X146233334Y-112238152D02*
X146423810Y-112238152D01*
X146423810Y-112238152D02*
X146519048Y-112285771D01*
X146519048Y-112285771D02*
X146566667Y-112333390D01*
X146566667Y-112333390D02*
X146614286Y-112428628D01*
X146614286Y-112428628D02*
X146614286Y-112714342D01*
X146614286Y-112714342D02*
X146566667Y-112809580D01*
X146566667Y-112809580D02*
X146519048Y-112857200D01*
X146519048Y-112857200D02*
X146423810Y-112904819D01*
X146423810Y-112904819D02*
X146233334Y-112904819D01*
X146233334Y-112904819D02*
X146138096Y-112857200D01*
X147042858Y-112809580D02*
X147090477Y-112857200D01*
X147090477Y-112857200D02*
X147042858Y-112904819D01*
X147042858Y-112904819D02*
X146995239Y-112857200D01*
X146995239Y-112857200D02*
X147042858Y-112809580D01*
X147042858Y-112809580D02*
X147042858Y-112904819D01*
X147947619Y-112857200D02*
X147852381Y-112904819D01*
X147852381Y-112904819D02*
X147661905Y-112904819D01*
X147661905Y-112904819D02*
X147566667Y-112857200D01*
X147566667Y-112857200D02*
X147519048Y-112809580D01*
X147519048Y-112809580D02*
X147471429Y-112714342D01*
X147471429Y-112714342D02*
X147471429Y-112428628D01*
X147471429Y-112428628D02*
X147519048Y-112333390D01*
X147519048Y-112333390D02*
X147566667Y-112285771D01*
X147566667Y-112285771D02*
X147661905Y-112238152D01*
X147661905Y-112238152D02*
X147852381Y-112238152D01*
X147852381Y-112238152D02*
X147947619Y-112285771D01*
X148519048Y-112904819D02*
X148423810Y-112857200D01*
X148423810Y-112857200D02*
X148376191Y-112809580D01*
X148376191Y-112809580D02*
X148328572Y-112714342D01*
X148328572Y-112714342D02*
X148328572Y-112428628D01*
X148328572Y-112428628D02*
X148376191Y-112333390D01*
X148376191Y-112333390D02*
X148423810Y-112285771D01*
X148423810Y-112285771D02*
X148519048Y-112238152D01*
X148519048Y-112238152D02*
X148661905Y-112238152D01*
X148661905Y-112238152D02*
X148757143Y-112285771D01*
X148757143Y-112285771D02*
X148804762Y-112333390D01*
X148804762Y-112333390D02*
X148852381Y-112428628D01*
X148852381Y-112428628D02*
X148852381Y-112714342D01*
X148852381Y-112714342D02*
X148804762Y-112809580D01*
X148804762Y-112809580D02*
X148757143Y-112857200D01*
X148757143Y-112857200D02*
X148661905Y-112904819D01*
X148661905Y-112904819D02*
X148519048Y-112904819D01*
X149280953Y-112904819D02*
X149280953Y-112238152D01*
X149280953Y-112333390D02*
X149328572Y-112285771D01*
X149328572Y-112285771D02*
X149423810Y-112238152D01*
X149423810Y-112238152D02*
X149566667Y-112238152D01*
X149566667Y-112238152D02*
X149661905Y-112285771D01*
X149661905Y-112285771D02*
X149709524Y-112381009D01*
X149709524Y-112381009D02*
X149709524Y-112904819D01*
X149709524Y-112381009D02*
X149757143Y-112285771D01*
X149757143Y-112285771D02*
X149852381Y-112238152D01*
X149852381Y-112238152D02*
X149995238Y-112238152D01*
X149995238Y-112238152D02*
X150090477Y-112285771D01*
X150090477Y-112285771D02*
X150138096Y-112381009D01*
X150138096Y-112381009D02*
X150138096Y-112904819D01*
X151328571Y-111857200D02*
X150471429Y-113142914D01*
X151519048Y-112238152D02*
X151900000Y-112238152D01*
X151661905Y-112904819D02*
X151661905Y-112047676D01*
X151661905Y-112047676D02*
X151709524Y-111952438D01*
X151709524Y-111952438D02*
X151804762Y-111904819D01*
X151804762Y-111904819D02*
X151900000Y-111904819D01*
X152376191Y-112904819D02*
X152280953Y-112857200D01*
X152280953Y-112857200D02*
X152233334Y-112809580D01*
X152233334Y-112809580D02*
X152185715Y-112714342D01*
X152185715Y-112714342D02*
X152185715Y-112428628D01*
X152185715Y-112428628D02*
X152233334Y-112333390D01*
X152233334Y-112333390D02*
X152280953Y-112285771D01*
X152280953Y-112285771D02*
X152376191Y-112238152D01*
X152376191Y-112238152D02*
X152519048Y-112238152D01*
X152519048Y-112238152D02*
X152614286Y-112285771D01*
X152614286Y-112285771D02*
X152661905Y-112333390D01*
X152661905Y-112333390D02*
X152709524Y-112428628D01*
X152709524Y-112428628D02*
X152709524Y-112714342D01*
X152709524Y-112714342D02*
X152661905Y-112809580D01*
X152661905Y-112809580D02*
X152614286Y-112857200D01*
X152614286Y-112857200D02*
X152519048Y-112904819D01*
X152519048Y-112904819D02*
X152376191Y-112904819D01*
X153138096Y-112904819D02*
X153138096Y-112238152D01*
X153138096Y-112333390D02*
X153185715Y-112285771D01*
X153185715Y-112285771D02*
X153280953Y-112238152D01*
X153280953Y-112238152D02*
X153423810Y-112238152D01*
X153423810Y-112238152D02*
X153519048Y-112285771D01*
X153519048Y-112285771D02*
X153566667Y-112381009D01*
X153566667Y-112381009D02*
X153566667Y-112904819D01*
X153566667Y-112381009D02*
X153614286Y-112285771D01*
X153614286Y-112285771D02*
X153709524Y-112238152D01*
X153709524Y-112238152D02*
X153852381Y-112238152D01*
X153852381Y-112238152D02*
X153947620Y-112285771D01*
X153947620Y-112285771D02*
X153995239Y-112381009D01*
X153995239Y-112381009D02*
X153995239Y-112904819D01*
X154471429Y-112904819D02*
X154471429Y-112238152D01*
X154471429Y-111904819D02*
X154423810Y-111952438D01*
X154423810Y-111952438D02*
X154471429Y-112000057D01*
X154471429Y-112000057D02*
X154519048Y-111952438D01*
X154519048Y-111952438D02*
X154471429Y-111904819D01*
X154471429Y-111904819D02*
X154471429Y-112000057D01*
X154947619Y-112238152D02*
X154947619Y-112904819D01*
X154947619Y-112333390D02*
X154995238Y-112285771D01*
X154995238Y-112285771D02*
X155090476Y-112238152D01*
X155090476Y-112238152D02*
X155233333Y-112238152D01*
X155233333Y-112238152D02*
X155328571Y-112285771D01*
X155328571Y-112285771D02*
X155376190Y-112381009D01*
X155376190Y-112381009D02*
X155376190Y-112904819D01*
X155804762Y-112857200D02*
X155900000Y-112904819D01*
X155900000Y-112904819D02*
X156090476Y-112904819D01*
X156090476Y-112904819D02*
X156185714Y-112857200D01*
X156185714Y-112857200D02*
X156233333Y-112761961D01*
X156233333Y-112761961D02*
X156233333Y-112714342D01*
X156233333Y-112714342D02*
X156185714Y-112619104D01*
X156185714Y-112619104D02*
X156090476Y-112571485D01*
X156090476Y-112571485D02*
X155947619Y-112571485D01*
X155947619Y-112571485D02*
X155852381Y-112523866D01*
X155852381Y-112523866D02*
X155804762Y-112428628D01*
X155804762Y-112428628D02*
X155804762Y-112381009D01*
X155804762Y-112381009D02*
X155852381Y-112285771D01*
X155852381Y-112285771D02*
X155947619Y-112238152D01*
X155947619Y-112238152D02*
X156090476Y-112238152D01*
X156090476Y-112238152D02*
X156185714Y-112285771D01*
X156661905Y-112904819D02*
X156661905Y-111904819D01*
X156757143Y-112523866D02*
X157042857Y-112904819D01*
X157042857Y-112238152D02*
X156661905Y-112619104D01*
X157376191Y-112238152D02*
X157614286Y-112904819D01*
X157852381Y-112238152D02*
X157614286Y-112904819D01*
X157614286Y-112904819D02*
X157519048Y-113142914D01*
X157519048Y-113142914D02*
X157471429Y-113190533D01*
X157471429Y-113190533D02*
X157376191Y-113238152D01*
D11*
X106490475Y-102151619D02*
X107157142Y-102151619D01*
X107442856Y-103199238D02*
X106490475Y-103199238D01*
X106490475Y-103199238D02*
X106490475Y-101199238D01*
X106490475Y-101199238D02*
X107442856Y-101199238D01*
X108109523Y-103199238D02*
X109157142Y-101865904D01*
X108109523Y-101865904D02*
X109157142Y-103199238D01*
X109633333Y-101865904D02*
X110395237Y-101865904D01*
X109919047Y-101199238D02*
X109919047Y-102913523D01*
X109919047Y-102913523D02*
X110014285Y-103104000D01*
X110014285Y-103104000D02*
X110204761Y-103199238D01*
X110204761Y-103199238D02*
X110395237Y-103199238D01*
X111823809Y-103104000D02*
X111633333Y-103199238D01*
X111633333Y-103199238D02*
X111252380Y-103199238D01*
X111252380Y-103199238D02*
X111061904Y-103104000D01*
X111061904Y-103104000D02*
X110966666Y-102913523D01*
X110966666Y-102913523D02*
X110966666Y-102151619D01*
X110966666Y-102151619D02*
X111061904Y-101961142D01*
X111061904Y-101961142D02*
X111252380Y-101865904D01*
X111252380Y-101865904D02*
X111633333Y-101865904D01*
X111633333Y-101865904D02*
X111823809Y-101961142D01*
X111823809Y-101961142D02*
X111919047Y-102151619D01*
X111919047Y-102151619D02*
X111919047Y-102342095D01*
X111919047Y-102342095D02*
X110966666Y-102532571D01*
X112776190Y-103199238D02*
X112776190Y-101865904D01*
X112776190Y-102246857D02*
X112871428Y-102056380D01*
X112871428Y-102056380D02*
X112966666Y-101961142D01*
X112966666Y-101961142D02*
X113157142Y-101865904D01*
X113157142Y-101865904D02*
X113347619Y-101865904D01*
X114014285Y-101865904D02*
X114014285Y-103199238D01*
X114014285Y-102056380D02*
X114109523Y-101961142D01*
X114109523Y-101961142D02*
X114299999Y-101865904D01*
X114299999Y-101865904D02*
X114585714Y-101865904D01*
X114585714Y-101865904D02*
X114776190Y-101961142D01*
X114776190Y-101961142D02*
X114871428Y-102151619D01*
X114871428Y-102151619D02*
X114871428Y-103199238D01*
X116680952Y-103199238D02*
X116680952Y-102151619D01*
X116680952Y-102151619D02*
X116585714Y-101961142D01*
X116585714Y-101961142D02*
X116395238Y-101865904D01*
X116395238Y-101865904D02*
X116014285Y-101865904D01*
X116014285Y-101865904D02*
X115823809Y-101961142D01*
X116680952Y-103104000D02*
X116490476Y-103199238D01*
X116490476Y-103199238D02*
X116014285Y-103199238D01*
X116014285Y-103199238D02*
X115823809Y-103104000D01*
X115823809Y-103104000D02*
X115728571Y-102913523D01*
X115728571Y-102913523D02*
X115728571Y-102723047D01*
X115728571Y-102723047D02*
X115823809Y-102532571D01*
X115823809Y-102532571D02*
X116014285Y-102437333D01*
X116014285Y-102437333D02*
X116490476Y-102437333D01*
X116490476Y-102437333D02*
X116680952Y-102342095D01*
X117919047Y-103199238D02*
X117728571Y-103104000D01*
X117728571Y-103104000D02*
X117633333Y-102913523D01*
X117633333Y-102913523D02*
X117633333Y-101199238D01*
X120204762Y-103199238D02*
X120204762Y-101199238D01*
X120204762Y-101199238D02*
X120966667Y-101199238D01*
X120966667Y-101199238D02*
X121157143Y-101294476D01*
X121157143Y-101294476D02*
X121252381Y-101389714D01*
X121252381Y-101389714D02*
X121347619Y-101580190D01*
X121347619Y-101580190D02*
X121347619Y-101865904D01*
X121347619Y-101865904D02*
X121252381Y-102056380D01*
X121252381Y-102056380D02*
X121157143Y-102151619D01*
X121157143Y-102151619D02*
X120966667Y-102246857D01*
X120966667Y-102246857D02*
X120204762Y-102246857D01*
X122490476Y-103199238D02*
X122300000Y-103104000D01*
X122300000Y-103104000D02*
X122204762Y-103008761D01*
X122204762Y-103008761D02*
X122109524Y-102818285D01*
X122109524Y-102818285D02*
X122109524Y-102246857D01*
X122109524Y-102246857D02*
X122204762Y-102056380D01*
X122204762Y-102056380D02*
X122300000Y-101961142D01*
X122300000Y-101961142D02*
X122490476Y-101865904D01*
X122490476Y-101865904D02*
X122776191Y-101865904D01*
X122776191Y-101865904D02*
X122966667Y-101961142D01*
X122966667Y-101961142D02*
X123061905Y-102056380D01*
X123061905Y-102056380D02*
X123157143Y-102246857D01*
X123157143Y-102246857D02*
X123157143Y-102818285D01*
X123157143Y-102818285D02*
X123061905Y-103008761D01*
X123061905Y-103008761D02*
X122966667Y-103104000D01*
X122966667Y-103104000D02*
X122776191Y-103199238D01*
X122776191Y-103199238D02*
X122490476Y-103199238D01*
X123823810Y-101865904D02*
X124204762Y-103199238D01*
X124204762Y-103199238D02*
X124585715Y-102246857D01*
X124585715Y-102246857D02*
X124966667Y-103199238D01*
X124966667Y-103199238D02*
X125347619Y-101865904D01*
X126871429Y-103104000D02*
X126680953Y-103199238D01*
X126680953Y-103199238D02*
X126300000Y-103199238D01*
X126300000Y-103199238D02*
X126109524Y-103104000D01*
X126109524Y-103104000D02*
X126014286Y-102913523D01*
X126014286Y-102913523D02*
X126014286Y-102151619D01*
X126014286Y-102151619D02*
X126109524Y-101961142D01*
X126109524Y-101961142D02*
X126300000Y-101865904D01*
X126300000Y-101865904D02*
X126680953Y-101865904D01*
X126680953Y-101865904D02*
X126871429Y-101961142D01*
X126871429Y-101961142D02*
X126966667Y-102151619D01*
X126966667Y-102151619D02*
X126966667Y-102342095D01*
X126966667Y-102342095D02*
X126014286Y-102532571D01*
X127823810Y-103199238D02*
X127823810Y-101865904D01*
X127823810Y-102246857D02*
X127919048Y-102056380D01*
X127919048Y-102056380D02*
X128014286Y-101961142D01*
X128014286Y-101961142D02*
X128204762Y-101865904D01*
X128204762Y-101865904D02*
X128395239Y-101865904D01*
D12*
X124932333Y-148563595D02*
X125084714Y-148563595D01*
X125084714Y-148563595D02*
X125160904Y-148601690D01*
X125160904Y-148601690D02*
X125237095Y-148677880D01*
X125237095Y-148677880D02*
X125275190Y-148830261D01*
X125275190Y-148830261D02*
X125275190Y-149096928D01*
X125275190Y-149096928D02*
X125237095Y-149249309D01*
X125237095Y-149249309D02*
X125160904Y-149325500D01*
X125160904Y-149325500D02*
X125084714Y-149363595D01*
X125084714Y-149363595D02*
X124932333Y-149363595D01*
X124932333Y-149363595D02*
X124856142Y-149325500D01*
X124856142Y-149325500D02*
X124779952Y-149249309D01*
X124779952Y-149249309D02*
X124741856Y-149096928D01*
X124741856Y-149096928D02*
X124741856Y-148830261D01*
X124741856Y-148830261D02*
X124779952Y-148677880D01*
X124779952Y-148677880D02*
X124856142Y-148601690D01*
X124856142Y-148601690D02*
X124932333Y-148563595D01*
X125541856Y-148830261D02*
X125732332Y-149363595D01*
X125732332Y-149363595D02*
X125922809Y-148830261D01*
X126532333Y-149325500D02*
X126456142Y-149363595D01*
X126456142Y-149363595D02*
X126303761Y-149363595D01*
X126303761Y-149363595D02*
X126227571Y-149325500D01*
X126227571Y-149325500D02*
X126189475Y-149249309D01*
X126189475Y-149249309D02*
X126189475Y-148944547D01*
X126189475Y-148944547D02*
X126227571Y-148868357D01*
X126227571Y-148868357D02*
X126303761Y-148830261D01*
X126303761Y-148830261D02*
X126456142Y-148830261D01*
X126456142Y-148830261D02*
X126532333Y-148868357D01*
X126532333Y-148868357D02*
X126570428Y-148944547D01*
X126570428Y-148944547D02*
X126570428Y-149020738D01*
X126570428Y-149020738D02*
X126189475Y-149096928D01*
X126913285Y-149363595D02*
X126913285Y-148830261D01*
X126913285Y-148982642D02*
X126951380Y-148906452D01*
X126951380Y-148906452D02*
X126989475Y-148868357D01*
X126989475Y-148868357D02*
X127065666Y-148830261D01*
X127065666Y-148830261D02*
X127141856Y-148830261D01*
X127522808Y-149363595D02*
X127446618Y-149325500D01*
X127446618Y-149325500D02*
X127408523Y-149249309D01*
X127408523Y-149249309D02*
X127408523Y-148563595D01*
X127941856Y-149363595D02*
X127865666Y-149325500D01*
X127865666Y-149325500D02*
X127827571Y-149287404D01*
X127827571Y-149287404D02*
X127789475Y-149211214D01*
X127789475Y-149211214D02*
X127789475Y-148982642D01*
X127789475Y-148982642D02*
X127827571Y-148906452D01*
X127827571Y-148906452D02*
X127865666Y-148868357D01*
X127865666Y-148868357D02*
X127941856Y-148830261D01*
X127941856Y-148830261D02*
X128056142Y-148830261D01*
X128056142Y-148830261D02*
X128132333Y-148868357D01*
X128132333Y-148868357D02*
X128170428Y-148906452D01*
X128170428Y-148906452D02*
X128208523Y-148982642D01*
X128208523Y-148982642D02*
X128208523Y-149211214D01*
X128208523Y-149211214D02*
X128170428Y-149287404D01*
X128170428Y-149287404D02*
X128132333Y-149325500D01*
X128132333Y-149325500D02*
X128056142Y-149363595D01*
X128056142Y-149363595D02*
X127941856Y-149363595D01*
X128894238Y-149363595D02*
X128894238Y-148944547D01*
X128894238Y-148944547D02*
X128856143Y-148868357D01*
X128856143Y-148868357D02*
X128779952Y-148830261D01*
X128779952Y-148830261D02*
X128627571Y-148830261D01*
X128627571Y-148830261D02*
X128551381Y-148868357D01*
X128894238Y-149325500D02*
X128818047Y-149363595D01*
X128818047Y-149363595D02*
X128627571Y-149363595D01*
X128627571Y-149363595D02*
X128551381Y-149325500D01*
X128551381Y-149325500D02*
X128513285Y-149249309D01*
X128513285Y-149249309D02*
X128513285Y-149173119D01*
X128513285Y-149173119D02*
X128551381Y-149096928D01*
X128551381Y-149096928D02*
X128627571Y-149058833D01*
X128627571Y-149058833D02*
X128818047Y-149058833D01*
X128818047Y-149058833D02*
X128894238Y-149020738D01*
X129618048Y-149363595D02*
X129618048Y-148563595D01*
X129618048Y-149325500D02*
X129541857Y-149363595D01*
X129541857Y-149363595D02*
X129389476Y-149363595D01*
X129389476Y-149363595D02*
X129313286Y-149325500D01*
X129313286Y-149325500D02*
X129275191Y-149287404D01*
X129275191Y-149287404D02*
X129237095Y-149211214D01*
X129237095Y-149211214D02*
X129237095Y-148982642D01*
X129237095Y-148982642D02*
X129275191Y-148906452D01*
X129275191Y-148906452D02*
X129313286Y-148868357D01*
X129313286Y-148868357D02*
X129389476Y-148830261D01*
X129389476Y-148830261D02*
X129541857Y-148830261D01*
X129541857Y-148830261D02*
X129618048Y-148868357D01*
D13*
X106457142Y-105574428D02*
X106457142Y-104074428D01*
X106457142Y-104074428D02*
X107314285Y-105574428D01*
X107314285Y-105574428D02*
X107314285Y-104074428D01*
X108242857Y-105574428D02*
X108100000Y-105503000D01*
X108100000Y-105503000D02*
X108028571Y-105431571D01*
X108028571Y-105431571D02*
X107957143Y-105288714D01*
X107957143Y-105288714D02*
X107957143Y-104860142D01*
X107957143Y-104860142D02*
X108028571Y-104717285D01*
X108028571Y-104717285D02*
X108100000Y-104645857D01*
X108100000Y-104645857D02*
X108242857Y-104574428D01*
X108242857Y-104574428D02*
X108457143Y-104574428D01*
X108457143Y-104574428D02*
X108600000Y-104645857D01*
X108600000Y-104645857D02*
X108671429Y-104717285D01*
X108671429Y-104717285D02*
X108742857Y-104860142D01*
X108742857Y-104860142D02*
X108742857Y-105288714D01*
X108742857Y-105288714D02*
X108671429Y-105431571D01*
X108671429Y-105431571D02*
X108600000Y-105503000D01*
X108600000Y-105503000D02*
X108457143Y-105574428D01*
X108457143Y-105574428D02*
X108242857Y-105574428D01*
X109171429Y-104574428D02*
X109742857Y-104574428D01*
X109385714Y-104074428D02*
X109385714Y-105360142D01*
X109385714Y-105360142D02*
X109457143Y-105503000D01*
X109457143Y-105503000D02*
X109600000Y-105574428D01*
X109600000Y-105574428D02*
X109742857Y-105574428D01*
X112528571Y-105574428D02*
X112528571Y-104574428D01*
X112528571Y-104074428D02*
X112457143Y-104145857D01*
X112457143Y-104145857D02*
X112528571Y-104217285D01*
X112528571Y-104217285D02*
X112600000Y-104145857D01*
X112600000Y-104145857D02*
X112528571Y-104074428D01*
X112528571Y-104074428D02*
X112528571Y-104217285D01*
X113171429Y-105503000D02*
X113314286Y-105574428D01*
X113314286Y-105574428D02*
X113600000Y-105574428D01*
X113600000Y-105574428D02*
X113742857Y-105503000D01*
X113742857Y-105503000D02*
X113814286Y-105360142D01*
X113814286Y-105360142D02*
X113814286Y-105288714D01*
X113814286Y-105288714D02*
X113742857Y-105145857D01*
X113742857Y-105145857D02*
X113600000Y-105074428D01*
X113600000Y-105074428D02*
X113385715Y-105074428D01*
X113385715Y-105074428D02*
X113242857Y-105003000D01*
X113242857Y-105003000D02*
X113171429Y-104860142D01*
X113171429Y-104860142D02*
X113171429Y-104788714D01*
X113171429Y-104788714D02*
X113242857Y-104645857D01*
X113242857Y-104645857D02*
X113385715Y-104574428D01*
X113385715Y-104574428D02*
X113600000Y-104574428D01*
X113600000Y-104574428D02*
X113742857Y-104645857D01*
X114671429Y-105574428D02*
X114528572Y-105503000D01*
X114528572Y-105503000D02*
X114457143Y-105431571D01*
X114457143Y-105431571D02*
X114385715Y-105288714D01*
X114385715Y-105288714D02*
X114385715Y-104860142D01*
X114385715Y-104860142D02*
X114457143Y-104717285D01*
X114457143Y-104717285D02*
X114528572Y-104645857D01*
X114528572Y-104645857D02*
X114671429Y-104574428D01*
X114671429Y-104574428D02*
X114885715Y-104574428D01*
X114885715Y-104574428D02*
X115028572Y-104645857D01*
X115028572Y-104645857D02*
X115100001Y-104717285D01*
X115100001Y-104717285D02*
X115171429Y-104860142D01*
X115171429Y-104860142D02*
X115171429Y-105288714D01*
X115171429Y-105288714D02*
X115100001Y-105431571D01*
X115100001Y-105431571D02*
X115028572Y-105503000D01*
X115028572Y-105503000D02*
X114885715Y-105574428D01*
X114885715Y-105574428D02*
X114671429Y-105574428D01*
X116028572Y-105574428D02*
X115885715Y-105503000D01*
X115885715Y-105503000D02*
X115814286Y-105360142D01*
X115814286Y-105360142D02*
X115814286Y-104074428D01*
X117242858Y-105574428D02*
X117242858Y-104788714D01*
X117242858Y-104788714D02*
X117171429Y-104645857D01*
X117171429Y-104645857D02*
X117028572Y-104574428D01*
X117028572Y-104574428D02*
X116742858Y-104574428D01*
X116742858Y-104574428D02*
X116600000Y-104645857D01*
X117242858Y-105503000D02*
X117100000Y-105574428D01*
X117100000Y-105574428D02*
X116742858Y-105574428D01*
X116742858Y-105574428D02*
X116600000Y-105503000D01*
X116600000Y-105503000D02*
X116528572Y-105360142D01*
X116528572Y-105360142D02*
X116528572Y-105217285D01*
X116528572Y-105217285D02*
X116600000Y-105074428D01*
X116600000Y-105074428D02*
X116742858Y-105003000D01*
X116742858Y-105003000D02*
X117100000Y-105003000D01*
X117100000Y-105003000D02*
X117242858Y-104931571D01*
X117742858Y-104574428D02*
X118314286Y-104574428D01*
X117957143Y-104074428D02*
X117957143Y-105360142D01*
X117957143Y-105360142D02*
X118028572Y-105503000D01*
X118028572Y-105503000D02*
X118171429Y-105574428D01*
X118171429Y-105574428D02*
X118314286Y-105574428D01*
X119385715Y-105503000D02*
X119242858Y-105574428D01*
X119242858Y-105574428D02*
X118957144Y-105574428D01*
X118957144Y-105574428D02*
X118814286Y-105503000D01*
X118814286Y-105503000D02*
X118742858Y-105360142D01*
X118742858Y-105360142D02*
X118742858Y-104788714D01*
X118742858Y-104788714D02*
X118814286Y-104645857D01*
X118814286Y-104645857D02*
X118957144Y-104574428D01*
X118957144Y-104574428D02*
X119242858Y-104574428D01*
X119242858Y-104574428D02*
X119385715Y-104645857D01*
X119385715Y-104645857D02*
X119457144Y-104788714D01*
X119457144Y-104788714D02*
X119457144Y-104931571D01*
X119457144Y-104931571D02*
X118742858Y-105074428D01*
X120742858Y-105574428D02*
X120742858Y-104074428D01*
X120742858Y-105503000D02*
X120600000Y-105574428D01*
X120600000Y-105574428D02*
X120314286Y-105574428D01*
X120314286Y-105574428D02*
X120171429Y-105503000D01*
X120171429Y-105503000D02*
X120100000Y-105431571D01*
X120100000Y-105431571D02*
X120028572Y-105288714D01*
X120028572Y-105288714D02*
X120028572Y-104860142D01*
X120028572Y-104860142D02*
X120100000Y-104717285D01*
X120100000Y-104717285D02*
X120171429Y-104645857D01*
X120171429Y-104645857D02*
X120314286Y-104574428D01*
X120314286Y-104574428D02*
X120600000Y-104574428D01*
X120600000Y-104574428D02*
X120742858Y-104645857D01*
D11*
X150116666Y-123449238D02*
X150116666Y-121449238D01*
X150116666Y-121449238D02*
X150592856Y-121449238D01*
X150592856Y-121449238D02*
X150878571Y-121544476D01*
X150878571Y-121544476D02*
X151069047Y-121734952D01*
X151069047Y-121734952D02*
X151164285Y-121925428D01*
X151164285Y-121925428D02*
X151259523Y-122306380D01*
X151259523Y-122306380D02*
X151259523Y-122592095D01*
X151259523Y-122592095D02*
X151164285Y-122973047D01*
X151164285Y-122973047D02*
X151069047Y-123163523D01*
X151069047Y-123163523D02*
X150878571Y-123354000D01*
X150878571Y-123354000D02*
X150592856Y-123449238D01*
X150592856Y-123449238D02*
X150116666Y-123449238D01*
X152878571Y-123354000D02*
X152688095Y-123449238D01*
X152688095Y-123449238D02*
X152307142Y-123449238D01*
X152307142Y-123449238D02*
X152116666Y-123354000D01*
X152116666Y-123354000D02*
X152021428Y-123163523D01*
X152021428Y-123163523D02*
X152021428Y-122401619D01*
X152021428Y-122401619D02*
X152116666Y-122211142D01*
X152116666Y-122211142D02*
X152307142Y-122115904D01*
X152307142Y-122115904D02*
X152688095Y-122115904D01*
X152688095Y-122115904D02*
X152878571Y-122211142D01*
X152878571Y-122211142D02*
X152973809Y-122401619D01*
X152973809Y-122401619D02*
X152973809Y-122592095D01*
X152973809Y-122592095D02*
X152021428Y-122782571D01*
X153640476Y-122115904D02*
X154116666Y-123449238D01*
X154116666Y-123449238D02*
X154592857Y-122115904D01*
X155354762Y-123449238D02*
X155354762Y-122115904D01*
X155354762Y-121449238D02*
X155259524Y-121544476D01*
X155259524Y-121544476D02*
X155354762Y-121639714D01*
X155354762Y-121639714D02*
X155450000Y-121544476D01*
X155450000Y-121544476D02*
X155354762Y-121449238D01*
X155354762Y-121449238D02*
X155354762Y-121639714D01*
X157164286Y-123354000D02*
X156973810Y-123449238D01*
X156973810Y-123449238D02*
X156592857Y-123449238D01*
X156592857Y-123449238D02*
X156402381Y-123354000D01*
X156402381Y-123354000D02*
X156307143Y-123258761D01*
X156307143Y-123258761D02*
X156211905Y-123068285D01*
X156211905Y-123068285D02*
X156211905Y-122496857D01*
X156211905Y-122496857D02*
X156307143Y-122306380D01*
X156307143Y-122306380D02*
X156402381Y-122211142D01*
X156402381Y-122211142D02*
X156592857Y-122115904D01*
X156592857Y-122115904D02*
X156973810Y-122115904D01*
X156973810Y-122115904D02*
X157164286Y-122211142D01*
X158783334Y-123354000D02*
X158592858Y-123449238D01*
X158592858Y-123449238D02*
X158211905Y-123449238D01*
X158211905Y-123449238D02*
X158021429Y-123354000D01*
X158021429Y-123354000D02*
X157926191Y-123163523D01*
X157926191Y-123163523D02*
X157926191Y-122401619D01*
X157926191Y-122401619D02*
X158021429Y-122211142D01*
X158021429Y-122211142D02*
X158211905Y-122115904D01*
X158211905Y-122115904D02*
X158592858Y-122115904D01*
X158592858Y-122115904D02*
X158783334Y-122211142D01*
X158783334Y-122211142D02*
X158878572Y-122401619D01*
X158878572Y-122401619D02*
X158878572Y-122592095D01*
X158878572Y-122592095D02*
X157926191Y-122782571D01*
D12*
X130816666Y-149363595D02*
X130816666Y-148563595D01*
X130816666Y-148563595D02*
X131121428Y-148563595D01*
X131121428Y-148563595D02*
X131197618Y-148601690D01*
X131197618Y-148601690D02*
X131235713Y-148639785D01*
X131235713Y-148639785D02*
X131273809Y-148715976D01*
X131273809Y-148715976D02*
X131273809Y-148830261D01*
X131273809Y-148830261D02*
X131235713Y-148906452D01*
X131235713Y-148906452D02*
X131197618Y-148944547D01*
X131197618Y-148944547D02*
X131121428Y-148982642D01*
X131121428Y-148982642D02*
X130816666Y-148982642D01*
X131730951Y-149363595D02*
X131654761Y-149325500D01*
X131654761Y-149325500D02*
X131616666Y-149287404D01*
X131616666Y-149287404D02*
X131578570Y-149211214D01*
X131578570Y-149211214D02*
X131578570Y-148982642D01*
X131578570Y-148982642D02*
X131616666Y-148906452D01*
X131616666Y-148906452D02*
X131654761Y-148868357D01*
X131654761Y-148868357D02*
X131730951Y-148830261D01*
X131730951Y-148830261D02*
X131845237Y-148830261D01*
X131845237Y-148830261D02*
X131921428Y-148868357D01*
X131921428Y-148868357D02*
X131959523Y-148906452D01*
X131959523Y-148906452D02*
X131997618Y-148982642D01*
X131997618Y-148982642D02*
X131997618Y-149211214D01*
X131997618Y-149211214D02*
X131959523Y-149287404D01*
X131959523Y-149287404D02*
X131921428Y-149325500D01*
X131921428Y-149325500D02*
X131845237Y-149363595D01*
X131845237Y-149363595D02*
X131730951Y-149363595D01*
X132264285Y-148830261D02*
X132416666Y-149363595D01*
X132416666Y-149363595D02*
X132569047Y-148982642D01*
X132569047Y-148982642D02*
X132721428Y-149363595D01*
X132721428Y-149363595D02*
X132873809Y-148830261D01*
X133483333Y-149325500D02*
X133407142Y-149363595D01*
X133407142Y-149363595D02*
X133254761Y-149363595D01*
X133254761Y-149363595D02*
X133178571Y-149325500D01*
X133178571Y-149325500D02*
X133140475Y-149249309D01*
X133140475Y-149249309D02*
X133140475Y-148944547D01*
X133140475Y-148944547D02*
X133178571Y-148868357D01*
X133178571Y-148868357D02*
X133254761Y-148830261D01*
X133254761Y-148830261D02*
X133407142Y-148830261D01*
X133407142Y-148830261D02*
X133483333Y-148868357D01*
X133483333Y-148868357D02*
X133521428Y-148944547D01*
X133521428Y-148944547D02*
X133521428Y-149020738D01*
X133521428Y-149020738D02*
X133140475Y-149096928D01*
X133864285Y-149363595D02*
X133864285Y-148830261D01*
X133864285Y-148982642D02*
X133902380Y-148906452D01*
X133902380Y-148906452D02*
X133940475Y-148868357D01*
X133940475Y-148868357D02*
X134016666Y-148830261D01*
X134016666Y-148830261D02*
X134092856Y-148830261D01*
X134169047Y-149439785D02*
X134778570Y-149439785D01*
X135311904Y-148830261D02*
X135311904Y-149477880D01*
X135311904Y-149477880D02*
X135273809Y-149554071D01*
X135273809Y-149554071D02*
X135235713Y-149592166D01*
X135235713Y-149592166D02*
X135159523Y-149630261D01*
X135159523Y-149630261D02*
X135045237Y-149630261D01*
X135045237Y-149630261D02*
X134969047Y-149592166D01*
X135311904Y-149325500D02*
X135235713Y-149363595D01*
X135235713Y-149363595D02*
X135083332Y-149363595D01*
X135083332Y-149363595D02*
X135007142Y-149325500D01*
X135007142Y-149325500D02*
X134969047Y-149287404D01*
X134969047Y-149287404D02*
X134930951Y-149211214D01*
X134930951Y-149211214D02*
X134930951Y-148982642D01*
X134930951Y-148982642D02*
X134969047Y-148906452D01*
X134969047Y-148906452D02*
X135007142Y-148868357D01*
X135007142Y-148868357D02*
X135083332Y-148830261D01*
X135083332Y-148830261D02*
X135235713Y-148830261D01*
X135235713Y-148830261D02*
X135311904Y-148868357D01*
X135807142Y-149363595D02*
X135730952Y-149325500D01*
X135730952Y-149325500D02*
X135692857Y-149287404D01*
X135692857Y-149287404D02*
X135654761Y-149211214D01*
X135654761Y-149211214D02*
X135654761Y-148982642D01*
X135654761Y-148982642D02*
X135692857Y-148906452D01*
X135692857Y-148906452D02*
X135730952Y-148868357D01*
X135730952Y-148868357D02*
X135807142Y-148830261D01*
X135807142Y-148830261D02*
X135921428Y-148830261D01*
X135921428Y-148830261D02*
X135997619Y-148868357D01*
X135997619Y-148868357D02*
X136035714Y-148906452D01*
X136035714Y-148906452D02*
X136073809Y-148982642D01*
X136073809Y-148982642D02*
X136073809Y-149211214D01*
X136073809Y-149211214D02*
X136035714Y-149287404D01*
X136035714Y-149287404D02*
X135997619Y-149325500D01*
X135997619Y-149325500D02*
X135921428Y-149363595D01*
X135921428Y-149363595D02*
X135807142Y-149363595D01*
X136530952Y-149363595D02*
X136454762Y-149325500D01*
X136454762Y-149325500D02*
X136416667Y-149287404D01*
X136416667Y-149287404D02*
X136378571Y-149211214D01*
X136378571Y-149211214D02*
X136378571Y-148982642D01*
X136378571Y-148982642D02*
X136416667Y-148906452D01*
X136416667Y-148906452D02*
X136454762Y-148868357D01*
X136454762Y-148868357D02*
X136530952Y-148830261D01*
X136530952Y-148830261D02*
X136645238Y-148830261D01*
X136645238Y-148830261D02*
X136721429Y-148868357D01*
X136721429Y-148868357D02*
X136759524Y-148906452D01*
X136759524Y-148906452D02*
X136797619Y-148982642D01*
X136797619Y-148982642D02*
X136797619Y-149211214D01*
X136797619Y-149211214D02*
X136759524Y-149287404D01*
X136759524Y-149287404D02*
X136721429Y-149325500D01*
X136721429Y-149325500D02*
X136645238Y-149363595D01*
X136645238Y-149363595D02*
X136530952Y-149363595D01*
X137483334Y-149363595D02*
X137483334Y-148563595D01*
X137483334Y-149325500D02*
X137407143Y-149363595D01*
X137407143Y-149363595D02*
X137254762Y-149363595D01*
X137254762Y-149363595D02*
X137178572Y-149325500D01*
X137178572Y-149325500D02*
X137140477Y-149287404D01*
X137140477Y-149287404D02*
X137102381Y-149211214D01*
X137102381Y-149211214D02*
X137102381Y-148982642D01*
X137102381Y-148982642D02*
X137140477Y-148906452D01*
X137140477Y-148906452D02*
X137178572Y-148868357D01*
X137178572Y-148868357D02*
X137254762Y-148830261D01*
X137254762Y-148830261D02*
X137407143Y-148830261D01*
X137407143Y-148830261D02*
X137483334Y-148868357D01*
D10*
X136009524Y-110904819D02*
X136009524Y-110238152D01*
X136009524Y-110428628D02*
X136057143Y-110333390D01*
X136057143Y-110333390D02*
X136104762Y-110285771D01*
X136104762Y-110285771D02*
X136200000Y-110238152D01*
X136200000Y-110238152D02*
X136295238Y-110238152D01*
X137009524Y-110857200D02*
X136914286Y-110904819D01*
X136914286Y-110904819D02*
X136723810Y-110904819D01*
X136723810Y-110904819D02*
X136628572Y-110857200D01*
X136628572Y-110857200D02*
X136580953Y-110761961D01*
X136580953Y-110761961D02*
X136580953Y-110381009D01*
X136580953Y-110381009D02*
X136628572Y-110285771D01*
X136628572Y-110285771D02*
X136723810Y-110238152D01*
X136723810Y-110238152D02*
X136914286Y-110238152D01*
X136914286Y-110238152D02*
X137009524Y-110285771D01*
X137009524Y-110285771D02*
X137057143Y-110381009D01*
X137057143Y-110381009D02*
X137057143Y-110476247D01*
X137057143Y-110476247D02*
X136580953Y-110571485D01*
X137390477Y-110238152D02*
X137628572Y-110904819D01*
X137628572Y-110904819D02*
X137866667Y-110238152D01*
X138247620Y-110809580D02*
X138295239Y-110857200D01*
X138295239Y-110857200D02*
X138247620Y-110904819D01*
X138247620Y-110904819D02*
X138200001Y-110857200D01*
X138200001Y-110857200D02*
X138247620Y-110809580D01*
X138247620Y-110809580D02*
X138247620Y-110904819D01*
X140009524Y-110904819D02*
X139438096Y-110904819D01*
X139723810Y-110904819D02*
X139723810Y-109904819D01*
X139723810Y-109904819D02*
X139628572Y-110047676D01*
X139628572Y-110047676D02*
X139533334Y-110142914D01*
X139533334Y-110142914D02*
X139438096Y-110190533D01*
X140438096Y-110809580D02*
X140485715Y-110857200D01*
X140485715Y-110857200D02*
X140438096Y-110904819D01*
X140438096Y-110904819D02*
X140390477Y-110857200D01*
X140390477Y-110857200D02*
X140438096Y-110809580D01*
X140438096Y-110809580D02*
X140438096Y-110904819D01*
X140866667Y-110000057D02*
X140914286Y-109952438D01*
X140914286Y-109952438D02*
X141009524Y-109904819D01*
X141009524Y-109904819D02*
X141247619Y-109904819D01*
X141247619Y-109904819D02*
X141342857Y-109952438D01*
X141342857Y-109952438D02*
X141390476Y-110000057D01*
X141390476Y-110000057D02*
X141438095Y-110095295D01*
X141438095Y-110095295D02*
X141438095Y-110190533D01*
X141438095Y-110190533D02*
X141390476Y-110333390D01*
X141390476Y-110333390D02*
X140819048Y-110904819D01*
X140819048Y-110904819D02*
X141438095Y-110904819D01*
D12*
X117766191Y-149363595D02*
X117766191Y-148563595D01*
X117766191Y-148563595D02*
X118070953Y-148563595D01*
X118070953Y-148563595D02*
X118147143Y-148601690D01*
X118147143Y-148601690D02*
X118185238Y-148639785D01*
X118185238Y-148639785D02*
X118223334Y-148715976D01*
X118223334Y-148715976D02*
X118223334Y-148830261D01*
X118223334Y-148830261D02*
X118185238Y-148906452D01*
X118185238Y-148906452D02*
X118147143Y-148944547D01*
X118147143Y-148944547D02*
X118070953Y-148982642D01*
X118070953Y-148982642D02*
X117766191Y-148982642D01*
X118680476Y-149363595D02*
X118604286Y-149325500D01*
X118604286Y-149325500D02*
X118566191Y-149287404D01*
X118566191Y-149287404D02*
X118528095Y-149211214D01*
X118528095Y-149211214D02*
X118528095Y-148982642D01*
X118528095Y-148982642D02*
X118566191Y-148906452D01*
X118566191Y-148906452D02*
X118604286Y-148868357D01*
X118604286Y-148868357D02*
X118680476Y-148830261D01*
X118680476Y-148830261D02*
X118794762Y-148830261D01*
X118794762Y-148830261D02*
X118870953Y-148868357D01*
X118870953Y-148868357D02*
X118909048Y-148906452D01*
X118909048Y-148906452D02*
X118947143Y-148982642D01*
X118947143Y-148982642D02*
X118947143Y-149211214D01*
X118947143Y-149211214D02*
X118909048Y-149287404D01*
X118909048Y-149287404D02*
X118870953Y-149325500D01*
X118870953Y-149325500D02*
X118794762Y-149363595D01*
X118794762Y-149363595D02*
X118680476Y-149363595D01*
X119213810Y-148830261D02*
X119366191Y-149363595D01*
X119366191Y-149363595D02*
X119518572Y-148982642D01*
X119518572Y-148982642D02*
X119670953Y-149363595D01*
X119670953Y-149363595D02*
X119823334Y-148830261D01*
X120432858Y-149325500D02*
X120356667Y-149363595D01*
X120356667Y-149363595D02*
X120204286Y-149363595D01*
X120204286Y-149363595D02*
X120128096Y-149325500D01*
X120128096Y-149325500D02*
X120090000Y-149249309D01*
X120090000Y-149249309D02*
X120090000Y-148944547D01*
X120090000Y-148944547D02*
X120128096Y-148868357D01*
X120128096Y-148868357D02*
X120204286Y-148830261D01*
X120204286Y-148830261D02*
X120356667Y-148830261D01*
X120356667Y-148830261D02*
X120432858Y-148868357D01*
X120432858Y-148868357D02*
X120470953Y-148944547D01*
X120470953Y-148944547D02*
X120470953Y-149020738D01*
X120470953Y-149020738D02*
X120090000Y-149096928D01*
X120813810Y-149363595D02*
X120813810Y-148830261D01*
X120813810Y-148982642D02*
X120851905Y-148906452D01*
X120851905Y-148906452D02*
X120890000Y-148868357D01*
X120890000Y-148868357D02*
X120966191Y-148830261D01*
X120966191Y-148830261D02*
X121042381Y-148830261D01*
X122070953Y-148563595D02*
X122223334Y-148563595D01*
X122223334Y-148563595D02*
X122299524Y-148601690D01*
X122299524Y-148601690D02*
X122375715Y-148677880D01*
X122375715Y-148677880D02*
X122413810Y-148830261D01*
X122413810Y-148830261D02*
X122413810Y-149096928D01*
X122413810Y-149096928D02*
X122375715Y-149249309D01*
X122375715Y-149249309D02*
X122299524Y-149325500D01*
X122299524Y-149325500D02*
X122223334Y-149363595D01*
X122223334Y-149363595D02*
X122070953Y-149363595D01*
X122070953Y-149363595D02*
X121994762Y-149325500D01*
X121994762Y-149325500D02*
X121918572Y-149249309D01*
X121918572Y-149249309D02*
X121880476Y-149096928D01*
X121880476Y-149096928D02*
X121880476Y-148830261D01*
X121880476Y-148830261D02*
X121918572Y-148677880D01*
X121918572Y-148677880D02*
X121994762Y-148601690D01*
X121994762Y-148601690D02*
X122070953Y-148563595D01*
X122756667Y-149363595D02*
X122756667Y-148563595D01*
X122756667Y-148563595D02*
X123213810Y-149363595D01*
X123213810Y-149363595D02*
X123213810Y-148563595D01*
D10*
X124689580Y-134992857D02*
X124737200Y-135040476D01*
X124737200Y-135040476D02*
X124784819Y-135183333D01*
X124784819Y-135183333D02*
X124784819Y-135278571D01*
X124784819Y-135278571D02*
X124737200Y-135421428D01*
X124737200Y-135421428D02*
X124641961Y-135516666D01*
X124641961Y-135516666D02*
X124546723Y-135564285D01*
X124546723Y-135564285D02*
X124356247Y-135611904D01*
X124356247Y-135611904D02*
X124213390Y-135611904D01*
X124213390Y-135611904D02*
X124022914Y-135564285D01*
X124022914Y-135564285D02*
X123927676Y-135516666D01*
X123927676Y-135516666D02*
X123832438Y-135421428D01*
X123832438Y-135421428D02*
X123784819Y-135278571D01*
X123784819Y-135278571D02*
X123784819Y-135183333D01*
X123784819Y-135183333D02*
X123832438Y-135040476D01*
X123832438Y-135040476D02*
X123880057Y-134992857D01*
X124784819Y-134040476D02*
X124784819Y-134611904D01*
X124784819Y-134326190D02*
X123784819Y-134326190D01*
X123784819Y-134326190D02*
X123927676Y-134421428D01*
X123927676Y-134421428D02*
X124022914Y-134516666D01*
X124022914Y-134516666D02*
X124070533Y-134611904D01*
X124784819Y-133088095D02*
X124784819Y-133659523D01*
X124784819Y-133373809D02*
X123784819Y-133373809D01*
X123784819Y-133373809D02*
X123927676Y-133469047D01*
X123927676Y-133469047D02*
X124022914Y-133564285D01*
X124022914Y-133564285D02*
X124070533Y-133659523D01*
X111566667Y-147337200D02*
X111709524Y-147384819D01*
X111709524Y-147384819D02*
X111947619Y-147384819D01*
X111947619Y-147384819D02*
X112042857Y-147337200D01*
X112042857Y-147337200D02*
X112090476Y-147289580D01*
X112090476Y-147289580D02*
X112138095Y-147194342D01*
X112138095Y-147194342D02*
X112138095Y-147099104D01*
X112138095Y-147099104D02*
X112090476Y-147003866D01*
X112090476Y-147003866D02*
X112042857Y-146956247D01*
X112042857Y-146956247D02*
X111947619Y-146908628D01*
X111947619Y-146908628D02*
X111757143Y-146861009D01*
X111757143Y-146861009D02*
X111661905Y-146813390D01*
X111661905Y-146813390D02*
X111614286Y-146765771D01*
X111614286Y-146765771D02*
X111566667Y-146670533D01*
X111566667Y-146670533D02*
X111566667Y-146575295D01*
X111566667Y-146575295D02*
X111614286Y-146480057D01*
X111614286Y-146480057D02*
X111661905Y-146432438D01*
X111661905Y-146432438D02*
X111757143Y-146384819D01*
X111757143Y-146384819D02*
X111995238Y-146384819D01*
X111995238Y-146384819D02*
X112138095Y-146432438D01*
X112471429Y-146384819D02*
X112709524Y-147384819D01*
X112709524Y-147384819D02*
X112900000Y-146670533D01*
X112900000Y-146670533D02*
X113090476Y-147384819D01*
X113090476Y-147384819D02*
X113328572Y-146384819D01*
X114233333Y-147384819D02*
X113661905Y-147384819D01*
X113947619Y-147384819D02*
X113947619Y-146384819D01*
X113947619Y-146384819D02*
X113852381Y-146527676D01*
X113852381Y-146527676D02*
X113757143Y-146622914D01*
X113757143Y-146622914D02*
X113661905Y-146670533D01*
X125259580Y-120566666D02*
X125307200Y-120614285D01*
X125307200Y-120614285D02*
X125354819Y-120757142D01*
X125354819Y-120757142D02*
X125354819Y-120852380D01*
X125354819Y-120852380D02*
X125307200Y-120995237D01*
X125307200Y-120995237D02*
X125211961Y-121090475D01*
X125211961Y-121090475D02*
X125116723Y-121138094D01*
X125116723Y-121138094D02*
X124926247Y-121185713D01*
X124926247Y-121185713D02*
X124783390Y-121185713D01*
X124783390Y-121185713D02*
X124592914Y-121138094D01*
X124592914Y-121138094D02*
X124497676Y-121090475D01*
X124497676Y-121090475D02*
X124402438Y-120995237D01*
X124402438Y-120995237D02*
X124354819Y-120852380D01*
X124354819Y-120852380D02*
X124354819Y-120757142D01*
X124354819Y-120757142D02*
X124402438Y-120614285D01*
X124402438Y-120614285D02*
X124450057Y-120566666D01*
X124450057Y-120185713D02*
X124402438Y-120138094D01*
X124402438Y-120138094D02*
X124354819Y-120042856D01*
X124354819Y-120042856D02*
X124354819Y-119804761D01*
X124354819Y-119804761D02*
X124402438Y-119709523D01*
X124402438Y-119709523D02*
X124450057Y-119661904D01*
X124450057Y-119661904D02*
X124545295Y-119614285D01*
X124545295Y-119614285D02*
X124640533Y-119614285D01*
X124640533Y-119614285D02*
X124783390Y-119661904D01*
X124783390Y-119661904D02*
X125354819Y-120233332D01*
X125354819Y-120233332D02*
X125354819Y-119614285D01*
X124054819Y-120566666D02*
X123578628Y-120899999D01*
X124054819Y-121138094D02*
X123054819Y-121138094D01*
X123054819Y-121138094D02*
X123054819Y-120757142D01*
X123054819Y-120757142D02*
X123102438Y-120661904D01*
X123102438Y-120661904D02*
X123150057Y-120614285D01*
X123150057Y-120614285D02*
X123245295Y-120566666D01*
X123245295Y-120566666D02*
X123388152Y-120566666D01*
X123388152Y-120566666D02*
X123483390Y-120614285D01*
X123483390Y-120614285D02*
X123531009Y-120661904D01*
X123531009Y-120661904D02*
X123578628Y-120757142D01*
X123578628Y-120757142D02*
X123578628Y-121138094D01*
X123483390Y-119995237D02*
X123435771Y-120090475D01*
X123435771Y-120090475D02*
X123388152Y-120138094D01*
X123388152Y-120138094D02*
X123292914Y-120185713D01*
X123292914Y-120185713D02*
X123245295Y-120185713D01*
X123245295Y-120185713D02*
X123150057Y-120138094D01*
X123150057Y-120138094D02*
X123102438Y-120090475D01*
X123102438Y-120090475D02*
X123054819Y-119995237D01*
X123054819Y-119995237D02*
X123054819Y-119804761D01*
X123054819Y-119804761D02*
X123102438Y-119709523D01*
X123102438Y-119709523D02*
X123150057Y-119661904D01*
X123150057Y-119661904D02*
X123245295Y-119614285D01*
X123245295Y-119614285D02*
X123292914Y-119614285D01*
X123292914Y-119614285D02*
X123388152Y-119661904D01*
X123388152Y-119661904D02*
X123435771Y-119709523D01*
X123435771Y-119709523D02*
X123483390Y-119804761D01*
X123483390Y-119804761D02*
X123483390Y-119995237D01*
X123483390Y-119995237D02*
X123531009Y-120090475D01*
X123531009Y-120090475D02*
X123578628Y-120138094D01*
X123578628Y-120138094D02*
X123673866Y-120185713D01*
X123673866Y-120185713D02*
X123864342Y-120185713D01*
X123864342Y-120185713D02*
X123959580Y-120138094D01*
X123959580Y-120138094D02*
X124007200Y-120090475D01*
X124007200Y-120090475D02*
X124054819Y-119995237D01*
X124054819Y-119995237D02*
X124054819Y-119804761D01*
X124054819Y-119804761D02*
X124007200Y-119709523D01*
X124007200Y-119709523D02*
X123959580Y-119661904D01*
X123959580Y-119661904D02*
X123864342Y-119614285D01*
X123864342Y-119614285D02*
X123673866Y-119614285D01*
X123673866Y-119614285D02*
X123578628Y-119661904D01*
X123578628Y-119661904D02*
X123531009Y-119709523D01*
X123531009Y-119709523D02*
X123483390Y-119804761D01*
X148066666Y-124054819D02*
X148066666Y-124769104D01*
X148066666Y-124769104D02*
X148019047Y-124911961D01*
X148019047Y-124911961D02*
X147923809Y-125007200D01*
X147923809Y-125007200D02*
X147780952Y-125054819D01*
X147780952Y-125054819D02*
X147685714Y-125054819D01*
X148447619Y-124054819D02*
X149066666Y-124054819D01*
X149066666Y-124054819D02*
X148733333Y-124435771D01*
X148733333Y-124435771D02*
X148876190Y-124435771D01*
X148876190Y-124435771D02*
X148971428Y-124483390D01*
X148971428Y-124483390D02*
X149019047Y-124531009D01*
X149019047Y-124531009D02*
X149066666Y-124626247D01*
X149066666Y-124626247D02*
X149066666Y-124864342D01*
X149066666Y-124864342D02*
X149019047Y-124959580D01*
X149019047Y-124959580D02*
X148971428Y-125007200D01*
X148971428Y-125007200D02*
X148876190Y-125054819D01*
X148876190Y-125054819D02*
X148590476Y-125054819D01*
X148590476Y-125054819D02*
X148495238Y-125007200D01*
X148495238Y-125007200D02*
X148447619Y-124959580D01*
X102283333Y-129234819D02*
X101950000Y-128758628D01*
X101711905Y-129234819D02*
X101711905Y-128234819D01*
X101711905Y-128234819D02*
X102092857Y-128234819D01*
X102092857Y-128234819D02*
X102188095Y-128282438D01*
X102188095Y-128282438D02*
X102235714Y-128330057D01*
X102235714Y-128330057D02*
X102283333Y-128425295D01*
X102283333Y-128425295D02*
X102283333Y-128568152D01*
X102283333Y-128568152D02*
X102235714Y-128663390D01*
X102235714Y-128663390D02*
X102188095Y-128711009D01*
X102188095Y-128711009D02*
X102092857Y-128758628D01*
X102092857Y-128758628D02*
X101711905Y-128758628D01*
X103140476Y-128234819D02*
X102950000Y-128234819D01*
X102950000Y-128234819D02*
X102854762Y-128282438D01*
X102854762Y-128282438D02*
X102807143Y-128330057D01*
X102807143Y-128330057D02*
X102711905Y-128472914D01*
X102711905Y-128472914D02*
X102664286Y-128663390D01*
X102664286Y-128663390D02*
X102664286Y-129044342D01*
X102664286Y-129044342D02*
X102711905Y-129139580D01*
X102711905Y-129139580D02*
X102759524Y-129187200D01*
X102759524Y-129187200D02*
X102854762Y-129234819D01*
X102854762Y-129234819D02*
X103045238Y-129234819D01*
X103045238Y-129234819D02*
X103140476Y-129187200D01*
X103140476Y-129187200D02*
X103188095Y-129139580D01*
X103188095Y-129139580D02*
X103235714Y-129044342D01*
X103235714Y-129044342D02*
X103235714Y-128806247D01*
X103235714Y-128806247D02*
X103188095Y-128711009D01*
X103188095Y-128711009D02*
X103140476Y-128663390D01*
X103140476Y-128663390D02*
X103045238Y-128615771D01*
X103045238Y-128615771D02*
X102854762Y-128615771D01*
X102854762Y-128615771D02*
X102759524Y-128663390D01*
X102759524Y-128663390D02*
X102711905Y-128711009D01*
X102711905Y-128711009D02*
X102664286Y-128806247D01*
X113654819Y-134542857D02*
X113178628Y-134876190D01*
X113654819Y-135114285D02*
X112654819Y-135114285D01*
X112654819Y-135114285D02*
X112654819Y-134733333D01*
X112654819Y-134733333D02*
X112702438Y-134638095D01*
X112702438Y-134638095D02*
X112750057Y-134590476D01*
X112750057Y-134590476D02*
X112845295Y-134542857D01*
X112845295Y-134542857D02*
X112988152Y-134542857D01*
X112988152Y-134542857D02*
X113083390Y-134590476D01*
X113083390Y-134590476D02*
X113131009Y-134638095D01*
X113131009Y-134638095D02*
X113178628Y-134733333D01*
X113178628Y-134733333D02*
X113178628Y-135114285D01*
X112750057Y-134161904D02*
X112702438Y-134114285D01*
X112702438Y-134114285D02*
X112654819Y-134019047D01*
X112654819Y-134019047D02*
X112654819Y-133780952D01*
X112654819Y-133780952D02*
X112702438Y-133685714D01*
X112702438Y-133685714D02*
X112750057Y-133638095D01*
X112750057Y-133638095D02*
X112845295Y-133590476D01*
X112845295Y-133590476D02*
X112940533Y-133590476D01*
X112940533Y-133590476D02*
X113083390Y-133638095D01*
X113083390Y-133638095D02*
X113654819Y-134209523D01*
X113654819Y-134209523D02*
X113654819Y-133590476D01*
X112654819Y-132971428D02*
X112654819Y-132876190D01*
X112654819Y-132876190D02*
X112702438Y-132780952D01*
X112702438Y-132780952D02*
X112750057Y-132733333D01*
X112750057Y-132733333D02*
X112845295Y-132685714D01*
X112845295Y-132685714D02*
X113035771Y-132638095D01*
X113035771Y-132638095D02*
X113273866Y-132638095D01*
X113273866Y-132638095D02*
X113464342Y-132685714D01*
X113464342Y-132685714D02*
X113559580Y-132733333D01*
X113559580Y-132733333D02*
X113607200Y-132780952D01*
X113607200Y-132780952D02*
X113654819Y-132876190D01*
X113654819Y-132876190D02*
X113654819Y-132971428D01*
X113654819Y-132971428D02*
X113607200Y-133066666D01*
X113607200Y-133066666D02*
X113559580Y-133114285D01*
X113559580Y-133114285D02*
X113464342Y-133161904D01*
X113464342Y-133161904D02*
X113273866Y-133209523D01*
X113273866Y-133209523D02*
X113035771Y-133209523D01*
X113035771Y-133209523D02*
X112845295Y-133161904D01*
X112845295Y-133161904D02*
X112750057Y-133114285D01*
X112750057Y-133114285D02*
X112702438Y-133066666D01*
X112702438Y-133066666D02*
X112654819Y-132971428D01*
X137974819Y-147282857D02*
X137498628Y-147616190D01*
X137974819Y-147854285D02*
X136974819Y-147854285D01*
X136974819Y-147854285D02*
X136974819Y-147473333D01*
X136974819Y-147473333D02*
X137022438Y-147378095D01*
X137022438Y-147378095D02*
X137070057Y-147330476D01*
X137070057Y-147330476D02*
X137165295Y-147282857D01*
X137165295Y-147282857D02*
X137308152Y-147282857D01*
X137308152Y-147282857D02*
X137403390Y-147330476D01*
X137403390Y-147330476D02*
X137451009Y-147378095D01*
X137451009Y-147378095D02*
X137498628Y-147473333D01*
X137498628Y-147473333D02*
X137498628Y-147854285D01*
X137070057Y-146901904D02*
X137022438Y-146854285D01*
X137022438Y-146854285D02*
X136974819Y-146759047D01*
X136974819Y-146759047D02*
X136974819Y-146520952D01*
X136974819Y-146520952D02*
X137022438Y-146425714D01*
X137022438Y-146425714D02*
X137070057Y-146378095D01*
X137070057Y-146378095D02*
X137165295Y-146330476D01*
X137165295Y-146330476D02*
X137260533Y-146330476D01*
X137260533Y-146330476D02*
X137403390Y-146378095D01*
X137403390Y-146378095D02*
X137974819Y-146949523D01*
X137974819Y-146949523D02*
X137974819Y-146330476D01*
X136974819Y-145997142D02*
X136974819Y-145378095D01*
X136974819Y-145378095D02*
X137355771Y-145711428D01*
X137355771Y-145711428D02*
X137355771Y-145568571D01*
X137355771Y-145568571D02*
X137403390Y-145473333D01*
X137403390Y-145473333D02*
X137451009Y-145425714D01*
X137451009Y-145425714D02*
X137546247Y-145378095D01*
X137546247Y-145378095D02*
X137784342Y-145378095D01*
X137784342Y-145378095D02*
X137879580Y-145425714D01*
X137879580Y-145425714D02*
X137927200Y-145473333D01*
X137927200Y-145473333D02*
X137974819Y-145568571D01*
X137974819Y-145568571D02*
X137974819Y-145854285D01*
X137974819Y-145854285D02*
X137927200Y-145949523D01*
X137927200Y-145949523D02*
X137879580Y-145997142D01*
X129824819Y-151588094D02*
X128824819Y-151588094D01*
X128824819Y-151588094D02*
X128824819Y-151349999D01*
X128824819Y-151349999D02*
X128872438Y-151207142D01*
X128872438Y-151207142D02*
X128967676Y-151111904D01*
X128967676Y-151111904D02*
X129062914Y-151064285D01*
X129062914Y-151064285D02*
X129253390Y-151016666D01*
X129253390Y-151016666D02*
X129396247Y-151016666D01*
X129396247Y-151016666D02*
X129586723Y-151064285D01*
X129586723Y-151064285D02*
X129681961Y-151111904D01*
X129681961Y-151111904D02*
X129777200Y-151207142D01*
X129777200Y-151207142D02*
X129824819Y-151349999D01*
X129824819Y-151349999D02*
X129824819Y-151588094D01*
X129824819Y-150064285D02*
X129824819Y-150635713D01*
X129824819Y-150349999D02*
X128824819Y-150349999D01*
X128824819Y-150349999D02*
X128967676Y-150445237D01*
X128967676Y-150445237D02*
X129062914Y-150540475D01*
X129062914Y-150540475D02*
X129110533Y-150635713D01*
X110854819Y-140561904D02*
X111664342Y-140561904D01*
X111664342Y-140561904D02*
X111759580Y-140514285D01*
X111759580Y-140514285D02*
X111807200Y-140466666D01*
X111807200Y-140466666D02*
X111854819Y-140371428D01*
X111854819Y-140371428D02*
X111854819Y-140180952D01*
X111854819Y-140180952D02*
X111807200Y-140085714D01*
X111807200Y-140085714D02*
X111759580Y-140038095D01*
X111759580Y-140038095D02*
X111664342Y-139990476D01*
X111664342Y-139990476D02*
X110854819Y-139990476D01*
X110854819Y-139038095D02*
X110854819Y-139514285D01*
X110854819Y-139514285D02*
X111331009Y-139561904D01*
X111331009Y-139561904D02*
X111283390Y-139514285D01*
X111283390Y-139514285D02*
X111235771Y-139419047D01*
X111235771Y-139419047D02*
X111235771Y-139180952D01*
X111235771Y-139180952D02*
X111283390Y-139085714D01*
X111283390Y-139085714D02*
X111331009Y-139038095D01*
X111331009Y-139038095D02*
X111426247Y-138990476D01*
X111426247Y-138990476D02*
X111664342Y-138990476D01*
X111664342Y-138990476D02*
X111759580Y-139038095D01*
X111759580Y-139038095D02*
X111807200Y-139085714D01*
X111807200Y-139085714D02*
X111854819Y-139180952D01*
X111854819Y-139180952D02*
X111854819Y-139419047D01*
X111854819Y-139419047D02*
X111807200Y-139514285D01*
X111807200Y-139514285D02*
X111759580Y-139561904D01*
X110457142Y-115934819D02*
X110123809Y-115458628D01*
X109885714Y-115934819D02*
X109885714Y-114934819D01*
X109885714Y-114934819D02*
X110266666Y-114934819D01*
X110266666Y-114934819D02*
X110361904Y-114982438D01*
X110361904Y-114982438D02*
X110409523Y-115030057D01*
X110409523Y-115030057D02*
X110457142Y-115125295D01*
X110457142Y-115125295D02*
X110457142Y-115268152D01*
X110457142Y-115268152D02*
X110409523Y-115363390D01*
X110409523Y-115363390D02*
X110361904Y-115411009D01*
X110361904Y-115411009D02*
X110266666Y-115458628D01*
X110266666Y-115458628D02*
X109885714Y-115458628D01*
X111409523Y-115934819D02*
X110838095Y-115934819D01*
X111123809Y-115934819D02*
X111123809Y-114934819D01*
X111123809Y-114934819D02*
X111028571Y-115077676D01*
X111028571Y-115077676D02*
X110933333Y-115172914D01*
X110933333Y-115172914D02*
X110838095Y-115220533D01*
X111980952Y-115363390D02*
X111885714Y-115315771D01*
X111885714Y-115315771D02*
X111838095Y-115268152D01*
X111838095Y-115268152D02*
X111790476Y-115172914D01*
X111790476Y-115172914D02*
X111790476Y-115125295D01*
X111790476Y-115125295D02*
X111838095Y-115030057D01*
X111838095Y-115030057D02*
X111885714Y-114982438D01*
X111885714Y-114982438D02*
X111980952Y-114934819D01*
X111980952Y-114934819D02*
X112171428Y-114934819D01*
X112171428Y-114934819D02*
X112266666Y-114982438D01*
X112266666Y-114982438D02*
X112314285Y-115030057D01*
X112314285Y-115030057D02*
X112361904Y-115125295D01*
X112361904Y-115125295D02*
X112361904Y-115172914D01*
X112361904Y-115172914D02*
X112314285Y-115268152D01*
X112314285Y-115268152D02*
X112266666Y-115315771D01*
X112266666Y-115315771D02*
X112171428Y-115363390D01*
X112171428Y-115363390D02*
X111980952Y-115363390D01*
X111980952Y-115363390D02*
X111885714Y-115411009D01*
X111885714Y-115411009D02*
X111838095Y-115458628D01*
X111838095Y-115458628D02*
X111790476Y-115553866D01*
X111790476Y-115553866D02*
X111790476Y-115744342D01*
X111790476Y-115744342D02*
X111838095Y-115839580D01*
X111838095Y-115839580D02*
X111885714Y-115887200D01*
X111885714Y-115887200D02*
X111980952Y-115934819D01*
X111980952Y-115934819D02*
X112171428Y-115934819D01*
X112171428Y-115934819D02*
X112266666Y-115887200D01*
X112266666Y-115887200D02*
X112314285Y-115839580D01*
X112314285Y-115839580D02*
X112361904Y-115744342D01*
X112361904Y-115744342D02*
X112361904Y-115553866D01*
X112361904Y-115553866D02*
X112314285Y-115458628D01*
X112314285Y-115458628D02*
X112266666Y-115411009D01*
X112266666Y-115411009D02*
X112171428Y-115363390D01*
X123259580Y-144242857D02*
X123307200Y-144290476D01*
X123307200Y-144290476D02*
X123354819Y-144433333D01*
X123354819Y-144433333D02*
X123354819Y-144528571D01*
X123354819Y-144528571D02*
X123307200Y-144671428D01*
X123307200Y-144671428D02*
X123211961Y-144766666D01*
X123211961Y-144766666D02*
X123116723Y-144814285D01*
X123116723Y-144814285D02*
X122926247Y-144861904D01*
X122926247Y-144861904D02*
X122783390Y-144861904D01*
X122783390Y-144861904D02*
X122592914Y-144814285D01*
X122592914Y-144814285D02*
X122497676Y-144766666D01*
X122497676Y-144766666D02*
X122402438Y-144671428D01*
X122402438Y-144671428D02*
X122354819Y-144528571D01*
X122354819Y-144528571D02*
X122354819Y-144433333D01*
X122354819Y-144433333D02*
X122402438Y-144290476D01*
X122402438Y-144290476D02*
X122450057Y-144242857D01*
X123354819Y-143290476D02*
X123354819Y-143861904D01*
X123354819Y-143576190D02*
X122354819Y-143576190D01*
X122354819Y-143576190D02*
X122497676Y-143671428D01*
X122497676Y-143671428D02*
X122592914Y-143766666D01*
X122592914Y-143766666D02*
X122640533Y-143861904D01*
X122354819Y-142385714D02*
X122354819Y-142861904D01*
X122354819Y-142861904D02*
X122831009Y-142909523D01*
X122831009Y-142909523D02*
X122783390Y-142861904D01*
X122783390Y-142861904D02*
X122735771Y-142766666D01*
X122735771Y-142766666D02*
X122735771Y-142528571D01*
X122735771Y-142528571D02*
X122783390Y-142433333D01*
X122783390Y-142433333D02*
X122831009Y-142385714D01*
X122831009Y-142385714D02*
X122926247Y-142338095D01*
X122926247Y-142338095D02*
X123164342Y-142338095D01*
X123164342Y-142338095D02*
X123259580Y-142385714D01*
X123259580Y-142385714D02*
X123307200Y-142433333D01*
X123307200Y-142433333D02*
X123354819Y-142528571D01*
X123354819Y-142528571D02*
X123354819Y-142766666D01*
X123354819Y-142766666D02*
X123307200Y-142861904D01*
X123307200Y-142861904D02*
X123259580Y-142909523D01*
X140989580Y-137242857D02*
X141037200Y-137290476D01*
X141037200Y-137290476D02*
X141084819Y-137433333D01*
X141084819Y-137433333D02*
X141084819Y-137528571D01*
X141084819Y-137528571D02*
X141037200Y-137671428D01*
X141037200Y-137671428D02*
X140941961Y-137766666D01*
X140941961Y-137766666D02*
X140846723Y-137814285D01*
X140846723Y-137814285D02*
X140656247Y-137861904D01*
X140656247Y-137861904D02*
X140513390Y-137861904D01*
X140513390Y-137861904D02*
X140322914Y-137814285D01*
X140322914Y-137814285D02*
X140227676Y-137766666D01*
X140227676Y-137766666D02*
X140132438Y-137671428D01*
X140132438Y-137671428D02*
X140084819Y-137528571D01*
X140084819Y-137528571D02*
X140084819Y-137433333D01*
X140084819Y-137433333D02*
X140132438Y-137290476D01*
X140132438Y-137290476D02*
X140180057Y-137242857D01*
X141084819Y-136290476D02*
X141084819Y-136861904D01*
X141084819Y-136576190D02*
X140084819Y-136576190D01*
X140084819Y-136576190D02*
X140227676Y-136671428D01*
X140227676Y-136671428D02*
X140322914Y-136766666D01*
X140322914Y-136766666D02*
X140370533Y-136861904D01*
X140418152Y-135433333D02*
X141084819Y-135433333D01*
X140037200Y-135671428D02*
X140751485Y-135909523D01*
X140751485Y-135909523D02*
X140751485Y-135290476D01*
X107954819Y-139633333D02*
X108669104Y-139633333D01*
X108669104Y-139633333D02*
X108811961Y-139680952D01*
X108811961Y-139680952D02*
X108907200Y-139776190D01*
X108907200Y-139776190D02*
X108954819Y-139919047D01*
X108954819Y-139919047D02*
X108954819Y-140014285D01*
X108050057Y-139204761D02*
X108002438Y-139157142D01*
X108002438Y-139157142D02*
X107954819Y-139061904D01*
X107954819Y-139061904D02*
X107954819Y-138823809D01*
X107954819Y-138823809D02*
X108002438Y-138728571D01*
X108002438Y-138728571D02*
X108050057Y-138680952D01*
X108050057Y-138680952D02*
X108145295Y-138633333D01*
X108145295Y-138633333D02*
X108240533Y-138633333D01*
X108240533Y-138633333D02*
X108383390Y-138680952D01*
X108383390Y-138680952D02*
X108954819Y-139252380D01*
X108954819Y-139252380D02*
X108954819Y-138633333D01*
X143659580Y-144242857D02*
X143707200Y-144290476D01*
X143707200Y-144290476D02*
X143754819Y-144433333D01*
X143754819Y-144433333D02*
X143754819Y-144528571D01*
X143754819Y-144528571D02*
X143707200Y-144671428D01*
X143707200Y-144671428D02*
X143611961Y-144766666D01*
X143611961Y-144766666D02*
X143516723Y-144814285D01*
X143516723Y-144814285D02*
X143326247Y-144861904D01*
X143326247Y-144861904D02*
X143183390Y-144861904D01*
X143183390Y-144861904D02*
X142992914Y-144814285D01*
X142992914Y-144814285D02*
X142897676Y-144766666D01*
X142897676Y-144766666D02*
X142802438Y-144671428D01*
X142802438Y-144671428D02*
X142754819Y-144528571D01*
X142754819Y-144528571D02*
X142754819Y-144433333D01*
X142754819Y-144433333D02*
X142802438Y-144290476D01*
X142802438Y-144290476D02*
X142850057Y-144242857D01*
X143754819Y-143290476D02*
X143754819Y-143861904D01*
X143754819Y-143576190D02*
X142754819Y-143576190D01*
X142754819Y-143576190D02*
X142897676Y-143671428D01*
X142897676Y-143671428D02*
X142992914Y-143766666D01*
X142992914Y-143766666D02*
X143040533Y-143861904D01*
X143183390Y-142719047D02*
X143135771Y-142814285D01*
X143135771Y-142814285D02*
X143088152Y-142861904D01*
X143088152Y-142861904D02*
X142992914Y-142909523D01*
X142992914Y-142909523D02*
X142945295Y-142909523D01*
X142945295Y-142909523D02*
X142850057Y-142861904D01*
X142850057Y-142861904D02*
X142802438Y-142814285D01*
X142802438Y-142814285D02*
X142754819Y-142719047D01*
X142754819Y-142719047D02*
X142754819Y-142528571D01*
X142754819Y-142528571D02*
X142802438Y-142433333D01*
X142802438Y-142433333D02*
X142850057Y-142385714D01*
X142850057Y-142385714D02*
X142945295Y-142338095D01*
X142945295Y-142338095D02*
X142992914Y-142338095D01*
X142992914Y-142338095D02*
X143088152Y-142385714D01*
X143088152Y-142385714D02*
X143135771Y-142433333D01*
X143135771Y-142433333D02*
X143183390Y-142528571D01*
X143183390Y-142528571D02*
X143183390Y-142719047D01*
X143183390Y-142719047D02*
X143231009Y-142814285D01*
X143231009Y-142814285D02*
X143278628Y-142861904D01*
X143278628Y-142861904D02*
X143373866Y-142909523D01*
X143373866Y-142909523D02*
X143564342Y-142909523D01*
X143564342Y-142909523D02*
X143659580Y-142861904D01*
X143659580Y-142861904D02*
X143707200Y-142814285D01*
X143707200Y-142814285D02*
X143754819Y-142719047D01*
X143754819Y-142719047D02*
X143754819Y-142528571D01*
X143754819Y-142528571D02*
X143707200Y-142433333D01*
X143707200Y-142433333D02*
X143659580Y-142385714D01*
X143659580Y-142385714D02*
X143564342Y-142338095D01*
X143564342Y-142338095D02*
X143373866Y-142338095D01*
X143373866Y-142338095D02*
X143278628Y-142385714D01*
X143278628Y-142385714D02*
X143231009Y-142433333D01*
X143231009Y-142433333D02*
X143183390Y-142528571D01*
X117984819Y-138066666D02*
X117508628Y-138399999D01*
X117984819Y-138638094D02*
X116984819Y-138638094D01*
X116984819Y-138638094D02*
X116984819Y-138257142D01*
X116984819Y-138257142D02*
X117032438Y-138161904D01*
X117032438Y-138161904D02*
X117080057Y-138114285D01*
X117080057Y-138114285D02*
X117175295Y-138066666D01*
X117175295Y-138066666D02*
X117318152Y-138066666D01*
X117318152Y-138066666D02*
X117413390Y-138114285D01*
X117413390Y-138114285D02*
X117461009Y-138161904D01*
X117461009Y-138161904D02*
X117508628Y-138257142D01*
X117508628Y-138257142D02*
X117508628Y-138638094D01*
X117984819Y-137590475D02*
X117984819Y-137399999D01*
X117984819Y-137399999D02*
X117937200Y-137304761D01*
X117937200Y-137304761D02*
X117889580Y-137257142D01*
X117889580Y-137257142D02*
X117746723Y-137161904D01*
X117746723Y-137161904D02*
X117556247Y-137114285D01*
X117556247Y-137114285D02*
X117175295Y-137114285D01*
X117175295Y-137114285D02*
X117080057Y-137161904D01*
X117080057Y-137161904D02*
X117032438Y-137209523D01*
X117032438Y-137209523D02*
X116984819Y-137304761D01*
X116984819Y-137304761D02*
X116984819Y-137495237D01*
X116984819Y-137495237D02*
X117032438Y-137590475D01*
X117032438Y-137590475D02*
X117080057Y-137638094D01*
X117080057Y-137638094D02*
X117175295Y-137685713D01*
X117175295Y-137685713D02*
X117413390Y-137685713D01*
X117413390Y-137685713D02*
X117508628Y-137638094D01*
X117508628Y-137638094D02*
X117556247Y-137590475D01*
X117556247Y-137590475D02*
X117603866Y-137495237D01*
X117603866Y-137495237D02*
X117603866Y-137304761D01*
X117603866Y-137304761D02*
X117556247Y-137209523D01*
X117556247Y-137209523D02*
X117508628Y-137161904D01*
X117508628Y-137161904D02*
X117413390Y-137114285D01*
X116683333Y-133429580D02*
X116635714Y-133477200D01*
X116635714Y-133477200D02*
X116492857Y-133524819D01*
X116492857Y-133524819D02*
X116397619Y-133524819D01*
X116397619Y-133524819D02*
X116254762Y-133477200D01*
X116254762Y-133477200D02*
X116159524Y-133381961D01*
X116159524Y-133381961D02*
X116111905Y-133286723D01*
X116111905Y-133286723D02*
X116064286Y-133096247D01*
X116064286Y-133096247D02*
X116064286Y-132953390D01*
X116064286Y-132953390D02*
X116111905Y-132762914D01*
X116111905Y-132762914D02*
X116159524Y-132667676D01*
X116159524Y-132667676D02*
X116254762Y-132572438D01*
X116254762Y-132572438D02*
X116397619Y-132524819D01*
X116397619Y-132524819D02*
X116492857Y-132524819D01*
X116492857Y-132524819D02*
X116635714Y-132572438D01*
X116635714Y-132572438D02*
X116683333Y-132620057D01*
X117588095Y-132524819D02*
X117111905Y-132524819D01*
X117111905Y-132524819D02*
X117064286Y-133001009D01*
X117064286Y-133001009D02*
X117111905Y-132953390D01*
X117111905Y-132953390D02*
X117207143Y-132905771D01*
X117207143Y-132905771D02*
X117445238Y-132905771D01*
X117445238Y-132905771D02*
X117540476Y-132953390D01*
X117540476Y-132953390D02*
X117588095Y-133001009D01*
X117588095Y-133001009D02*
X117635714Y-133096247D01*
X117635714Y-133096247D02*
X117635714Y-133334342D01*
X117635714Y-133334342D02*
X117588095Y-133429580D01*
X117588095Y-133429580D02*
X117540476Y-133477200D01*
X117540476Y-133477200D02*
X117445238Y-133524819D01*
X117445238Y-133524819D02*
X117207143Y-133524819D01*
X117207143Y-133524819D02*
X117111905Y-133477200D01*
X117111905Y-133477200D02*
X117064286Y-133429580D01*
X109957142Y-137954819D02*
X109623809Y-137478628D01*
X109385714Y-137954819D02*
X109385714Y-136954819D01*
X109385714Y-136954819D02*
X109766666Y-136954819D01*
X109766666Y-136954819D02*
X109861904Y-137002438D01*
X109861904Y-137002438D02*
X109909523Y-137050057D01*
X109909523Y-137050057D02*
X109957142Y-137145295D01*
X109957142Y-137145295D02*
X109957142Y-137288152D01*
X109957142Y-137288152D02*
X109909523Y-137383390D01*
X109909523Y-137383390D02*
X109861904Y-137431009D01*
X109861904Y-137431009D02*
X109766666Y-137478628D01*
X109766666Y-137478628D02*
X109385714Y-137478628D01*
X110338095Y-137050057D02*
X110385714Y-137002438D01*
X110385714Y-137002438D02*
X110480952Y-136954819D01*
X110480952Y-136954819D02*
X110719047Y-136954819D01*
X110719047Y-136954819D02*
X110814285Y-137002438D01*
X110814285Y-137002438D02*
X110861904Y-137050057D01*
X110861904Y-137050057D02*
X110909523Y-137145295D01*
X110909523Y-137145295D02*
X110909523Y-137240533D01*
X110909523Y-137240533D02*
X110861904Y-137383390D01*
X110861904Y-137383390D02*
X110290476Y-137954819D01*
X110290476Y-137954819D02*
X110909523Y-137954819D01*
X111814285Y-136954819D02*
X111338095Y-136954819D01*
X111338095Y-136954819D02*
X111290476Y-137431009D01*
X111290476Y-137431009D02*
X111338095Y-137383390D01*
X111338095Y-137383390D02*
X111433333Y-137335771D01*
X111433333Y-137335771D02*
X111671428Y-137335771D01*
X111671428Y-137335771D02*
X111766666Y-137383390D01*
X111766666Y-137383390D02*
X111814285Y-137431009D01*
X111814285Y-137431009D02*
X111861904Y-137526247D01*
X111861904Y-137526247D02*
X111861904Y-137764342D01*
X111861904Y-137764342D02*
X111814285Y-137859580D01*
X111814285Y-137859580D02*
X111766666Y-137907200D01*
X111766666Y-137907200D02*
X111671428Y-137954819D01*
X111671428Y-137954819D02*
X111433333Y-137954819D01*
X111433333Y-137954819D02*
X111338095Y-137907200D01*
X111338095Y-137907200D02*
X111290476Y-137859580D01*
X119059580Y-144242857D02*
X119107200Y-144290476D01*
X119107200Y-144290476D02*
X119154819Y-144433333D01*
X119154819Y-144433333D02*
X119154819Y-144528571D01*
X119154819Y-144528571D02*
X119107200Y-144671428D01*
X119107200Y-144671428D02*
X119011961Y-144766666D01*
X119011961Y-144766666D02*
X118916723Y-144814285D01*
X118916723Y-144814285D02*
X118726247Y-144861904D01*
X118726247Y-144861904D02*
X118583390Y-144861904D01*
X118583390Y-144861904D02*
X118392914Y-144814285D01*
X118392914Y-144814285D02*
X118297676Y-144766666D01*
X118297676Y-144766666D02*
X118202438Y-144671428D01*
X118202438Y-144671428D02*
X118154819Y-144528571D01*
X118154819Y-144528571D02*
X118154819Y-144433333D01*
X118154819Y-144433333D02*
X118202438Y-144290476D01*
X118202438Y-144290476D02*
X118250057Y-144242857D01*
X119154819Y-143290476D02*
X119154819Y-143861904D01*
X119154819Y-143576190D02*
X118154819Y-143576190D01*
X118154819Y-143576190D02*
X118297676Y-143671428D01*
X118297676Y-143671428D02*
X118392914Y-143766666D01*
X118392914Y-143766666D02*
X118440533Y-143861904D01*
X118154819Y-142957142D02*
X118154819Y-142290476D01*
X118154819Y-142290476D02*
X119154819Y-142719047D01*
X106396819Y-131112666D02*
X105920628Y-131445999D01*
X106396819Y-131684094D02*
X105396819Y-131684094D01*
X105396819Y-131684094D02*
X105396819Y-131303142D01*
X105396819Y-131303142D02*
X105444438Y-131207904D01*
X105444438Y-131207904D02*
X105492057Y-131160285D01*
X105492057Y-131160285D02*
X105587295Y-131112666D01*
X105587295Y-131112666D02*
X105730152Y-131112666D01*
X105730152Y-131112666D02*
X105825390Y-131160285D01*
X105825390Y-131160285D02*
X105873009Y-131207904D01*
X105873009Y-131207904D02*
X105920628Y-131303142D01*
X105920628Y-131303142D02*
X105920628Y-131684094D01*
X105396819Y-130779332D02*
X105396819Y-130112666D01*
X105396819Y-130112666D02*
X106396819Y-130541237D01*
X124550057Y-125295238D02*
X124502438Y-125390476D01*
X124502438Y-125390476D02*
X124407200Y-125485714D01*
X124407200Y-125485714D02*
X124264342Y-125628571D01*
X124264342Y-125628571D02*
X124216723Y-125723809D01*
X124216723Y-125723809D02*
X124216723Y-125819047D01*
X124454819Y-125771428D02*
X124407200Y-125866666D01*
X124407200Y-125866666D02*
X124311961Y-125961904D01*
X124311961Y-125961904D02*
X124121485Y-126009523D01*
X124121485Y-126009523D02*
X123788152Y-126009523D01*
X123788152Y-126009523D02*
X123597676Y-125961904D01*
X123597676Y-125961904D02*
X123502438Y-125866666D01*
X123502438Y-125866666D02*
X123454819Y-125771428D01*
X123454819Y-125771428D02*
X123454819Y-125580952D01*
X123454819Y-125580952D02*
X123502438Y-125485714D01*
X123502438Y-125485714D02*
X123597676Y-125390476D01*
X123597676Y-125390476D02*
X123788152Y-125342857D01*
X123788152Y-125342857D02*
X124121485Y-125342857D01*
X124121485Y-125342857D02*
X124311961Y-125390476D01*
X124311961Y-125390476D02*
X124407200Y-125485714D01*
X124407200Y-125485714D02*
X124454819Y-125580952D01*
X124454819Y-125580952D02*
X124454819Y-125771428D01*
X124454819Y-124390476D02*
X124454819Y-124961904D01*
X124454819Y-124676190D02*
X123454819Y-124676190D01*
X123454819Y-124676190D02*
X123597676Y-124771428D01*
X123597676Y-124771428D02*
X123692914Y-124866666D01*
X123692914Y-124866666D02*
X123740533Y-124961904D01*
X107954819Y-113233333D02*
X108669104Y-113233333D01*
X108669104Y-113233333D02*
X108811961Y-113280952D01*
X108811961Y-113280952D02*
X108907200Y-113376190D01*
X108907200Y-113376190D02*
X108954819Y-113519047D01*
X108954819Y-113519047D02*
X108954819Y-113614285D01*
X108954819Y-112233333D02*
X108954819Y-112804761D01*
X108954819Y-112519047D02*
X107954819Y-112519047D01*
X107954819Y-112519047D02*
X108097676Y-112614285D01*
X108097676Y-112614285D02*
X108192914Y-112709523D01*
X108192914Y-112709523D02*
X108240533Y-112804761D01*
X115054819Y-134442857D02*
X114578628Y-134776190D01*
X115054819Y-135014285D02*
X114054819Y-135014285D01*
X114054819Y-135014285D02*
X114054819Y-134633333D01*
X114054819Y-134633333D02*
X114102438Y-134538095D01*
X114102438Y-134538095D02*
X114150057Y-134490476D01*
X114150057Y-134490476D02*
X114245295Y-134442857D01*
X114245295Y-134442857D02*
X114388152Y-134442857D01*
X114388152Y-134442857D02*
X114483390Y-134490476D01*
X114483390Y-134490476D02*
X114531009Y-134538095D01*
X114531009Y-134538095D02*
X114578628Y-134633333D01*
X114578628Y-134633333D02*
X114578628Y-135014285D01*
X114150057Y-134061904D02*
X114102438Y-134014285D01*
X114102438Y-134014285D02*
X114054819Y-133919047D01*
X114054819Y-133919047D02*
X114054819Y-133680952D01*
X114054819Y-133680952D02*
X114102438Y-133585714D01*
X114102438Y-133585714D02*
X114150057Y-133538095D01*
X114150057Y-133538095D02*
X114245295Y-133490476D01*
X114245295Y-133490476D02*
X114340533Y-133490476D01*
X114340533Y-133490476D02*
X114483390Y-133538095D01*
X114483390Y-133538095D02*
X115054819Y-134109523D01*
X115054819Y-134109523D02*
X115054819Y-133490476D01*
X115054819Y-132538095D02*
X115054819Y-133109523D01*
X115054819Y-132823809D02*
X114054819Y-132823809D01*
X114054819Y-132823809D02*
X114197676Y-132919047D01*
X114197676Y-132919047D02*
X114292914Y-133014285D01*
X114292914Y-133014285D02*
X114340533Y-133109523D01*
X136524819Y-151638094D02*
X135524819Y-151638094D01*
X135524819Y-151638094D02*
X135524819Y-151399999D01*
X135524819Y-151399999D02*
X135572438Y-151257142D01*
X135572438Y-151257142D02*
X135667676Y-151161904D01*
X135667676Y-151161904D02*
X135762914Y-151114285D01*
X135762914Y-151114285D02*
X135953390Y-151066666D01*
X135953390Y-151066666D02*
X136096247Y-151066666D01*
X136096247Y-151066666D02*
X136286723Y-151114285D01*
X136286723Y-151114285D02*
X136381961Y-151161904D01*
X136381961Y-151161904D02*
X136477200Y-151257142D01*
X136477200Y-151257142D02*
X136524819Y-151399999D01*
X136524819Y-151399999D02*
X136524819Y-151638094D01*
X135524819Y-150209523D02*
X135524819Y-150399999D01*
X135524819Y-150399999D02*
X135572438Y-150495237D01*
X135572438Y-150495237D02*
X135620057Y-150542856D01*
X135620057Y-150542856D02*
X135762914Y-150638094D01*
X135762914Y-150638094D02*
X135953390Y-150685713D01*
X135953390Y-150685713D02*
X136334342Y-150685713D01*
X136334342Y-150685713D02*
X136429580Y-150638094D01*
X136429580Y-150638094D02*
X136477200Y-150590475D01*
X136477200Y-150590475D02*
X136524819Y-150495237D01*
X136524819Y-150495237D02*
X136524819Y-150304761D01*
X136524819Y-150304761D02*
X136477200Y-150209523D01*
X136477200Y-150209523D02*
X136429580Y-150161904D01*
X136429580Y-150161904D02*
X136334342Y-150114285D01*
X136334342Y-150114285D02*
X136096247Y-150114285D01*
X136096247Y-150114285D02*
X136001009Y-150161904D01*
X136001009Y-150161904D02*
X135953390Y-150209523D01*
X135953390Y-150209523D02*
X135905771Y-150304761D01*
X135905771Y-150304761D02*
X135905771Y-150495237D01*
X135905771Y-150495237D02*
X135953390Y-150590475D01*
X135953390Y-150590475D02*
X136001009Y-150638094D01*
X136001009Y-150638094D02*
X136096247Y-150685713D01*
X115533333Y-120774819D02*
X115200000Y-120298628D01*
X114961905Y-120774819D02*
X114961905Y-119774819D01*
X114961905Y-119774819D02*
X115342857Y-119774819D01*
X115342857Y-119774819D02*
X115438095Y-119822438D01*
X115438095Y-119822438D02*
X115485714Y-119870057D01*
X115485714Y-119870057D02*
X115533333Y-119965295D01*
X115533333Y-119965295D02*
X115533333Y-120108152D01*
X115533333Y-120108152D02*
X115485714Y-120203390D01*
X115485714Y-120203390D02*
X115438095Y-120251009D01*
X115438095Y-120251009D02*
X115342857Y-120298628D01*
X115342857Y-120298628D02*
X114961905Y-120298628D01*
X116485714Y-120774819D02*
X115914286Y-120774819D01*
X116200000Y-120774819D02*
X116200000Y-119774819D01*
X116200000Y-119774819D02*
X116104762Y-119917676D01*
X116104762Y-119917676D02*
X116009524Y-120012914D01*
X116009524Y-120012914D02*
X115914286Y-120060533D01*
X120223809Y-142928628D02*
X120223809Y-143404819D01*
X119890476Y-142404819D02*
X120223809Y-142928628D01*
X120223809Y-142928628D02*
X120557142Y-142404819D01*
X121414285Y-143404819D02*
X120842857Y-143404819D01*
X121128571Y-143404819D02*
X121128571Y-142404819D01*
X121128571Y-142404819D02*
X121033333Y-142547676D01*
X121033333Y-142547676D02*
X120938095Y-142642914D01*
X120938095Y-142642914D02*
X120842857Y-142690533D01*
X135907142Y-122609580D02*
X135859523Y-122657200D01*
X135859523Y-122657200D02*
X135716666Y-122704819D01*
X135716666Y-122704819D02*
X135621428Y-122704819D01*
X135621428Y-122704819D02*
X135478571Y-122657200D01*
X135478571Y-122657200D02*
X135383333Y-122561961D01*
X135383333Y-122561961D02*
X135335714Y-122466723D01*
X135335714Y-122466723D02*
X135288095Y-122276247D01*
X135288095Y-122276247D02*
X135288095Y-122133390D01*
X135288095Y-122133390D02*
X135335714Y-121942914D01*
X135335714Y-121942914D02*
X135383333Y-121847676D01*
X135383333Y-121847676D02*
X135478571Y-121752438D01*
X135478571Y-121752438D02*
X135621428Y-121704819D01*
X135621428Y-121704819D02*
X135716666Y-121704819D01*
X135716666Y-121704819D02*
X135859523Y-121752438D01*
X135859523Y-121752438D02*
X135907142Y-121800057D01*
X136859523Y-122704819D02*
X136288095Y-122704819D01*
X136573809Y-122704819D02*
X136573809Y-121704819D01*
X136573809Y-121704819D02*
X136478571Y-121847676D01*
X136478571Y-121847676D02*
X136383333Y-121942914D01*
X136383333Y-121942914D02*
X136288095Y-121990533D01*
X137478571Y-121704819D02*
X137573809Y-121704819D01*
X137573809Y-121704819D02*
X137669047Y-121752438D01*
X137669047Y-121752438D02*
X137716666Y-121800057D01*
X137716666Y-121800057D02*
X137764285Y-121895295D01*
X137764285Y-121895295D02*
X137811904Y-122085771D01*
X137811904Y-122085771D02*
X137811904Y-122323866D01*
X137811904Y-122323866D02*
X137764285Y-122514342D01*
X137764285Y-122514342D02*
X137716666Y-122609580D01*
X137716666Y-122609580D02*
X137669047Y-122657200D01*
X137669047Y-122657200D02*
X137573809Y-122704819D01*
X137573809Y-122704819D02*
X137478571Y-122704819D01*
X137478571Y-122704819D02*
X137383333Y-122657200D01*
X137383333Y-122657200D02*
X137335714Y-122609580D01*
X137335714Y-122609580D02*
X137288095Y-122514342D01*
X137288095Y-122514342D02*
X137240476Y-122323866D01*
X137240476Y-122323866D02*
X137240476Y-122085771D01*
X137240476Y-122085771D02*
X137288095Y-121895295D01*
X137288095Y-121895295D02*
X137335714Y-121800057D01*
X137335714Y-121800057D02*
X137383333Y-121752438D01*
X137383333Y-121752438D02*
X137478571Y-121704819D01*
X136679580Y-137242857D02*
X136727200Y-137290476D01*
X136727200Y-137290476D02*
X136774819Y-137433333D01*
X136774819Y-137433333D02*
X136774819Y-137528571D01*
X136774819Y-137528571D02*
X136727200Y-137671428D01*
X136727200Y-137671428D02*
X136631961Y-137766666D01*
X136631961Y-137766666D02*
X136536723Y-137814285D01*
X136536723Y-137814285D02*
X136346247Y-137861904D01*
X136346247Y-137861904D02*
X136203390Y-137861904D01*
X136203390Y-137861904D02*
X136012914Y-137814285D01*
X136012914Y-137814285D02*
X135917676Y-137766666D01*
X135917676Y-137766666D02*
X135822438Y-137671428D01*
X135822438Y-137671428D02*
X135774819Y-137528571D01*
X135774819Y-137528571D02*
X135774819Y-137433333D01*
X135774819Y-137433333D02*
X135822438Y-137290476D01*
X135822438Y-137290476D02*
X135870057Y-137242857D01*
X136774819Y-136290476D02*
X136774819Y-136861904D01*
X136774819Y-136576190D02*
X135774819Y-136576190D01*
X135774819Y-136576190D02*
X135917676Y-136671428D01*
X135917676Y-136671428D02*
X136012914Y-136766666D01*
X136012914Y-136766666D02*
X136060533Y-136861904D01*
X135870057Y-135909523D02*
X135822438Y-135861904D01*
X135822438Y-135861904D02*
X135774819Y-135766666D01*
X135774819Y-135766666D02*
X135774819Y-135528571D01*
X135774819Y-135528571D02*
X135822438Y-135433333D01*
X135822438Y-135433333D02*
X135870057Y-135385714D01*
X135870057Y-135385714D02*
X135965295Y-135338095D01*
X135965295Y-135338095D02*
X136060533Y-135338095D01*
X136060533Y-135338095D02*
X136203390Y-135385714D01*
X136203390Y-135385714D02*
X136774819Y-135957142D01*
X136774819Y-135957142D02*
X136774819Y-135338095D01*
X108061905Y-120754819D02*
X108061905Y-119754819D01*
X108061905Y-119754819D02*
X108300000Y-119754819D01*
X108300000Y-119754819D02*
X108442857Y-119802438D01*
X108442857Y-119802438D02*
X108538095Y-119897676D01*
X108538095Y-119897676D02*
X108585714Y-119992914D01*
X108585714Y-119992914D02*
X108633333Y-120183390D01*
X108633333Y-120183390D02*
X108633333Y-120326247D01*
X108633333Y-120326247D02*
X108585714Y-120516723D01*
X108585714Y-120516723D02*
X108538095Y-120611961D01*
X108538095Y-120611961D02*
X108442857Y-120707200D01*
X108442857Y-120707200D02*
X108300000Y-120754819D01*
X108300000Y-120754819D02*
X108061905Y-120754819D01*
X109538095Y-119754819D02*
X109061905Y-119754819D01*
X109061905Y-119754819D02*
X109014286Y-120231009D01*
X109014286Y-120231009D02*
X109061905Y-120183390D01*
X109061905Y-120183390D02*
X109157143Y-120135771D01*
X109157143Y-120135771D02*
X109395238Y-120135771D01*
X109395238Y-120135771D02*
X109490476Y-120183390D01*
X109490476Y-120183390D02*
X109538095Y-120231009D01*
X109538095Y-120231009D02*
X109585714Y-120326247D01*
X109585714Y-120326247D02*
X109585714Y-120564342D01*
X109585714Y-120564342D02*
X109538095Y-120659580D01*
X109538095Y-120659580D02*
X109490476Y-120707200D01*
X109490476Y-120707200D02*
X109395238Y-120754819D01*
X109395238Y-120754819D02*
X109157143Y-120754819D01*
X109157143Y-120754819D02*
X109061905Y-120707200D01*
X109061905Y-120707200D02*
X109014286Y-120659580D01*
X136343333Y-134759580D02*
X136295714Y-134807200D01*
X136295714Y-134807200D02*
X136152857Y-134854819D01*
X136152857Y-134854819D02*
X136057619Y-134854819D01*
X136057619Y-134854819D02*
X135914762Y-134807200D01*
X135914762Y-134807200D02*
X135819524Y-134711961D01*
X135819524Y-134711961D02*
X135771905Y-134616723D01*
X135771905Y-134616723D02*
X135724286Y-134426247D01*
X135724286Y-134426247D02*
X135724286Y-134283390D01*
X135724286Y-134283390D02*
X135771905Y-134092914D01*
X135771905Y-134092914D02*
X135819524Y-133997676D01*
X135819524Y-133997676D02*
X135914762Y-133902438D01*
X135914762Y-133902438D02*
X136057619Y-133854819D01*
X136057619Y-133854819D02*
X136152857Y-133854819D01*
X136152857Y-133854819D02*
X136295714Y-133902438D01*
X136295714Y-133902438D02*
X136343333Y-133950057D01*
X136676667Y-133854819D02*
X137295714Y-133854819D01*
X137295714Y-133854819D02*
X136962381Y-134235771D01*
X136962381Y-134235771D02*
X137105238Y-134235771D01*
X137105238Y-134235771D02*
X137200476Y-134283390D01*
X137200476Y-134283390D02*
X137248095Y-134331009D01*
X137248095Y-134331009D02*
X137295714Y-134426247D01*
X137295714Y-134426247D02*
X137295714Y-134664342D01*
X137295714Y-134664342D02*
X137248095Y-134759580D01*
X137248095Y-134759580D02*
X137200476Y-134807200D01*
X137200476Y-134807200D02*
X137105238Y-134854819D01*
X137105238Y-134854819D02*
X136819524Y-134854819D01*
X136819524Y-134854819D02*
X136724286Y-134807200D01*
X136724286Y-134807200D02*
X136676667Y-134759580D01*
X140673809Y-143128628D02*
X140673809Y-143604819D01*
X140340476Y-142604819D02*
X140673809Y-143128628D01*
X140673809Y-143128628D02*
X141007142Y-142604819D01*
X141292857Y-142700057D02*
X141340476Y-142652438D01*
X141340476Y-142652438D02*
X141435714Y-142604819D01*
X141435714Y-142604819D02*
X141673809Y-142604819D01*
X141673809Y-142604819D02*
X141769047Y-142652438D01*
X141769047Y-142652438D02*
X141816666Y-142700057D01*
X141816666Y-142700057D02*
X141864285Y-142795295D01*
X141864285Y-142795295D02*
X141864285Y-142890533D01*
X141864285Y-142890533D02*
X141816666Y-143033390D01*
X141816666Y-143033390D02*
X141245238Y-143604819D01*
X141245238Y-143604819D02*
X141864285Y-143604819D01*
X116683333Y-132139580D02*
X116635714Y-132187200D01*
X116635714Y-132187200D02*
X116492857Y-132234819D01*
X116492857Y-132234819D02*
X116397619Y-132234819D01*
X116397619Y-132234819D02*
X116254762Y-132187200D01*
X116254762Y-132187200D02*
X116159524Y-132091961D01*
X116159524Y-132091961D02*
X116111905Y-131996723D01*
X116111905Y-131996723D02*
X116064286Y-131806247D01*
X116064286Y-131806247D02*
X116064286Y-131663390D01*
X116064286Y-131663390D02*
X116111905Y-131472914D01*
X116111905Y-131472914D02*
X116159524Y-131377676D01*
X116159524Y-131377676D02*
X116254762Y-131282438D01*
X116254762Y-131282438D02*
X116397619Y-131234819D01*
X116397619Y-131234819D02*
X116492857Y-131234819D01*
X116492857Y-131234819D02*
X116635714Y-131282438D01*
X116635714Y-131282438D02*
X116683333Y-131330057D01*
X117540476Y-131568152D02*
X117540476Y-132234819D01*
X117302381Y-131187200D02*
X117064286Y-131901485D01*
X117064286Y-131901485D02*
X117683333Y-131901485D01*
X139359580Y-144342857D02*
X139407200Y-144390476D01*
X139407200Y-144390476D02*
X139454819Y-144533333D01*
X139454819Y-144533333D02*
X139454819Y-144628571D01*
X139454819Y-144628571D02*
X139407200Y-144771428D01*
X139407200Y-144771428D02*
X139311961Y-144866666D01*
X139311961Y-144866666D02*
X139216723Y-144914285D01*
X139216723Y-144914285D02*
X139026247Y-144961904D01*
X139026247Y-144961904D02*
X138883390Y-144961904D01*
X138883390Y-144961904D02*
X138692914Y-144914285D01*
X138692914Y-144914285D02*
X138597676Y-144866666D01*
X138597676Y-144866666D02*
X138502438Y-144771428D01*
X138502438Y-144771428D02*
X138454819Y-144628571D01*
X138454819Y-144628571D02*
X138454819Y-144533333D01*
X138454819Y-144533333D02*
X138502438Y-144390476D01*
X138502438Y-144390476D02*
X138550057Y-144342857D01*
X139454819Y-143390476D02*
X139454819Y-143961904D01*
X139454819Y-143676190D02*
X138454819Y-143676190D01*
X138454819Y-143676190D02*
X138597676Y-143771428D01*
X138597676Y-143771428D02*
X138692914Y-143866666D01*
X138692914Y-143866666D02*
X138740533Y-143961904D01*
X138454819Y-142533333D02*
X138454819Y-142723809D01*
X138454819Y-142723809D02*
X138502438Y-142819047D01*
X138502438Y-142819047D02*
X138550057Y-142866666D01*
X138550057Y-142866666D02*
X138692914Y-142961904D01*
X138692914Y-142961904D02*
X138883390Y-143009523D01*
X138883390Y-143009523D02*
X139264342Y-143009523D01*
X139264342Y-143009523D02*
X139359580Y-142961904D01*
X139359580Y-142961904D02*
X139407200Y-142914285D01*
X139407200Y-142914285D02*
X139454819Y-142819047D01*
X139454819Y-142819047D02*
X139454819Y-142628571D01*
X139454819Y-142628571D02*
X139407200Y-142533333D01*
X139407200Y-142533333D02*
X139359580Y-142485714D01*
X139359580Y-142485714D02*
X139264342Y-142438095D01*
X139264342Y-142438095D02*
X139026247Y-142438095D01*
X139026247Y-142438095D02*
X138931009Y-142485714D01*
X138931009Y-142485714D02*
X138883390Y-142533333D01*
X138883390Y-142533333D02*
X138835771Y-142628571D01*
X138835771Y-142628571D02*
X138835771Y-142819047D01*
X138835771Y-142819047D02*
X138883390Y-142914285D01*
X138883390Y-142914285D02*
X138931009Y-142961904D01*
X138931009Y-142961904D02*
X139026247Y-143009523D01*
X101654142Y-127597819D02*
X101320809Y-127121628D01*
X101082714Y-127597819D02*
X101082714Y-126597819D01*
X101082714Y-126597819D02*
X101463666Y-126597819D01*
X101463666Y-126597819D02*
X101558904Y-126645438D01*
X101558904Y-126645438D02*
X101606523Y-126693057D01*
X101606523Y-126693057D02*
X101654142Y-126788295D01*
X101654142Y-126788295D02*
X101654142Y-126931152D01*
X101654142Y-126931152D02*
X101606523Y-127026390D01*
X101606523Y-127026390D02*
X101558904Y-127074009D01*
X101558904Y-127074009D02*
X101463666Y-127121628D01*
X101463666Y-127121628D02*
X101082714Y-127121628D01*
X102606523Y-127597819D02*
X102035095Y-127597819D01*
X102320809Y-127597819D02*
X102320809Y-126597819D01*
X102320809Y-126597819D02*
X102225571Y-126740676D01*
X102225571Y-126740676D02*
X102130333Y-126835914D01*
X102130333Y-126835914D02*
X102035095Y-126883533D01*
X103463666Y-126597819D02*
X103273190Y-126597819D01*
X103273190Y-126597819D02*
X103177952Y-126645438D01*
X103177952Y-126645438D02*
X103130333Y-126693057D01*
X103130333Y-126693057D02*
X103035095Y-126835914D01*
X103035095Y-126835914D02*
X102987476Y-127026390D01*
X102987476Y-127026390D02*
X102987476Y-127407342D01*
X102987476Y-127407342D02*
X103035095Y-127502580D01*
X103035095Y-127502580D02*
X103082714Y-127550200D01*
X103082714Y-127550200D02*
X103177952Y-127597819D01*
X103177952Y-127597819D02*
X103368428Y-127597819D01*
X103368428Y-127597819D02*
X103463666Y-127550200D01*
X103463666Y-127550200D02*
X103511285Y-127502580D01*
X103511285Y-127502580D02*
X103558904Y-127407342D01*
X103558904Y-127407342D02*
X103558904Y-127169247D01*
X103558904Y-127169247D02*
X103511285Y-127074009D01*
X103511285Y-127074009D02*
X103463666Y-127026390D01*
X103463666Y-127026390D02*
X103368428Y-126978771D01*
X103368428Y-126978771D02*
X103177952Y-126978771D01*
X103177952Y-126978771D02*
X103082714Y-127026390D01*
X103082714Y-127026390D02*
X103035095Y-127074009D01*
X103035095Y-127074009D02*
X102987476Y-127169247D01*
X126754819Y-120542857D02*
X126278628Y-120876190D01*
X126754819Y-121114285D02*
X125754819Y-121114285D01*
X125754819Y-121114285D02*
X125754819Y-120733333D01*
X125754819Y-120733333D02*
X125802438Y-120638095D01*
X125802438Y-120638095D02*
X125850057Y-120590476D01*
X125850057Y-120590476D02*
X125945295Y-120542857D01*
X125945295Y-120542857D02*
X126088152Y-120542857D01*
X126088152Y-120542857D02*
X126183390Y-120590476D01*
X126183390Y-120590476D02*
X126231009Y-120638095D01*
X126231009Y-120638095D02*
X126278628Y-120733333D01*
X126278628Y-120733333D02*
X126278628Y-121114285D01*
X126754819Y-119590476D02*
X126754819Y-120161904D01*
X126754819Y-119876190D02*
X125754819Y-119876190D01*
X125754819Y-119876190D02*
X125897676Y-119971428D01*
X125897676Y-119971428D02*
X125992914Y-120066666D01*
X125992914Y-120066666D02*
X126040533Y-120161904D01*
X125850057Y-119209523D02*
X125802438Y-119161904D01*
X125802438Y-119161904D02*
X125754819Y-119066666D01*
X125754819Y-119066666D02*
X125754819Y-118828571D01*
X125754819Y-118828571D02*
X125802438Y-118733333D01*
X125802438Y-118733333D02*
X125850057Y-118685714D01*
X125850057Y-118685714D02*
X125945295Y-118638095D01*
X125945295Y-118638095D02*
X126040533Y-118638095D01*
X126040533Y-118638095D02*
X126183390Y-118685714D01*
X126183390Y-118685714D02*
X126754819Y-119257142D01*
X126754819Y-119257142D02*
X126754819Y-118638095D01*
X123129580Y-134992857D02*
X123177200Y-135040476D01*
X123177200Y-135040476D02*
X123224819Y-135183333D01*
X123224819Y-135183333D02*
X123224819Y-135278571D01*
X123224819Y-135278571D02*
X123177200Y-135421428D01*
X123177200Y-135421428D02*
X123081961Y-135516666D01*
X123081961Y-135516666D02*
X122986723Y-135564285D01*
X122986723Y-135564285D02*
X122796247Y-135611904D01*
X122796247Y-135611904D02*
X122653390Y-135611904D01*
X122653390Y-135611904D02*
X122462914Y-135564285D01*
X122462914Y-135564285D02*
X122367676Y-135516666D01*
X122367676Y-135516666D02*
X122272438Y-135421428D01*
X122272438Y-135421428D02*
X122224819Y-135278571D01*
X122224819Y-135278571D02*
X122224819Y-135183333D01*
X122224819Y-135183333D02*
X122272438Y-135040476D01*
X122272438Y-135040476D02*
X122320057Y-134992857D01*
X123224819Y-134040476D02*
X123224819Y-134611904D01*
X123224819Y-134326190D02*
X122224819Y-134326190D01*
X122224819Y-134326190D02*
X122367676Y-134421428D01*
X122367676Y-134421428D02*
X122462914Y-134516666D01*
X122462914Y-134516666D02*
X122510533Y-134611904D01*
X122224819Y-133707142D02*
X122224819Y-133088095D01*
X122224819Y-133088095D02*
X122605771Y-133421428D01*
X122605771Y-133421428D02*
X122605771Y-133278571D01*
X122605771Y-133278571D02*
X122653390Y-133183333D01*
X122653390Y-133183333D02*
X122701009Y-133135714D01*
X122701009Y-133135714D02*
X122796247Y-133088095D01*
X122796247Y-133088095D02*
X123034342Y-133088095D01*
X123034342Y-133088095D02*
X123129580Y-133135714D01*
X123129580Y-133135714D02*
X123177200Y-133183333D01*
X123177200Y-133183333D02*
X123224819Y-133278571D01*
X123224819Y-133278571D02*
X123224819Y-133564285D01*
X123224819Y-133564285D02*
X123177200Y-133659523D01*
X123177200Y-133659523D02*
X123129580Y-133707142D01*
X101484819Y-124816666D02*
X101008628Y-125149999D01*
X101484819Y-125388094D02*
X100484819Y-125388094D01*
X100484819Y-125388094D02*
X100484819Y-125007142D01*
X100484819Y-125007142D02*
X100532438Y-124911904D01*
X100532438Y-124911904D02*
X100580057Y-124864285D01*
X100580057Y-124864285D02*
X100675295Y-124816666D01*
X100675295Y-124816666D02*
X100818152Y-124816666D01*
X100818152Y-124816666D02*
X100913390Y-124864285D01*
X100913390Y-124864285D02*
X100961009Y-124911904D01*
X100961009Y-124911904D02*
X101008628Y-125007142D01*
X101008628Y-125007142D02*
X101008628Y-125388094D01*
X100580057Y-124435713D02*
X100532438Y-124388094D01*
X100532438Y-124388094D02*
X100484819Y-124292856D01*
X100484819Y-124292856D02*
X100484819Y-124054761D01*
X100484819Y-124054761D02*
X100532438Y-123959523D01*
X100532438Y-123959523D02*
X100580057Y-123911904D01*
X100580057Y-123911904D02*
X100675295Y-123864285D01*
X100675295Y-123864285D02*
X100770533Y-123864285D01*
X100770533Y-123864285D02*
X100913390Y-123911904D01*
X100913390Y-123911904D02*
X101484819Y-124483332D01*
X101484819Y-124483332D02*
X101484819Y-123864285D01*
X104717142Y-123884819D02*
X104383809Y-123408628D01*
X104145714Y-123884819D02*
X104145714Y-122884819D01*
X104145714Y-122884819D02*
X104526666Y-122884819D01*
X104526666Y-122884819D02*
X104621904Y-122932438D01*
X104621904Y-122932438D02*
X104669523Y-122980057D01*
X104669523Y-122980057D02*
X104717142Y-123075295D01*
X104717142Y-123075295D02*
X104717142Y-123218152D01*
X104717142Y-123218152D02*
X104669523Y-123313390D01*
X104669523Y-123313390D02*
X104621904Y-123361009D01*
X104621904Y-123361009D02*
X104526666Y-123408628D01*
X104526666Y-123408628D02*
X104145714Y-123408628D01*
X105669523Y-123884819D02*
X105098095Y-123884819D01*
X105383809Y-123884819D02*
X105383809Y-122884819D01*
X105383809Y-122884819D02*
X105288571Y-123027676D01*
X105288571Y-123027676D02*
X105193333Y-123122914D01*
X105193333Y-123122914D02*
X105098095Y-123170533D01*
X106002857Y-122884819D02*
X106669523Y-122884819D01*
X106669523Y-122884819D02*
X106240952Y-123884819D01*
X109857142Y-142054819D02*
X109523809Y-141578628D01*
X109285714Y-142054819D02*
X109285714Y-141054819D01*
X109285714Y-141054819D02*
X109666666Y-141054819D01*
X109666666Y-141054819D02*
X109761904Y-141102438D01*
X109761904Y-141102438D02*
X109809523Y-141150057D01*
X109809523Y-141150057D02*
X109857142Y-141245295D01*
X109857142Y-141245295D02*
X109857142Y-141388152D01*
X109857142Y-141388152D02*
X109809523Y-141483390D01*
X109809523Y-141483390D02*
X109761904Y-141531009D01*
X109761904Y-141531009D02*
X109666666Y-141578628D01*
X109666666Y-141578628D02*
X109285714Y-141578628D01*
X110238095Y-141150057D02*
X110285714Y-141102438D01*
X110285714Y-141102438D02*
X110380952Y-141054819D01*
X110380952Y-141054819D02*
X110619047Y-141054819D01*
X110619047Y-141054819D02*
X110714285Y-141102438D01*
X110714285Y-141102438D02*
X110761904Y-141150057D01*
X110761904Y-141150057D02*
X110809523Y-141245295D01*
X110809523Y-141245295D02*
X110809523Y-141340533D01*
X110809523Y-141340533D02*
X110761904Y-141483390D01*
X110761904Y-141483390D02*
X110190476Y-142054819D01*
X110190476Y-142054819D02*
X110809523Y-142054819D01*
X111666666Y-141054819D02*
X111476190Y-141054819D01*
X111476190Y-141054819D02*
X111380952Y-141102438D01*
X111380952Y-141102438D02*
X111333333Y-141150057D01*
X111333333Y-141150057D02*
X111238095Y-141292914D01*
X111238095Y-141292914D02*
X111190476Y-141483390D01*
X111190476Y-141483390D02*
X111190476Y-141864342D01*
X111190476Y-141864342D02*
X111238095Y-141959580D01*
X111238095Y-141959580D02*
X111285714Y-142007200D01*
X111285714Y-142007200D02*
X111380952Y-142054819D01*
X111380952Y-142054819D02*
X111571428Y-142054819D01*
X111571428Y-142054819D02*
X111666666Y-142007200D01*
X111666666Y-142007200D02*
X111714285Y-141959580D01*
X111714285Y-141959580D02*
X111761904Y-141864342D01*
X111761904Y-141864342D02*
X111761904Y-141626247D01*
X111761904Y-141626247D02*
X111714285Y-141531009D01*
X111714285Y-141531009D02*
X111666666Y-141483390D01*
X111666666Y-141483390D02*
X111571428Y-141435771D01*
X111571428Y-141435771D02*
X111380952Y-141435771D01*
X111380952Y-141435771D02*
X111285714Y-141483390D01*
X111285714Y-141483390D02*
X111238095Y-141531009D01*
X111238095Y-141531009D02*
X111190476Y-141626247D01*
X118961905Y-108754819D02*
X118961905Y-107754819D01*
X118961905Y-107754819D02*
X119200000Y-107754819D01*
X119200000Y-107754819D02*
X119342857Y-107802438D01*
X119342857Y-107802438D02*
X119438095Y-107897676D01*
X119438095Y-107897676D02*
X119485714Y-107992914D01*
X119485714Y-107992914D02*
X119533333Y-108183390D01*
X119533333Y-108183390D02*
X119533333Y-108326247D01*
X119533333Y-108326247D02*
X119485714Y-108516723D01*
X119485714Y-108516723D02*
X119438095Y-108611961D01*
X119438095Y-108611961D02*
X119342857Y-108707200D01*
X119342857Y-108707200D02*
X119200000Y-108754819D01*
X119200000Y-108754819D02*
X118961905Y-108754819D01*
X119914286Y-107850057D02*
X119961905Y-107802438D01*
X119961905Y-107802438D02*
X120057143Y-107754819D01*
X120057143Y-107754819D02*
X120295238Y-107754819D01*
X120295238Y-107754819D02*
X120390476Y-107802438D01*
X120390476Y-107802438D02*
X120438095Y-107850057D01*
X120438095Y-107850057D02*
X120485714Y-107945295D01*
X120485714Y-107945295D02*
X120485714Y-108040533D01*
X120485714Y-108040533D02*
X120438095Y-108183390D01*
X120438095Y-108183390D02*
X119866667Y-108754819D01*
X119866667Y-108754819D02*
X120485714Y-108754819D01*
X144233333Y-122964580D02*
X144185714Y-123012200D01*
X144185714Y-123012200D02*
X144042857Y-123059819D01*
X144042857Y-123059819D02*
X143947619Y-123059819D01*
X143947619Y-123059819D02*
X143804762Y-123012200D01*
X143804762Y-123012200D02*
X143709524Y-122916961D01*
X143709524Y-122916961D02*
X143661905Y-122821723D01*
X143661905Y-122821723D02*
X143614286Y-122631247D01*
X143614286Y-122631247D02*
X143614286Y-122488390D01*
X143614286Y-122488390D02*
X143661905Y-122297914D01*
X143661905Y-122297914D02*
X143709524Y-122202676D01*
X143709524Y-122202676D02*
X143804762Y-122107438D01*
X143804762Y-122107438D02*
X143947619Y-122059819D01*
X143947619Y-122059819D02*
X144042857Y-122059819D01*
X144042857Y-122059819D02*
X144185714Y-122107438D01*
X144185714Y-122107438D02*
X144233333Y-122155057D01*
X144709524Y-123059819D02*
X144900000Y-123059819D01*
X144900000Y-123059819D02*
X144995238Y-123012200D01*
X144995238Y-123012200D02*
X145042857Y-122964580D01*
X145042857Y-122964580D02*
X145138095Y-122821723D01*
X145138095Y-122821723D02*
X145185714Y-122631247D01*
X145185714Y-122631247D02*
X145185714Y-122250295D01*
X145185714Y-122250295D02*
X145138095Y-122155057D01*
X145138095Y-122155057D02*
X145090476Y-122107438D01*
X145090476Y-122107438D02*
X144995238Y-122059819D01*
X144995238Y-122059819D02*
X144804762Y-122059819D01*
X144804762Y-122059819D02*
X144709524Y-122107438D01*
X144709524Y-122107438D02*
X144661905Y-122155057D01*
X144661905Y-122155057D02*
X144614286Y-122250295D01*
X144614286Y-122250295D02*
X144614286Y-122488390D01*
X144614286Y-122488390D02*
X144661905Y-122583628D01*
X144661905Y-122583628D02*
X144709524Y-122631247D01*
X144709524Y-122631247D02*
X144804762Y-122678866D01*
X144804762Y-122678866D02*
X144995238Y-122678866D01*
X144995238Y-122678866D02*
X145090476Y-122631247D01*
X145090476Y-122631247D02*
X145138095Y-122583628D01*
X145138095Y-122583628D02*
X145185714Y-122488390D01*
X113713095Y-109879819D02*
X113713095Y-110689342D01*
X113713095Y-110689342D02*
X113760714Y-110784580D01*
X113760714Y-110784580D02*
X113808333Y-110832200D01*
X113808333Y-110832200D02*
X113903571Y-110879819D01*
X113903571Y-110879819D02*
X114094047Y-110879819D01*
X114094047Y-110879819D02*
X114189285Y-110832200D01*
X114189285Y-110832200D02*
X114236904Y-110784580D01*
X114236904Y-110784580D02*
X114284523Y-110689342D01*
X114284523Y-110689342D02*
X114284523Y-109879819D01*
X114665476Y-109879819D02*
X115284523Y-109879819D01*
X115284523Y-109879819D02*
X114951190Y-110260771D01*
X114951190Y-110260771D02*
X115094047Y-110260771D01*
X115094047Y-110260771D02*
X115189285Y-110308390D01*
X115189285Y-110308390D02*
X115236904Y-110356009D01*
X115236904Y-110356009D02*
X115284523Y-110451247D01*
X115284523Y-110451247D02*
X115284523Y-110689342D01*
X115284523Y-110689342D02*
X115236904Y-110784580D01*
X115236904Y-110784580D02*
X115189285Y-110832200D01*
X115189285Y-110832200D02*
X115094047Y-110879819D01*
X115094047Y-110879819D02*
X114808333Y-110879819D01*
X114808333Y-110879819D02*
X114713095Y-110832200D01*
X114713095Y-110832200D02*
X114665476Y-110784580D01*
X128371819Y-146937666D02*
X127895628Y-147270999D01*
X128371819Y-147509094D02*
X127371819Y-147509094D01*
X127371819Y-147509094D02*
X127371819Y-147128142D01*
X127371819Y-147128142D02*
X127419438Y-147032904D01*
X127419438Y-147032904D02*
X127467057Y-146985285D01*
X127467057Y-146985285D02*
X127562295Y-146937666D01*
X127562295Y-146937666D02*
X127705152Y-146937666D01*
X127705152Y-146937666D02*
X127800390Y-146985285D01*
X127800390Y-146985285D02*
X127848009Y-147032904D01*
X127848009Y-147032904D02*
X127895628Y-147128142D01*
X127895628Y-147128142D02*
X127895628Y-147509094D01*
X127705152Y-146080523D02*
X128371819Y-146080523D01*
X127324200Y-146318618D02*
X128038485Y-146556713D01*
X128038485Y-146556713D02*
X128038485Y-145937666D01*
X131238095Y-145554819D02*
X131238095Y-146364342D01*
X131238095Y-146364342D02*
X131285714Y-146459580D01*
X131285714Y-146459580D02*
X131333333Y-146507200D01*
X131333333Y-146507200D02*
X131428571Y-146554819D01*
X131428571Y-146554819D02*
X131619047Y-146554819D01*
X131619047Y-146554819D02*
X131714285Y-146507200D01*
X131714285Y-146507200D02*
X131761904Y-146459580D01*
X131761904Y-146459580D02*
X131809523Y-146364342D01*
X131809523Y-146364342D02*
X131809523Y-145554819D01*
X132714285Y-145888152D02*
X132714285Y-146554819D01*
X132476190Y-145507200D02*
X132238095Y-146221485D01*
X132238095Y-146221485D02*
X132857142Y-146221485D01*
X123424819Y-111116666D02*
X122948628Y-111449999D01*
X123424819Y-111688094D02*
X122424819Y-111688094D01*
X122424819Y-111688094D02*
X122424819Y-111307142D01*
X122424819Y-111307142D02*
X122472438Y-111211904D01*
X122472438Y-111211904D02*
X122520057Y-111164285D01*
X122520057Y-111164285D02*
X122615295Y-111116666D01*
X122615295Y-111116666D02*
X122758152Y-111116666D01*
X122758152Y-111116666D02*
X122853390Y-111164285D01*
X122853390Y-111164285D02*
X122901009Y-111211904D01*
X122901009Y-111211904D02*
X122948628Y-111307142D01*
X122948628Y-111307142D02*
X122948628Y-111688094D01*
X122424819Y-110783332D02*
X122424819Y-110164285D01*
X122424819Y-110164285D02*
X122805771Y-110497618D01*
X122805771Y-110497618D02*
X122805771Y-110354761D01*
X122805771Y-110354761D02*
X122853390Y-110259523D01*
X122853390Y-110259523D02*
X122901009Y-110211904D01*
X122901009Y-110211904D02*
X122996247Y-110164285D01*
X122996247Y-110164285D02*
X123234342Y-110164285D01*
X123234342Y-110164285D02*
X123329580Y-110211904D01*
X123329580Y-110211904D02*
X123377200Y-110259523D01*
X123377200Y-110259523D02*
X123424819Y-110354761D01*
X123424819Y-110354761D02*
X123424819Y-110640475D01*
X123424819Y-110640475D02*
X123377200Y-110735713D01*
X123377200Y-110735713D02*
X123329580Y-110783332D01*
X101898819Y-131610857D02*
X101422628Y-131944190D01*
X101898819Y-132182285D02*
X100898819Y-132182285D01*
X100898819Y-132182285D02*
X100898819Y-131801333D01*
X100898819Y-131801333D02*
X100946438Y-131706095D01*
X100946438Y-131706095D02*
X100994057Y-131658476D01*
X100994057Y-131658476D02*
X101089295Y-131610857D01*
X101089295Y-131610857D02*
X101232152Y-131610857D01*
X101232152Y-131610857D02*
X101327390Y-131658476D01*
X101327390Y-131658476D02*
X101375009Y-131706095D01*
X101375009Y-131706095D02*
X101422628Y-131801333D01*
X101422628Y-131801333D02*
X101422628Y-132182285D01*
X101898819Y-130658476D02*
X101898819Y-131229904D01*
X101898819Y-130944190D02*
X100898819Y-130944190D01*
X100898819Y-130944190D02*
X101041676Y-131039428D01*
X101041676Y-131039428D02*
X101136914Y-131134666D01*
X101136914Y-131134666D02*
X101184533Y-131229904D01*
X100898819Y-130325142D02*
X100898819Y-129706095D01*
X100898819Y-129706095D02*
X101279771Y-130039428D01*
X101279771Y-130039428D02*
X101279771Y-129896571D01*
X101279771Y-129896571D02*
X101327390Y-129801333D01*
X101327390Y-129801333D02*
X101375009Y-129753714D01*
X101375009Y-129753714D02*
X101470247Y-129706095D01*
X101470247Y-129706095D02*
X101708342Y-129706095D01*
X101708342Y-129706095D02*
X101803580Y-129753714D01*
X101803580Y-129753714D02*
X101851200Y-129801333D01*
X101851200Y-129801333D02*
X101898819Y-129896571D01*
X101898819Y-129896571D02*
X101898819Y-130182285D01*
X101898819Y-130182285D02*
X101851200Y-130277523D01*
X101851200Y-130277523D02*
X101803580Y-130325142D01*
X144283333Y-124389580D02*
X144235714Y-124437200D01*
X144235714Y-124437200D02*
X144092857Y-124484819D01*
X144092857Y-124484819D02*
X143997619Y-124484819D01*
X143997619Y-124484819D02*
X143854762Y-124437200D01*
X143854762Y-124437200D02*
X143759524Y-124341961D01*
X143759524Y-124341961D02*
X143711905Y-124246723D01*
X143711905Y-124246723D02*
X143664286Y-124056247D01*
X143664286Y-124056247D02*
X143664286Y-123913390D01*
X143664286Y-123913390D02*
X143711905Y-123722914D01*
X143711905Y-123722914D02*
X143759524Y-123627676D01*
X143759524Y-123627676D02*
X143854762Y-123532438D01*
X143854762Y-123532438D02*
X143997619Y-123484819D01*
X143997619Y-123484819D02*
X144092857Y-123484819D01*
X144092857Y-123484819D02*
X144235714Y-123532438D01*
X144235714Y-123532438D02*
X144283333Y-123580057D01*
X144616667Y-123484819D02*
X145283333Y-123484819D01*
X145283333Y-123484819D02*
X144854762Y-124484819D01*
X139998095Y-132924819D02*
X139998095Y-133734342D01*
X139998095Y-133734342D02*
X140045714Y-133829580D01*
X140045714Y-133829580D02*
X140093333Y-133877200D01*
X140093333Y-133877200D02*
X140188571Y-133924819D01*
X140188571Y-133924819D02*
X140379047Y-133924819D01*
X140379047Y-133924819D02*
X140474285Y-133877200D01*
X140474285Y-133877200D02*
X140521904Y-133829580D01*
X140521904Y-133829580D02*
X140569523Y-133734342D01*
X140569523Y-133734342D02*
X140569523Y-132924819D01*
X141474285Y-132924819D02*
X141283809Y-132924819D01*
X141283809Y-132924819D02*
X141188571Y-132972438D01*
X141188571Y-132972438D02*
X141140952Y-133020057D01*
X141140952Y-133020057D02*
X141045714Y-133162914D01*
X141045714Y-133162914D02*
X140998095Y-133353390D01*
X140998095Y-133353390D02*
X140998095Y-133734342D01*
X140998095Y-133734342D02*
X141045714Y-133829580D01*
X141045714Y-133829580D02*
X141093333Y-133877200D01*
X141093333Y-133877200D02*
X141188571Y-133924819D01*
X141188571Y-133924819D02*
X141379047Y-133924819D01*
X141379047Y-133924819D02*
X141474285Y-133877200D01*
X141474285Y-133877200D02*
X141521904Y-133829580D01*
X141521904Y-133829580D02*
X141569523Y-133734342D01*
X141569523Y-133734342D02*
X141569523Y-133496247D01*
X141569523Y-133496247D02*
X141521904Y-133401009D01*
X141521904Y-133401009D02*
X141474285Y-133353390D01*
X141474285Y-133353390D02*
X141379047Y-133305771D01*
X141379047Y-133305771D02*
X141188571Y-133305771D01*
X141188571Y-133305771D02*
X141093333Y-133353390D01*
X141093333Y-133353390D02*
X141045714Y-133401009D01*
X141045714Y-133401009D02*
X140998095Y-133496247D01*
X144183333Y-125789580D02*
X144135714Y-125837200D01*
X144135714Y-125837200D02*
X143992857Y-125884819D01*
X143992857Y-125884819D02*
X143897619Y-125884819D01*
X143897619Y-125884819D02*
X143754762Y-125837200D01*
X143754762Y-125837200D02*
X143659524Y-125741961D01*
X143659524Y-125741961D02*
X143611905Y-125646723D01*
X143611905Y-125646723D02*
X143564286Y-125456247D01*
X143564286Y-125456247D02*
X143564286Y-125313390D01*
X143564286Y-125313390D02*
X143611905Y-125122914D01*
X143611905Y-125122914D02*
X143659524Y-125027676D01*
X143659524Y-125027676D02*
X143754762Y-124932438D01*
X143754762Y-124932438D02*
X143897619Y-124884819D01*
X143897619Y-124884819D02*
X143992857Y-124884819D01*
X143992857Y-124884819D02*
X144135714Y-124932438D01*
X144135714Y-124932438D02*
X144183333Y-124980057D01*
X144754762Y-125313390D02*
X144659524Y-125265771D01*
X144659524Y-125265771D02*
X144611905Y-125218152D01*
X144611905Y-125218152D02*
X144564286Y-125122914D01*
X144564286Y-125122914D02*
X144564286Y-125075295D01*
X144564286Y-125075295D02*
X144611905Y-124980057D01*
X144611905Y-124980057D02*
X144659524Y-124932438D01*
X144659524Y-124932438D02*
X144754762Y-124884819D01*
X144754762Y-124884819D02*
X144945238Y-124884819D01*
X144945238Y-124884819D02*
X145040476Y-124932438D01*
X145040476Y-124932438D02*
X145088095Y-124980057D01*
X145088095Y-124980057D02*
X145135714Y-125075295D01*
X145135714Y-125075295D02*
X145135714Y-125122914D01*
X145135714Y-125122914D02*
X145088095Y-125218152D01*
X145088095Y-125218152D02*
X145040476Y-125265771D01*
X145040476Y-125265771D02*
X144945238Y-125313390D01*
X144945238Y-125313390D02*
X144754762Y-125313390D01*
X144754762Y-125313390D02*
X144659524Y-125361009D01*
X144659524Y-125361009D02*
X144611905Y-125408628D01*
X144611905Y-125408628D02*
X144564286Y-125503866D01*
X144564286Y-125503866D02*
X144564286Y-125694342D01*
X144564286Y-125694342D02*
X144611905Y-125789580D01*
X144611905Y-125789580D02*
X144659524Y-125837200D01*
X144659524Y-125837200D02*
X144754762Y-125884819D01*
X144754762Y-125884819D02*
X144945238Y-125884819D01*
X144945238Y-125884819D02*
X145040476Y-125837200D01*
X145040476Y-125837200D02*
X145088095Y-125789580D01*
X145088095Y-125789580D02*
X145135714Y-125694342D01*
X145135714Y-125694342D02*
X145135714Y-125503866D01*
X145135714Y-125503866D02*
X145088095Y-125408628D01*
X145088095Y-125408628D02*
X145040476Y-125361009D01*
X145040476Y-125361009D02*
X144945238Y-125313390D01*
X110482142Y-107934819D02*
X110148809Y-107458628D01*
X109910714Y-107934819D02*
X109910714Y-106934819D01*
X109910714Y-106934819D02*
X110291666Y-106934819D01*
X110291666Y-106934819D02*
X110386904Y-106982438D01*
X110386904Y-106982438D02*
X110434523Y-107030057D01*
X110434523Y-107030057D02*
X110482142Y-107125295D01*
X110482142Y-107125295D02*
X110482142Y-107268152D01*
X110482142Y-107268152D02*
X110434523Y-107363390D01*
X110434523Y-107363390D02*
X110386904Y-107411009D01*
X110386904Y-107411009D02*
X110291666Y-107458628D01*
X110291666Y-107458628D02*
X109910714Y-107458628D01*
X111434523Y-107934819D02*
X110863095Y-107934819D01*
X111148809Y-107934819D02*
X111148809Y-106934819D01*
X111148809Y-106934819D02*
X111053571Y-107077676D01*
X111053571Y-107077676D02*
X110958333Y-107172914D01*
X110958333Y-107172914D02*
X110863095Y-107220533D01*
X112339285Y-106934819D02*
X111863095Y-106934819D01*
X111863095Y-106934819D02*
X111815476Y-107411009D01*
X111815476Y-107411009D02*
X111863095Y-107363390D01*
X111863095Y-107363390D02*
X111958333Y-107315771D01*
X111958333Y-107315771D02*
X112196428Y-107315771D01*
X112196428Y-107315771D02*
X112291666Y-107363390D01*
X112291666Y-107363390D02*
X112339285Y-107411009D01*
X112339285Y-107411009D02*
X112386904Y-107506247D01*
X112386904Y-107506247D02*
X112386904Y-107744342D01*
X112386904Y-107744342D02*
X112339285Y-107839580D01*
X112339285Y-107839580D02*
X112291666Y-107887200D01*
X112291666Y-107887200D02*
X112196428Y-107934819D01*
X112196428Y-107934819D02*
X111958333Y-107934819D01*
X111958333Y-107934819D02*
X111863095Y-107887200D01*
X111863095Y-107887200D02*
X111815476Y-107839580D01*
X116583333Y-134729580D02*
X116535714Y-134777200D01*
X116535714Y-134777200D02*
X116392857Y-134824819D01*
X116392857Y-134824819D02*
X116297619Y-134824819D01*
X116297619Y-134824819D02*
X116154762Y-134777200D01*
X116154762Y-134777200D02*
X116059524Y-134681961D01*
X116059524Y-134681961D02*
X116011905Y-134586723D01*
X116011905Y-134586723D02*
X115964286Y-134396247D01*
X115964286Y-134396247D02*
X115964286Y-134253390D01*
X115964286Y-134253390D02*
X116011905Y-134062914D01*
X116011905Y-134062914D02*
X116059524Y-133967676D01*
X116059524Y-133967676D02*
X116154762Y-133872438D01*
X116154762Y-133872438D02*
X116297619Y-133824819D01*
X116297619Y-133824819D02*
X116392857Y-133824819D01*
X116392857Y-133824819D02*
X116535714Y-133872438D01*
X116535714Y-133872438D02*
X116583333Y-133920057D01*
X117440476Y-133824819D02*
X117250000Y-133824819D01*
X117250000Y-133824819D02*
X117154762Y-133872438D01*
X117154762Y-133872438D02*
X117107143Y-133920057D01*
X117107143Y-133920057D02*
X117011905Y-134062914D01*
X117011905Y-134062914D02*
X116964286Y-134253390D01*
X116964286Y-134253390D02*
X116964286Y-134634342D01*
X116964286Y-134634342D02*
X117011905Y-134729580D01*
X117011905Y-134729580D02*
X117059524Y-134777200D01*
X117059524Y-134777200D02*
X117154762Y-134824819D01*
X117154762Y-134824819D02*
X117345238Y-134824819D01*
X117345238Y-134824819D02*
X117440476Y-134777200D01*
X117440476Y-134777200D02*
X117488095Y-134729580D01*
X117488095Y-134729580D02*
X117535714Y-134634342D01*
X117535714Y-134634342D02*
X117535714Y-134396247D01*
X117535714Y-134396247D02*
X117488095Y-134301009D01*
X117488095Y-134301009D02*
X117440476Y-134253390D01*
X117440476Y-134253390D02*
X117345238Y-134205771D01*
X117345238Y-134205771D02*
X117154762Y-134205771D01*
X117154762Y-134205771D02*
X117059524Y-134253390D01*
X117059524Y-134253390D02*
X117011905Y-134301009D01*
X117011905Y-134301009D02*
X116964286Y-134396247D01*
X137833305Y-125767619D02*
X137833305Y-124767619D01*
X137833305Y-124767619D02*
X138071400Y-124767619D01*
X138071400Y-124767619D02*
X138214257Y-124815238D01*
X138214257Y-124815238D02*
X138309495Y-124910476D01*
X138309495Y-124910476D02*
X138357114Y-125005714D01*
X138357114Y-125005714D02*
X138404733Y-125196190D01*
X138404733Y-125196190D02*
X138404733Y-125339047D01*
X138404733Y-125339047D02*
X138357114Y-125529523D01*
X138357114Y-125529523D02*
X138309495Y-125624761D01*
X138309495Y-125624761D02*
X138214257Y-125720000D01*
X138214257Y-125720000D02*
X138071400Y-125767619D01*
X138071400Y-125767619D02*
X137833305Y-125767619D01*
X139404733Y-125672380D02*
X139357114Y-125720000D01*
X139357114Y-125720000D02*
X139214257Y-125767619D01*
X139214257Y-125767619D02*
X139119019Y-125767619D01*
X139119019Y-125767619D02*
X138976162Y-125720000D01*
X138976162Y-125720000D02*
X138880924Y-125624761D01*
X138880924Y-125624761D02*
X138833305Y-125529523D01*
X138833305Y-125529523D02*
X138785686Y-125339047D01*
X138785686Y-125339047D02*
X138785686Y-125196190D01*
X138785686Y-125196190D02*
X138833305Y-125005714D01*
X138833305Y-125005714D02*
X138880924Y-124910476D01*
X138880924Y-124910476D02*
X138976162Y-124815238D01*
X138976162Y-124815238D02*
X139119019Y-124767619D01*
X139119019Y-124767619D02*
X139214257Y-124767619D01*
X139214257Y-124767619D02*
X139357114Y-124815238D01*
X139357114Y-124815238D02*
X139404733Y-124862857D01*
X139833305Y-125767619D02*
X139833305Y-124767619D01*
X139833305Y-124767619D02*
X140071400Y-124767619D01*
X140071400Y-124767619D02*
X140214257Y-124815238D01*
X140214257Y-124815238D02*
X140309495Y-124910476D01*
X140309495Y-124910476D02*
X140357114Y-125005714D01*
X140357114Y-125005714D02*
X140404733Y-125196190D01*
X140404733Y-125196190D02*
X140404733Y-125339047D01*
X140404733Y-125339047D02*
X140357114Y-125529523D01*
X140357114Y-125529523D02*
X140309495Y-125624761D01*
X140309495Y-125624761D02*
X140214257Y-125720000D01*
X140214257Y-125720000D02*
X140071400Y-125767619D01*
X140071400Y-125767619D02*
X139833305Y-125767619D01*
X141404733Y-125672380D02*
X141357114Y-125720000D01*
X141357114Y-125720000D02*
X141214257Y-125767619D01*
X141214257Y-125767619D02*
X141119019Y-125767619D01*
X141119019Y-125767619D02*
X140976162Y-125720000D01*
X140976162Y-125720000D02*
X140880924Y-125624761D01*
X140880924Y-125624761D02*
X140833305Y-125529523D01*
X140833305Y-125529523D02*
X140785686Y-125339047D01*
X140785686Y-125339047D02*
X140785686Y-125196190D01*
X140785686Y-125196190D02*
X140833305Y-125005714D01*
X140833305Y-125005714D02*
X140880924Y-124910476D01*
X140880924Y-124910476D02*
X140976162Y-124815238D01*
X140976162Y-124815238D02*
X141119019Y-124767619D01*
X141119019Y-124767619D02*
X141214257Y-124767619D01*
X141214257Y-124767619D02*
X141357114Y-124815238D01*
X141357114Y-124815238D02*
X141404733Y-124862857D01*
X142357114Y-125767619D02*
X141785686Y-125767619D01*
X142071400Y-125767619D02*
X142071400Y-124767619D01*
X142071400Y-124767619D02*
X141976162Y-124910476D01*
X141976162Y-124910476D02*
X141880924Y-125005714D01*
X141880924Y-125005714D02*
X141785686Y-125053333D01*
X110333333Y-134704580D02*
X110285714Y-134752200D01*
X110285714Y-134752200D02*
X110142857Y-134799819D01*
X110142857Y-134799819D02*
X110047619Y-134799819D01*
X110047619Y-134799819D02*
X109904762Y-134752200D01*
X109904762Y-134752200D02*
X109809524Y-134656961D01*
X109809524Y-134656961D02*
X109761905Y-134561723D01*
X109761905Y-134561723D02*
X109714286Y-134371247D01*
X109714286Y-134371247D02*
X109714286Y-134228390D01*
X109714286Y-134228390D02*
X109761905Y-134037914D01*
X109761905Y-134037914D02*
X109809524Y-133942676D01*
X109809524Y-133942676D02*
X109904762Y-133847438D01*
X109904762Y-133847438D02*
X110047619Y-133799819D01*
X110047619Y-133799819D02*
X110142857Y-133799819D01*
X110142857Y-133799819D02*
X110285714Y-133847438D01*
X110285714Y-133847438D02*
X110333333Y-133895057D01*
X111285714Y-134799819D02*
X110714286Y-134799819D01*
X111000000Y-134799819D02*
X111000000Y-133799819D01*
X111000000Y-133799819D02*
X110904762Y-133942676D01*
X110904762Y-133942676D02*
X110809524Y-134037914D01*
X110809524Y-134037914D02*
X110714286Y-134085533D01*
X128054819Y-120542857D02*
X127578628Y-120876190D01*
X128054819Y-121114285D02*
X127054819Y-121114285D01*
X127054819Y-121114285D02*
X127054819Y-120733333D01*
X127054819Y-120733333D02*
X127102438Y-120638095D01*
X127102438Y-120638095D02*
X127150057Y-120590476D01*
X127150057Y-120590476D02*
X127245295Y-120542857D01*
X127245295Y-120542857D02*
X127388152Y-120542857D01*
X127388152Y-120542857D02*
X127483390Y-120590476D01*
X127483390Y-120590476D02*
X127531009Y-120638095D01*
X127531009Y-120638095D02*
X127578628Y-120733333D01*
X127578628Y-120733333D02*
X127578628Y-121114285D01*
X128054819Y-119590476D02*
X128054819Y-120161904D01*
X128054819Y-119876190D02*
X127054819Y-119876190D01*
X127054819Y-119876190D02*
X127197676Y-119971428D01*
X127197676Y-119971428D02*
X127292914Y-120066666D01*
X127292914Y-120066666D02*
X127340533Y-120161904D01*
X128054819Y-119114285D02*
X128054819Y-118923809D01*
X128054819Y-118923809D02*
X128007200Y-118828571D01*
X128007200Y-118828571D02*
X127959580Y-118780952D01*
X127959580Y-118780952D02*
X127816723Y-118685714D01*
X127816723Y-118685714D02*
X127626247Y-118638095D01*
X127626247Y-118638095D02*
X127245295Y-118638095D01*
X127245295Y-118638095D02*
X127150057Y-118685714D01*
X127150057Y-118685714D02*
X127102438Y-118733333D01*
X127102438Y-118733333D02*
X127054819Y-118828571D01*
X127054819Y-118828571D02*
X127054819Y-119019047D01*
X127054819Y-119019047D02*
X127102438Y-119114285D01*
X127102438Y-119114285D02*
X127150057Y-119161904D01*
X127150057Y-119161904D02*
X127245295Y-119209523D01*
X127245295Y-119209523D02*
X127483390Y-119209523D01*
X127483390Y-119209523D02*
X127578628Y-119161904D01*
X127578628Y-119161904D02*
X127626247Y-119114285D01*
X127626247Y-119114285D02*
X127673866Y-119019047D01*
X127673866Y-119019047D02*
X127673866Y-118828571D01*
X127673866Y-118828571D02*
X127626247Y-118733333D01*
X127626247Y-118733333D02*
X127578628Y-118685714D01*
X127578628Y-118685714D02*
X127483390Y-118638095D01*
X122623819Y-147301857D02*
X122147628Y-147635190D01*
X122623819Y-147873285D02*
X121623819Y-147873285D01*
X121623819Y-147873285D02*
X121623819Y-147492333D01*
X121623819Y-147492333D02*
X121671438Y-147397095D01*
X121671438Y-147397095D02*
X121719057Y-147349476D01*
X121719057Y-147349476D02*
X121814295Y-147301857D01*
X121814295Y-147301857D02*
X121957152Y-147301857D01*
X121957152Y-147301857D02*
X122052390Y-147349476D01*
X122052390Y-147349476D02*
X122100009Y-147397095D01*
X122100009Y-147397095D02*
X122147628Y-147492333D01*
X122147628Y-147492333D02*
X122147628Y-147873285D01*
X122623819Y-146349476D02*
X122623819Y-146920904D01*
X122623819Y-146635190D02*
X121623819Y-146635190D01*
X121623819Y-146635190D02*
X121766676Y-146730428D01*
X121766676Y-146730428D02*
X121861914Y-146825666D01*
X121861914Y-146825666D02*
X121909533Y-146920904D01*
X122623819Y-145397095D02*
X122623819Y-145968523D01*
X122623819Y-145682809D02*
X121623819Y-145682809D01*
X121623819Y-145682809D02*
X121766676Y-145778047D01*
X121766676Y-145778047D02*
X121861914Y-145873285D01*
X121861914Y-145873285D02*
X121909533Y-145968523D01*
X122454819Y-116836904D02*
X123264342Y-116836904D01*
X123264342Y-116836904D02*
X123359580Y-116789285D01*
X123359580Y-116789285D02*
X123407200Y-116741666D01*
X123407200Y-116741666D02*
X123454819Y-116646428D01*
X123454819Y-116646428D02*
X123454819Y-116455952D01*
X123454819Y-116455952D02*
X123407200Y-116360714D01*
X123407200Y-116360714D02*
X123359580Y-116313095D01*
X123359580Y-116313095D02*
X123264342Y-116265476D01*
X123264342Y-116265476D02*
X122454819Y-116265476D01*
X122550057Y-115836904D02*
X122502438Y-115789285D01*
X122502438Y-115789285D02*
X122454819Y-115694047D01*
X122454819Y-115694047D02*
X122454819Y-115455952D01*
X122454819Y-115455952D02*
X122502438Y-115360714D01*
X122502438Y-115360714D02*
X122550057Y-115313095D01*
X122550057Y-115313095D02*
X122645295Y-115265476D01*
X122645295Y-115265476D02*
X122740533Y-115265476D01*
X122740533Y-115265476D02*
X122883390Y-115313095D01*
X122883390Y-115313095D02*
X123454819Y-115884523D01*
X123454819Y-115884523D02*
X123454819Y-115265476D01*
X101484819Y-121816666D02*
X101008628Y-122149999D01*
X101484819Y-122388094D02*
X100484819Y-122388094D01*
X100484819Y-122388094D02*
X100484819Y-122007142D01*
X100484819Y-122007142D02*
X100532438Y-121911904D01*
X100532438Y-121911904D02*
X100580057Y-121864285D01*
X100580057Y-121864285D02*
X100675295Y-121816666D01*
X100675295Y-121816666D02*
X100818152Y-121816666D01*
X100818152Y-121816666D02*
X100913390Y-121864285D01*
X100913390Y-121864285D02*
X100961009Y-121911904D01*
X100961009Y-121911904D02*
X101008628Y-122007142D01*
X101008628Y-122007142D02*
X101008628Y-122388094D01*
X100484819Y-120911904D02*
X100484819Y-121388094D01*
X100484819Y-121388094D02*
X100961009Y-121435713D01*
X100961009Y-121435713D02*
X100913390Y-121388094D01*
X100913390Y-121388094D02*
X100865771Y-121292856D01*
X100865771Y-121292856D02*
X100865771Y-121054761D01*
X100865771Y-121054761D02*
X100913390Y-120959523D01*
X100913390Y-120959523D02*
X100961009Y-120911904D01*
X100961009Y-120911904D02*
X101056247Y-120864285D01*
X101056247Y-120864285D02*
X101294342Y-120864285D01*
X101294342Y-120864285D02*
X101389580Y-120911904D01*
X101389580Y-120911904D02*
X101437200Y-120959523D01*
X101437200Y-120959523D02*
X101484819Y-121054761D01*
X101484819Y-121054761D02*
X101484819Y-121292856D01*
X101484819Y-121292856D02*
X101437200Y-121388094D01*
X101437200Y-121388094D02*
X101389580Y-121435713D01*
X143554819Y-147442857D02*
X143078628Y-147776190D01*
X143554819Y-148014285D02*
X142554819Y-148014285D01*
X142554819Y-148014285D02*
X142554819Y-147633333D01*
X142554819Y-147633333D02*
X142602438Y-147538095D01*
X142602438Y-147538095D02*
X142650057Y-147490476D01*
X142650057Y-147490476D02*
X142745295Y-147442857D01*
X142745295Y-147442857D02*
X142888152Y-147442857D01*
X142888152Y-147442857D02*
X142983390Y-147490476D01*
X142983390Y-147490476D02*
X143031009Y-147538095D01*
X143031009Y-147538095D02*
X143078628Y-147633333D01*
X143078628Y-147633333D02*
X143078628Y-148014285D01*
X143554819Y-146490476D02*
X143554819Y-147061904D01*
X143554819Y-146776190D02*
X142554819Y-146776190D01*
X142554819Y-146776190D02*
X142697676Y-146871428D01*
X142697676Y-146871428D02*
X142792914Y-146966666D01*
X142792914Y-146966666D02*
X142840533Y-147061904D01*
X142554819Y-145871428D02*
X142554819Y-145776190D01*
X142554819Y-145776190D02*
X142602438Y-145680952D01*
X142602438Y-145680952D02*
X142650057Y-145633333D01*
X142650057Y-145633333D02*
X142745295Y-145585714D01*
X142745295Y-145585714D02*
X142935771Y-145538095D01*
X142935771Y-145538095D02*
X143173866Y-145538095D01*
X143173866Y-145538095D02*
X143364342Y-145585714D01*
X143364342Y-145585714D02*
X143459580Y-145633333D01*
X143459580Y-145633333D02*
X143507200Y-145680952D01*
X143507200Y-145680952D02*
X143554819Y-145776190D01*
X143554819Y-145776190D02*
X143554819Y-145871428D01*
X143554819Y-145871428D02*
X143507200Y-145966666D01*
X143507200Y-145966666D02*
X143459580Y-146014285D01*
X143459580Y-146014285D02*
X143364342Y-146061904D01*
X143364342Y-146061904D02*
X143173866Y-146109523D01*
X143173866Y-146109523D02*
X142935771Y-146109523D01*
X142935771Y-146109523D02*
X142745295Y-146061904D01*
X142745295Y-146061904D02*
X142650057Y-146014285D01*
X142650057Y-146014285D02*
X142602438Y-145966666D01*
X142602438Y-145966666D02*
X142554819Y-145871428D01*
X115707142Y-130934819D02*
X115373809Y-130458628D01*
X115135714Y-130934819D02*
X115135714Y-129934819D01*
X115135714Y-129934819D02*
X115516666Y-129934819D01*
X115516666Y-129934819D02*
X115611904Y-129982438D01*
X115611904Y-129982438D02*
X115659523Y-130030057D01*
X115659523Y-130030057D02*
X115707142Y-130125295D01*
X115707142Y-130125295D02*
X115707142Y-130268152D01*
X115707142Y-130268152D02*
X115659523Y-130363390D01*
X115659523Y-130363390D02*
X115611904Y-130411009D01*
X115611904Y-130411009D02*
X115516666Y-130458628D01*
X115516666Y-130458628D02*
X115135714Y-130458628D01*
X116088095Y-130030057D02*
X116135714Y-129982438D01*
X116135714Y-129982438D02*
X116230952Y-129934819D01*
X116230952Y-129934819D02*
X116469047Y-129934819D01*
X116469047Y-129934819D02*
X116564285Y-129982438D01*
X116564285Y-129982438D02*
X116611904Y-130030057D01*
X116611904Y-130030057D02*
X116659523Y-130125295D01*
X116659523Y-130125295D02*
X116659523Y-130220533D01*
X116659523Y-130220533D02*
X116611904Y-130363390D01*
X116611904Y-130363390D02*
X116040476Y-130934819D01*
X116040476Y-130934819D02*
X116659523Y-130934819D01*
X117040476Y-130030057D02*
X117088095Y-129982438D01*
X117088095Y-129982438D02*
X117183333Y-129934819D01*
X117183333Y-129934819D02*
X117421428Y-129934819D01*
X117421428Y-129934819D02*
X117516666Y-129982438D01*
X117516666Y-129982438D02*
X117564285Y-130030057D01*
X117564285Y-130030057D02*
X117611904Y-130125295D01*
X117611904Y-130125295D02*
X117611904Y-130220533D01*
X117611904Y-130220533D02*
X117564285Y-130363390D01*
X117564285Y-130363390D02*
X116992857Y-130934819D01*
X116992857Y-130934819D02*
X117611904Y-130934819D01*
X123324819Y-151688094D02*
X122324819Y-151688094D01*
X122324819Y-151688094D02*
X122324819Y-151449999D01*
X122324819Y-151449999D02*
X122372438Y-151307142D01*
X122372438Y-151307142D02*
X122467676Y-151211904D01*
X122467676Y-151211904D02*
X122562914Y-151164285D01*
X122562914Y-151164285D02*
X122753390Y-151116666D01*
X122753390Y-151116666D02*
X122896247Y-151116666D01*
X122896247Y-151116666D02*
X123086723Y-151164285D01*
X123086723Y-151164285D02*
X123181961Y-151211904D01*
X123181961Y-151211904D02*
X123277200Y-151307142D01*
X123277200Y-151307142D02*
X123324819Y-151449999D01*
X123324819Y-151449999D02*
X123324819Y-151688094D01*
X122658152Y-150259523D02*
X123324819Y-150259523D01*
X122277200Y-150497618D02*
X122991485Y-150735713D01*
X122991485Y-150735713D02*
X122991485Y-150116666D01*
X117233333Y-136354819D02*
X116757143Y-136354819D01*
X116757143Y-136354819D02*
X116757143Y-135354819D01*
X118090476Y-136354819D02*
X117519048Y-136354819D01*
X117804762Y-136354819D02*
X117804762Y-135354819D01*
X117804762Y-135354819D02*
X117709524Y-135497676D01*
X117709524Y-135497676D02*
X117614286Y-135592914D01*
X117614286Y-135592914D02*
X117519048Y-135640533D01*
X115057142Y-122074819D02*
X114723809Y-121598628D01*
X114485714Y-122074819D02*
X114485714Y-121074819D01*
X114485714Y-121074819D02*
X114866666Y-121074819D01*
X114866666Y-121074819D02*
X114961904Y-121122438D01*
X114961904Y-121122438D02*
X115009523Y-121170057D01*
X115009523Y-121170057D02*
X115057142Y-121265295D01*
X115057142Y-121265295D02*
X115057142Y-121408152D01*
X115057142Y-121408152D02*
X115009523Y-121503390D01*
X115009523Y-121503390D02*
X114961904Y-121551009D01*
X114961904Y-121551009D02*
X114866666Y-121598628D01*
X114866666Y-121598628D02*
X114485714Y-121598628D01*
X116009523Y-122074819D02*
X115438095Y-122074819D01*
X115723809Y-122074819D02*
X115723809Y-121074819D01*
X115723809Y-121074819D02*
X115628571Y-121217676D01*
X115628571Y-121217676D02*
X115533333Y-121312914D01*
X115533333Y-121312914D02*
X115438095Y-121360533D01*
X116866666Y-121408152D02*
X116866666Y-122074819D01*
X116628571Y-121027200D02*
X116390476Y-121741485D01*
X116390476Y-121741485D02*
X117009523Y-121741485D01*
X142774819Y-151538094D02*
X141774819Y-151538094D01*
X141774819Y-151538094D02*
X141774819Y-151299999D01*
X141774819Y-151299999D02*
X141822438Y-151157142D01*
X141822438Y-151157142D02*
X141917676Y-151061904D01*
X141917676Y-151061904D02*
X142012914Y-151014285D01*
X142012914Y-151014285D02*
X142203390Y-150966666D01*
X142203390Y-150966666D02*
X142346247Y-150966666D01*
X142346247Y-150966666D02*
X142536723Y-151014285D01*
X142536723Y-151014285D02*
X142631961Y-151061904D01*
X142631961Y-151061904D02*
X142727200Y-151157142D01*
X142727200Y-151157142D02*
X142774819Y-151299999D01*
X142774819Y-151299999D02*
X142774819Y-151538094D01*
X141774819Y-150633332D02*
X141774819Y-150014285D01*
X141774819Y-150014285D02*
X142155771Y-150347618D01*
X142155771Y-150347618D02*
X142155771Y-150204761D01*
X142155771Y-150204761D02*
X142203390Y-150109523D01*
X142203390Y-150109523D02*
X142251009Y-150061904D01*
X142251009Y-150061904D02*
X142346247Y-150014285D01*
X142346247Y-150014285D02*
X142584342Y-150014285D01*
X142584342Y-150014285D02*
X142679580Y-150061904D01*
X142679580Y-150061904D02*
X142727200Y-150109523D01*
X142727200Y-150109523D02*
X142774819Y-150204761D01*
X142774819Y-150204761D02*
X142774819Y-150490475D01*
X142774819Y-150490475D02*
X142727200Y-150585713D01*
X142727200Y-150585713D02*
X142679580Y-150633332D01*
X106738095Y-132384819D02*
X106738095Y-133194342D01*
X106738095Y-133194342D02*
X106785714Y-133289580D01*
X106785714Y-133289580D02*
X106833333Y-133337200D01*
X106833333Y-133337200D02*
X106928571Y-133384819D01*
X106928571Y-133384819D02*
X107119047Y-133384819D01*
X107119047Y-133384819D02*
X107214285Y-133337200D01*
X107214285Y-133337200D02*
X107261904Y-133289580D01*
X107261904Y-133289580D02*
X107309523Y-133194342D01*
X107309523Y-133194342D02*
X107309523Y-132384819D01*
X108309523Y-133384819D02*
X107738095Y-133384819D01*
X108023809Y-133384819D02*
X108023809Y-132384819D01*
X108023809Y-132384819D02*
X107928571Y-132527676D01*
X107928571Y-132527676D02*
X107833333Y-132622914D01*
X107833333Y-132622914D02*
X107738095Y-132670533D01*
D14*
%TO.C,C11*%
X124810000Y-136809420D02*
X124810000Y-137090580D01*
X123790000Y-136809420D02*
X123790000Y-137090580D01*
%TO.C,SW1*%
X116760000Y-151700000D02*
X116760000Y-147800000D01*
X116760000Y-151700000D02*
X109040000Y-151700000D01*
X116760000Y-145200000D02*
X116760000Y-144690000D01*
X116760000Y-144690000D02*
X116240000Y-144690000D01*
X116240000Y-148030000D02*
X116240000Y-147800000D01*
X116240000Y-148030000D02*
X115700000Y-148030000D01*
X116240000Y-145200000D02*
X116240000Y-144690000D01*
X114600000Y-148030000D02*
X111200000Y-148030000D01*
X110100000Y-148030000D02*
X109560000Y-148030000D01*
X109560000Y-148030000D02*
X109560000Y-147800000D01*
X109560000Y-145200000D02*
X109560000Y-144690000D01*
X109560000Y-144690000D02*
X109040000Y-144690000D01*
X109040000Y-151700000D02*
X109040000Y-147800000D01*
X109040000Y-145200000D02*
X109040000Y-144690000D01*
%TO.C,C2*%
X116111000Y-124577580D02*
X116111000Y-124296420D01*
X117131000Y-124577580D02*
X117131000Y-124296420D01*
%TO.C,R8*%
X114577500Y-124687258D02*
X114577500Y-124212742D01*
X115622500Y-124687258D02*
X115622500Y-124212742D01*
%TO.C,J3*%
X147680000Y-140610000D02*
X149660000Y-140610000D01*
X147680000Y-140610000D02*
X147680000Y-125890000D01*
X153360000Y-140610000D02*
X161900000Y-140610000D01*
X161900000Y-140610000D02*
X161900000Y-125890000D01*
X146800000Y-137250000D02*
X147300000Y-136750000D01*
X147300000Y-136750000D02*
X146800000Y-136250000D01*
X146800000Y-136250000D02*
X146800000Y-137250000D01*
X149660000Y-125890000D02*
X147680000Y-125890000D01*
X153360000Y-125890000D02*
X161900000Y-125890000D01*
%TO.C,R6*%
X105062742Y-128127500D02*
X105537258Y-128127500D01*
X105062742Y-129172500D02*
X105537258Y-129172500D01*
%TO.C,R20*%
X115777500Y-128287258D02*
X115777500Y-127812742D01*
X116822500Y-128287258D02*
X116822500Y-127812742D01*
%TO.C,R23*%
X134922742Y-146227500D02*
X135397258Y-146227500D01*
X134922742Y-147272500D02*
X135397258Y-147272500D01*
%TO.C,D1*%
X125665000Y-150115000D02*
X125665000Y-151585000D01*
X125665000Y-151585000D02*
X127950000Y-151585000D01*
X127950000Y-150115000D02*
X125665000Y-150115000D01*
%TO.C,U5*%
X114110000Y-137810000D02*
X112310000Y-137810000D01*
X114110000Y-137810000D02*
X114910000Y-137810000D01*
X114110000Y-140930000D02*
X113310000Y-140930000D01*
X114110000Y-140930000D02*
X114910000Y-140930000D01*
%TO.C,R18*%
X111337258Y-114572500D02*
X110862742Y-114572500D01*
X111337258Y-113527500D02*
X110862742Y-113527500D01*
%TO.C,C15*%
X122390000Y-140890580D02*
X122390000Y-140609420D01*
X123410000Y-140890580D02*
X123410000Y-140609420D01*
%TO.C,C14*%
X138690000Y-136690580D02*
X138690000Y-136409420D01*
X139710000Y-136690580D02*
X139710000Y-136409420D01*
%TO.C,J2*%
X103000000Y-134280000D02*
X104800000Y-134280000D01*
X100900000Y-134280000D02*
X99750000Y-134280000D01*
X103000000Y-143620000D02*
X104800000Y-143620000D01*
X100900000Y-143620000D02*
X99750000Y-143620000D01*
%TO.C,C18*%
X143710000Y-140709420D02*
X143710000Y-140990580D01*
X142690000Y-140709420D02*
X142690000Y-140990580D01*
%TO.C,R9*%
X119662742Y-137327500D02*
X120137258Y-137327500D01*
X119662742Y-138372500D02*
X120137258Y-138372500D01*
%TO.C,C5*%
X120690580Y-130810000D02*
X120409420Y-130810000D01*
X120690580Y-129790000D02*
X120409420Y-129790000D01*
%TO.C,R25*%
X113737258Y-137372500D02*
X113262742Y-137372500D01*
X113737258Y-136327500D02*
X113262742Y-136327500D01*
%TO.C,C17*%
X117990000Y-140890580D02*
X117990000Y-140609420D01*
X119010000Y-140890580D02*
X119010000Y-140609420D01*
%TO.C,R7*%
X104994500Y-130708742D02*
X104994500Y-131183258D01*
X103949500Y-130708742D02*
X103949500Y-131183258D01*
%TO.C,Q1*%
X122499000Y-122617000D02*
X120824000Y-122617000D01*
X122499000Y-122617000D02*
X123149000Y-122617000D01*
X122499000Y-125737000D02*
X121849000Y-125737000D01*
X122499000Y-125737000D02*
X123149000Y-125737000D01*
%TO.C,J1*%
X103000000Y-107080000D02*
X104800000Y-107080000D01*
X100900000Y-107080000D02*
X99750000Y-107080000D01*
X103000000Y-116420000D02*
X104800000Y-116420000D01*
X100900000Y-116420000D02*
X99750000Y-116420000D01*
%TO.C,R21*%
X117347500Y-128287258D02*
X117347500Y-127812742D01*
X118392500Y-128287258D02*
X118392500Y-127812742D01*
%TO.C,D6*%
X132165000Y-150115000D02*
X132165000Y-151585000D01*
X132165000Y-151585000D02*
X134450000Y-151585000D01*
X134450000Y-150115000D02*
X132165000Y-150115000D01*
%TO.C,R1*%
X112062742Y-120027500D02*
X112537258Y-120027500D01*
X112062742Y-121072500D02*
X112537258Y-121072500D01*
%TO.C,Y1*%
X119350000Y-139600000D02*
X119350000Y-141900000D01*
X119350000Y-141900000D02*
X122050000Y-141900000D01*
%TO.C,C10*%
X135070000Y-124920000D02*
X135070000Y-121680000D01*
X135070000Y-124920000D02*
X124830000Y-124920000D01*
X135070000Y-121680000D02*
X124830000Y-121680000D01*
X124830000Y-124920000D02*
X124830000Y-121680000D01*
%TO.C,C12*%
X138110000Y-136409420D02*
X138110000Y-136690580D01*
X137090000Y-136409420D02*
X137090000Y-136690580D01*
%TO.C,D5*%
X110000000Y-122800000D02*
X110000000Y-121100000D01*
X110000000Y-122800000D02*
X107450000Y-122800000D01*
X110000000Y-121100000D02*
X107450000Y-121100000D01*
%TO.C,C3*%
X135470000Y-136970000D02*
X135470000Y-133730000D01*
X135470000Y-136970000D02*
X125230000Y-136970000D01*
X135470000Y-133730000D02*
X125230000Y-133730000D01*
X125230000Y-136970000D02*
X125230000Y-133730000D01*
%TO.C,Y2*%
X139950000Y-142200000D02*
X142250000Y-142200000D01*
X142250000Y-142200000D02*
X142250000Y-139500000D01*
%TO.C,C4*%
X120811252Y-129235000D02*
X120288748Y-129235000D01*
X120811252Y-127765000D02*
X120288748Y-127765000D01*
%TO.C,C16*%
X138490000Y-140990580D02*
X138490000Y-140709420D01*
X139510000Y-140990580D02*
X139510000Y-140709420D01*
%TO.C,R16*%
X105059742Y-126550500D02*
X105534258Y-126550500D01*
X105059742Y-127595500D02*
X105534258Y-127595500D01*
%TO.C,R12*%
X118746500Y-124085742D02*
X118746500Y-124560258D01*
X117701500Y-124085742D02*
X117701500Y-124560258D01*
%TO.C,C13*%
X122190000Y-137090580D02*
X122190000Y-136809420D01*
X123210000Y-137090580D02*
X123210000Y-136809420D01*
%TO.C,R2*%
X102922500Y-124412742D02*
X102922500Y-124887258D01*
X101877500Y-124412742D02*
X101877500Y-124887258D01*
%TO.C,R17*%
X105597258Y-122522500D02*
X105122742Y-122522500D01*
X105597258Y-121477500D02*
X105122742Y-121477500D01*
%TO.C,R26*%
X113737258Y-142472500D02*
X113262742Y-142472500D01*
X113737258Y-141427500D02*
X113262742Y-141427500D01*
%TO.C,D2*%
X124500000Y-109000000D02*
X124500000Y-107300000D01*
X124500000Y-109000000D02*
X121950000Y-109000000D01*
X124500000Y-107300000D02*
X121950000Y-107300000D01*
%TO.C,C9*%
X144911252Y-127835000D02*
X144388748Y-127835000D01*
X144911252Y-126365000D02*
X144388748Y-126365000D01*
%TO.C,U3*%
X111225000Y-113085000D02*
X113025000Y-113085000D01*
X111225000Y-113085000D02*
X110425000Y-113085000D01*
X111225000Y-109965000D02*
X112025000Y-109965000D01*
X111225000Y-109965000D02*
X110425000Y-109965000D01*
%TO.C,R4*%
X125787258Y-147272500D02*
X125312742Y-147272500D01*
X125787258Y-146227500D02*
X125312742Y-146227500D01*
%TO.C,U4*%
X127840000Y-137840000D02*
X127840000Y-138115000D01*
X127840000Y-138115000D02*
X126150000Y-138115000D01*
X127840000Y-145260000D02*
X127840000Y-144985000D01*
X130600000Y-137840000D02*
X127840000Y-137840000D01*
X130600000Y-137840000D02*
X133360000Y-137840000D01*
X130600000Y-145260000D02*
X127840000Y-145260000D01*
X130600000Y-145260000D02*
X133360000Y-145260000D01*
X133360000Y-137840000D02*
X133360000Y-138115000D01*
X133360000Y-145260000D02*
X133360000Y-144985000D01*
%TO.C,R3*%
X120877500Y-111087258D02*
X120877500Y-110612742D01*
X121922500Y-111087258D02*
X121922500Y-110612742D01*
%TO.C,R13*%
X102351500Y-131205258D02*
X102351500Y-130730742D01*
X103396500Y-131205258D02*
X103396500Y-130730742D01*
%TO.C,C7*%
X144540580Y-129460000D02*
X144259420Y-129460000D01*
X144540580Y-128440000D02*
X144259420Y-128440000D01*
%TO.C,U6*%
X143760000Y-133060000D02*
X141960000Y-133060000D01*
X143760000Y-133060000D02*
X144560000Y-133060000D01*
X143760000Y-136180000D02*
X142960000Y-136180000D01*
X143760000Y-136180000D02*
X144560000Y-136180000D01*
%TO.C,C8*%
X144540580Y-131060000D02*
X144259420Y-131060000D01*
X144540580Y-130040000D02*
X144259420Y-130040000D01*
%TO.C,R15*%
X111362258Y-109472500D02*
X110887742Y-109472500D01*
X111362258Y-108427500D02*
X110887742Y-108427500D01*
%TO.C,C6*%
X120690580Y-132410000D02*
X120409420Y-132410000D01*
X120690580Y-131390000D02*
X120409420Y-131390000D01*
%TO.C,DCDC1*%
X122950000Y-132536600D02*
X124200000Y-132536600D01*
X123250000Y-132236600D02*
X142270000Y-132236600D01*
X142270000Y-132236600D02*
X142270000Y-126426600D01*
X122950000Y-131286600D02*
X122950000Y-132536600D01*
X123250000Y-126426600D02*
X123250000Y-132236600D01*
X142270000Y-126426600D02*
X123250000Y-126426600D01*
%TO.C,C1*%
X110459420Y-132465000D02*
X110740580Y-132465000D01*
X110459420Y-133485000D02*
X110740580Y-133485000D01*
%TO.C,R19*%
X119231500Y-124585258D02*
X119231500Y-124110742D01*
X120276500Y-124585258D02*
X120276500Y-124110742D01*
%TO.C,R11*%
X119762742Y-146227500D02*
X120237258Y-146227500D01*
X119762742Y-147272500D02*
X120237258Y-147272500D01*
%TO.C,U2*%
X122175000Y-115300000D02*
X122175000Y-120100000D01*
X122025000Y-115300000D02*
X122025000Y-113600000D01*
X122025000Y-115300000D02*
X122175000Y-115300000D01*
X118175000Y-115300000D02*
X118325000Y-115300000D01*
X122175000Y-120100000D02*
X122025000Y-120100000D01*
X118325000Y-120100000D02*
X118175000Y-120100000D01*
X118175000Y-120100000D02*
X118175000Y-115300000D01*
%TO.C,R5*%
X102922500Y-121312742D02*
X102922500Y-121787258D01*
X101877500Y-121312742D02*
X101877500Y-121787258D01*
%TO.C,R10*%
X140812742Y-146227500D02*
X141287258Y-146227500D01*
X140812742Y-147272500D02*
X141287258Y-147272500D01*
%TO.C,R22*%
X120312742Y-126227500D02*
X120787258Y-126227500D01*
X120312742Y-127272500D02*
X120787258Y-127272500D01*
%TO.C,D4*%
X119165000Y-150115000D02*
X119165000Y-151585000D01*
X119165000Y-151585000D02*
X121450000Y-151585000D01*
X121450000Y-150115000D02*
X119165000Y-150115000D01*
%TO.C,L1*%
X118500000Y-133550000D02*
X121500000Y-133550000D01*
X118500000Y-136750000D02*
X121500000Y-136750000D01*
%TO.C,R14*%
X112537258Y-122672500D02*
X112062742Y-122672500D01*
X112537258Y-121627500D02*
X112062742Y-121627500D01*
%TO.C,D3*%
X138565000Y-150115000D02*
X138565000Y-151585000D01*
X138565000Y-151585000D02*
X140850000Y-151585000D01*
X140850000Y-150115000D02*
X138565000Y-150115000D01*
%TO.C,U1*%
X110600000Y-131985000D02*
X114050000Y-131985000D01*
X110600000Y-131985000D02*
X108650000Y-131985000D01*
X110600000Y-123115000D02*
X112550000Y-123115000D01*
X110600000Y-123115000D02*
X108650000Y-123115000D01*
%TD*%
%LPC*%
D15*
%TO.C,C11*%
X124300000Y-136175000D03*
X124300000Y-137725000D03*
%TD*%
D16*
%TO.C,SW1*%
X116400000Y-146510000D03*
X109390000Y-146510000D03*
D17*
X115150000Y-149000000D03*
X110650000Y-149000000D03*
%TD*%
D18*
%TO.C,C2*%
X116621000Y-125212000D03*
X116621000Y-123662000D03*
%TD*%
D19*
%TO.C,R8*%
X115100000Y-125275000D03*
X115100000Y-123625000D03*
%TD*%
D20*
%TO.C,J3*%
X148800000Y-136750000D03*
D21*
X148800000Y-134250000D03*
X148800000Y-132250000D03*
X148800000Y-129750000D03*
D22*
X151510000Y-139820000D03*
X151510000Y-126680000D03*
%TD*%
D23*
%TO.C,R6*%
X104475000Y-128650000D03*
X106125000Y-128650000D03*
%TD*%
D19*
%TO.C,R20*%
X116300000Y-128875000D03*
X116300000Y-127225000D03*
%TD*%
D23*
%TO.C,R23*%
X134335000Y-146750000D03*
X135985000Y-146750000D03*
%TD*%
D24*
%TO.C,D1*%
X126362500Y-150850000D03*
X127937500Y-150850000D03*
%TD*%
D25*
%TO.C,U5*%
X112972500Y-138420000D03*
X112972500Y-139370000D03*
X112972500Y-140320000D03*
X115247500Y-140320000D03*
X115247500Y-139370000D03*
X115247500Y-138420000D03*
%TD*%
D26*
%TO.C,R18*%
X111925000Y-114050000D03*
X110275000Y-114050000D03*
%TD*%
D18*
%TO.C,C15*%
X122900000Y-141525000D03*
X122900000Y-139975000D03*
%TD*%
%TO.C,C14*%
X139200000Y-137325000D03*
X139200000Y-135775000D03*
%TD*%
D27*
%TO.C,J2*%
X105605000Y-136060000D03*
X105605000Y-141840000D03*
D28*
X106680000Y-135750000D03*
X106680000Y-136550000D03*
D29*
X106680000Y-137700000D03*
X106680000Y-138700000D03*
X106680000Y-139200000D03*
X106680000Y-140200000D03*
D28*
X106680000Y-141350000D03*
X106680000Y-142150000D03*
X106680000Y-142150000D03*
X106680000Y-141350000D03*
D29*
X106680000Y-140700000D03*
X106680000Y-139700000D03*
X106680000Y-138200000D03*
X106680000Y-137200000D03*
D28*
X106680000Y-136550000D03*
X106680000Y-135750000D03*
D30*
X106105000Y-134630000D03*
D31*
X101925000Y-134630000D03*
D30*
X106105000Y-143270000D03*
D31*
X101925000Y-143270000D03*
%TD*%
D32*
%TO.C,H3*%
X157000000Y-149100000D03*
%TD*%
D15*
%TO.C,C18*%
X143200000Y-140075000D03*
X143200000Y-141625000D03*
%TD*%
D23*
%TO.C,R9*%
X119075000Y-137850000D03*
X120725000Y-137850000D03*
%TD*%
D33*
%TO.C,C5*%
X121325000Y-130300000D03*
X119775000Y-130300000D03*
%TD*%
D32*
%TO.C,H2*%
X157000000Y-103000000D03*
%TD*%
D26*
%TO.C,R25*%
X114325000Y-136850000D03*
X112675000Y-136850000D03*
%TD*%
D18*
%TO.C,C17*%
X118500000Y-141525000D03*
X118500000Y-139975000D03*
%TD*%
D34*
%TO.C,R7*%
X104472000Y-130121000D03*
X104472000Y-131771000D03*
%TD*%
D35*
%TO.C,Q1*%
X121561500Y-123227000D03*
X121561500Y-125127000D03*
X123436500Y-124177000D03*
%TD*%
D27*
%TO.C,J1*%
X105605000Y-108860000D03*
X105605000Y-114640000D03*
D28*
X106680000Y-108550000D03*
X106680000Y-109350000D03*
D29*
X106680000Y-110500000D03*
X106680000Y-111500000D03*
X106680000Y-112000000D03*
X106680000Y-113000000D03*
D28*
X106680000Y-114150000D03*
X106680000Y-114950000D03*
X106680000Y-114950000D03*
X106680000Y-114150000D03*
D29*
X106680000Y-113500000D03*
X106680000Y-112500000D03*
X106680000Y-111000000D03*
X106680000Y-110000000D03*
D28*
X106680000Y-109350000D03*
X106680000Y-108550000D03*
D30*
X106105000Y-107430000D03*
D31*
X101925000Y-107430000D03*
D30*
X106105000Y-116070000D03*
D31*
X101925000Y-116070000D03*
%TD*%
D19*
%TO.C,R21*%
X117870000Y-128875000D03*
X117870000Y-127225000D03*
%TD*%
D24*
%TO.C,D6*%
X132862500Y-150850000D03*
X134437500Y-150850000D03*
%TD*%
D23*
%TO.C,R1*%
X111475000Y-120550000D03*
X113125000Y-120550000D03*
%TD*%
D36*
%TO.C,Y1*%
X120000000Y-141300000D03*
X121400000Y-141300000D03*
X121400000Y-140200000D03*
X120000000Y-140200000D03*
%TD*%
D37*
%TO.C,C10*%
X133700000Y-123300000D03*
X126200000Y-123300000D03*
%TD*%
D15*
%TO.C,C12*%
X137600000Y-135775000D03*
X137600000Y-137325000D03*
%TD*%
D38*
%TO.C,D5*%
X109550000Y-121950000D03*
X107450000Y-121950000D03*
%TD*%
D37*
%TO.C,C3*%
X134100000Y-135350000D03*
X126600000Y-135350000D03*
%TD*%
D39*
%TO.C,Y2*%
X141650000Y-141550000D03*
X141650000Y-140150000D03*
X140550000Y-140150000D03*
X140550000Y-141550000D03*
%TD*%
D40*
%TO.C,C4*%
X121500000Y-128500000D03*
X119600000Y-128500000D03*
%TD*%
D18*
%TO.C,C16*%
X139000000Y-141625000D03*
X139000000Y-140075000D03*
%TD*%
D23*
%TO.C,R16*%
X104472000Y-127073000D03*
X106122000Y-127073000D03*
%TD*%
D34*
%TO.C,R12*%
X118224000Y-123498000D03*
X118224000Y-125148000D03*
%TD*%
D18*
%TO.C,C13*%
X122700000Y-137725000D03*
X122700000Y-136175000D03*
%TD*%
D34*
%TO.C,R2*%
X102400000Y-123825000D03*
X102400000Y-125475000D03*
%TD*%
D26*
%TO.C,R17*%
X106185000Y-122000000D03*
X104535000Y-122000000D03*
%TD*%
%TO.C,R26*%
X114325000Y-141950000D03*
X112675000Y-141950000D03*
%TD*%
D38*
%TO.C,D2*%
X124050000Y-108150000D03*
X121950000Y-108150000D03*
%TD*%
D32*
%TO.C,H1*%
X103000000Y-149000000D03*
%TD*%
D40*
%TO.C,C9*%
X145600000Y-127100000D03*
X143700000Y-127100000D03*
%TD*%
D41*
%TO.C,U3*%
X112362500Y-112475000D03*
X112362500Y-111525000D03*
X112362500Y-110575000D03*
X110087500Y-110575000D03*
X110087500Y-111525000D03*
X110087500Y-112475000D03*
%TD*%
D26*
%TO.C,R4*%
X126375000Y-146750000D03*
X124725000Y-146750000D03*
%TD*%
D42*
%TO.C,U4*%
X127100000Y-138625000D03*
X127100000Y-139275000D03*
X127100000Y-139925000D03*
X127100000Y-140575000D03*
X127100000Y-141225000D03*
X127100000Y-141875000D03*
X127100000Y-142525000D03*
X127100000Y-143175000D03*
X127100000Y-143825000D03*
X127100000Y-144475000D03*
X134100000Y-144475000D03*
X134100000Y-143825000D03*
X134100000Y-143175000D03*
X134100000Y-142525000D03*
X134100000Y-141875000D03*
X134100000Y-141225000D03*
X134100000Y-140575000D03*
X134100000Y-139925000D03*
X134100000Y-139275000D03*
X134100000Y-138625000D03*
%TD*%
D19*
%TO.C,R3*%
X121400000Y-111675000D03*
X121400000Y-110025000D03*
%TD*%
%TO.C,R13*%
X102874000Y-131793000D03*
X102874000Y-130143000D03*
%TD*%
D33*
%TO.C,C7*%
X145175000Y-128950000D03*
X143625000Y-128950000D03*
%TD*%
D25*
%TO.C,U6*%
X142622500Y-133670000D03*
X142622500Y-134620000D03*
X142622500Y-135570000D03*
X144897500Y-135570000D03*
X144897500Y-134620000D03*
X144897500Y-133670000D03*
%TD*%
D33*
%TO.C,C8*%
X145175000Y-130550000D03*
X143625000Y-130550000D03*
%TD*%
D26*
%TO.C,R15*%
X111950000Y-108950000D03*
X110300000Y-108950000D03*
%TD*%
D33*
%TO.C,C6*%
X121325000Y-131900000D03*
X119775000Y-131900000D03*
%TD*%
D43*
%TO.C,DCDC1*%
X124890000Y-127936600D03*
D44*
X127430000Y-127936600D03*
X132510000Y-127936600D03*
X135050000Y-127936600D03*
X137590000Y-127936600D03*
X140120000Y-127936600D03*
%TD*%
D45*
%TO.C,C1*%
X109825000Y-132975000D03*
X111375000Y-132975000D03*
%TD*%
D19*
%TO.C,R19*%
X119754000Y-125173000D03*
X119754000Y-123523000D03*
%TD*%
D23*
%TO.C,R11*%
X119175000Y-146750000D03*
X120825000Y-146750000D03*
%TD*%
D46*
%TO.C,U2*%
X121445000Y-114550000D03*
X118905000Y-114550000D03*
X118905000Y-120850000D03*
X121445000Y-120850000D03*
%TD*%
D34*
%TO.C,R5*%
X102400000Y-120725000D03*
X102400000Y-122375000D03*
%TD*%
D23*
%TO.C,R10*%
X140225000Y-146750000D03*
X141875000Y-146750000D03*
%TD*%
%TO.C,R22*%
X119725000Y-126750000D03*
X121375000Y-126750000D03*
%TD*%
D24*
%TO.C,D4*%
X119862500Y-150850000D03*
X121437500Y-150850000D03*
%TD*%
D47*
%TO.C,L1*%
X118900000Y-135150000D03*
X121100000Y-135150000D03*
%TD*%
D26*
%TO.C,R14*%
X113125000Y-122150000D03*
X111475000Y-122150000D03*
%TD*%
D24*
%TO.C,D3*%
X139262500Y-150850000D03*
X140837500Y-150850000D03*
%TD*%
D48*
%TO.C,U1*%
X113075000Y-131360000D03*
X113075000Y-130090000D03*
X113075000Y-128820000D03*
X113075000Y-127550000D03*
X113075000Y-126280000D03*
X113075000Y-125010000D03*
X113075000Y-123740000D03*
X108125000Y-123740000D03*
X108125000Y-125010000D03*
X108125000Y-126280000D03*
X108125000Y-127550000D03*
X108125000Y-128820000D03*
X108125000Y-130090000D03*
X108125000Y-131360000D03*
%TD*%
D32*
%TO.C,H4*%
X103000000Y-103000000D03*
%TD*%
%LPD*%
M02*
