%TF.GenerationSoftware,KiCad,Pcbnew,7.0.9*%
%TF.CreationDate,2023-12-12T13:04:41+02:00*%
%TF.ProjectId,ADuM3165_USB_ISOLATION,4144754d-3331-4363-955f-5553425f4953,rev?*%
%TF.SameCoordinates,Original*%
%TF.FileFunction,Soldermask,Top*%
%TF.FilePolarity,Negative*%
%FSLAX46Y46*%
G04 Gerber Fmt 4.6, Leading zero omitted, Abs format (unit mm)*
G04 Created by KiCad (PCBNEW 7.0.9) date 2023-12-12 13:04:41*
%MOMM*%
%LPD*%
G01*
G04 APERTURE LIST*
G04 Aperture macros list*
%AMRoundRect*
0 Rectangle with rounded corners*
0 $1 Rounding radius*
0 $2 $3 $4 $5 $6 $7 $8 $9 X,Y pos of 4 corners*
0 Add a 4 corners polygon primitive as box body*
4,1,4,$2,$3,$4,$5,$6,$7,$8,$9,$2,$3,0*
0 Add four circle primitives for the rounded corners*
1,1,$1+$1,$2,$3*
1,1,$1+$1,$4,$5*
1,1,$1+$1,$6,$7*
1,1,$1+$1,$8,$9*
0 Add four rect primitives between the rounded corners*
20,1,$1+$1,$2,$3,$4,$5,0*
20,1,$1+$1,$4,$5,$6,$7,0*
20,1,$1+$1,$6,$7,$8,$9,0*
20,1,$1+$1,$8,$9,$2,$3,0*%
G04 Aperture macros list end*
%ADD10RoundRect,0.225000X-0.250000X0.225000X-0.250000X-0.225000X0.250000X-0.225000X0.250000X0.225000X0*%
%ADD11C,2.100000*%
%ADD12C,1.750000*%
%ADD13RoundRect,0.225000X0.250000X-0.225000X0.250000X0.225000X-0.250000X0.225000X-0.250000X-0.225000X0*%
%ADD14RoundRect,0.200000X0.275000X-0.200000X0.275000X0.200000X-0.275000X0.200000X-0.275000X-0.200000X0*%
%ADD15R,1.524000X1.524000*%
%ADD16C,1.524000*%
%ADD17C,3.500000*%
%ADD18RoundRect,0.200000X-0.200000X-0.275000X0.200000X-0.275000X0.200000X0.275000X-0.200000X0.275000X0*%
%ADD19RoundRect,0.218750X-0.218750X-0.256250X0.218750X-0.256250X0.218750X0.256250X-0.218750X0.256250X0*%
%ADD20RoundRect,0.150000X-0.512500X-0.150000X0.512500X-0.150000X0.512500X0.150000X-0.512500X0.150000X0*%
%ADD21RoundRect,0.200000X0.200000X0.275000X-0.200000X0.275000X-0.200000X-0.275000X0.200000X-0.275000X0*%
%ADD22C,0.650000*%
%ADD23R,1.150000X0.600000*%
%ADD24R,1.150000X0.300000*%
%ADD25O,2.100000X1.000000*%
%ADD26O,1.800000X1.000000*%
%ADD27C,3.200000*%
%ADD28RoundRect,0.225000X0.225000X0.250000X-0.225000X0.250000X-0.225000X-0.250000X0.225000X-0.250000X0*%
%ADD29RoundRect,0.200000X-0.275000X0.200000X-0.275000X-0.200000X0.275000X-0.200000X0.275000X0.200000X0*%
%ADD30RoundRect,0.150000X-0.587500X-0.150000X0.587500X-0.150000X0.587500X0.150000X-0.587500X0.150000X0*%
%ADD31R,0.900000X0.800000*%
%ADD32C,2.000000*%
%ADD33R,0.600000X0.450000*%
%ADD34R,0.800000X0.900000*%
%ADD35RoundRect,0.250000X0.250000X0.475000X-0.250000X0.475000X-0.250000X-0.475000X0.250000X-0.475000X0*%
%ADD36RoundRect,0.150000X0.512500X0.150000X-0.512500X0.150000X-0.512500X-0.150000X0.512500X-0.150000X0*%
%ADD37RoundRect,0.125000X-0.825000X-0.125000X0.825000X-0.125000X0.825000X0.125000X-0.825000X0.125000X0*%
%ADD38R,1.850000X1.850000*%
%ADD39C,1.850000*%
%ADD40RoundRect,0.225000X-0.225000X-0.250000X0.225000X-0.250000X0.225000X0.250000X-0.225000X0.250000X0*%
%ADD41R,0.640000X2.000000*%
%ADD42R,0.800000X2.700000*%
%ADD43RoundRect,0.150000X0.825000X0.150000X-0.825000X0.150000X-0.825000X-0.150000X0.825000X-0.150000X0*%
G04 APERTURE END LIST*
D10*
%TO.C,C11*%
X124300000Y-136175000D03*
X124300000Y-137725000D03*
%TD*%
D11*
%TO.C,SW1*%
X116400000Y-146510000D03*
X109390000Y-146510000D03*
D12*
X115150000Y-149000000D03*
X110650000Y-149000000D03*
%TD*%
D13*
%TO.C,C2*%
X116621000Y-125212000D03*
X116621000Y-123662000D03*
%TD*%
D14*
%TO.C,R8*%
X115100000Y-125275000D03*
X115100000Y-123625000D03*
%TD*%
D15*
%TO.C,J3*%
X148800000Y-136750000D03*
D16*
X148800000Y-134250000D03*
X148800000Y-132250000D03*
X148800000Y-129750000D03*
D17*
X151510000Y-139820000D03*
X151510000Y-126680000D03*
%TD*%
D18*
%TO.C,R6*%
X104475000Y-128650000D03*
X106125000Y-128650000D03*
%TD*%
D14*
%TO.C,R20*%
X116300000Y-128875000D03*
X116300000Y-127225000D03*
%TD*%
D18*
%TO.C,R23*%
X134335000Y-146750000D03*
X135985000Y-146750000D03*
%TD*%
D19*
%TO.C,D1*%
X126362500Y-150850000D03*
X127937500Y-150850000D03*
%TD*%
D20*
%TO.C,U5*%
X112972500Y-138420000D03*
X112972500Y-139370000D03*
X112972500Y-140320000D03*
X115247500Y-140320000D03*
X115247500Y-139370000D03*
X115247500Y-138420000D03*
%TD*%
D21*
%TO.C,R18*%
X111925000Y-114050000D03*
X110275000Y-114050000D03*
%TD*%
D13*
%TO.C,C15*%
X122900000Y-141525000D03*
X122900000Y-139975000D03*
%TD*%
%TO.C,C14*%
X139200000Y-137325000D03*
X139200000Y-135775000D03*
%TD*%
D22*
%TO.C,J2*%
X105605000Y-136060000D03*
X105605000Y-141840000D03*
D23*
X106680000Y-135750000D03*
X106680000Y-136550000D03*
D24*
X106680000Y-137700000D03*
X106680000Y-138700000D03*
X106680000Y-139200000D03*
X106680000Y-140200000D03*
D23*
X106680000Y-141350000D03*
X106680000Y-142150000D03*
X106680000Y-142150000D03*
X106680000Y-141350000D03*
D24*
X106680000Y-140700000D03*
X106680000Y-139700000D03*
X106680000Y-138200000D03*
X106680000Y-137200000D03*
D23*
X106680000Y-136550000D03*
X106680000Y-135750000D03*
D25*
X106105000Y-134630000D03*
D26*
X101925000Y-134630000D03*
D25*
X106105000Y-143270000D03*
D26*
X101925000Y-143270000D03*
%TD*%
D27*
%TO.C,H3*%
X157000000Y-149100000D03*
%TD*%
D10*
%TO.C,C18*%
X143200000Y-140075000D03*
X143200000Y-141625000D03*
%TD*%
D18*
%TO.C,R9*%
X119075000Y-137850000D03*
X120725000Y-137850000D03*
%TD*%
D28*
%TO.C,C5*%
X121325000Y-130300000D03*
X119775000Y-130300000D03*
%TD*%
D27*
%TO.C,H2*%
X157000000Y-103000000D03*
%TD*%
D21*
%TO.C,R25*%
X114325000Y-136850000D03*
X112675000Y-136850000D03*
%TD*%
D13*
%TO.C,C17*%
X118500000Y-141525000D03*
X118500000Y-139975000D03*
%TD*%
D29*
%TO.C,R7*%
X104472000Y-130121000D03*
X104472000Y-131771000D03*
%TD*%
D30*
%TO.C,Q1*%
X121561500Y-123227000D03*
X121561500Y-125127000D03*
X123436500Y-124177000D03*
%TD*%
D22*
%TO.C,J1*%
X105605000Y-108860000D03*
X105605000Y-114640000D03*
D23*
X106680000Y-108550000D03*
X106680000Y-109350000D03*
D24*
X106680000Y-110500000D03*
X106680000Y-111500000D03*
X106680000Y-112000000D03*
X106680000Y-113000000D03*
D23*
X106680000Y-114150000D03*
X106680000Y-114950000D03*
X106680000Y-114950000D03*
X106680000Y-114150000D03*
D24*
X106680000Y-113500000D03*
X106680000Y-112500000D03*
X106680000Y-111000000D03*
X106680000Y-110000000D03*
D23*
X106680000Y-109350000D03*
X106680000Y-108550000D03*
D25*
X106105000Y-107430000D03*
D26*
X101925000Y-107430000D03*
D25*
X106105000Y-116070000D03*
D26*
X101925000Y-116070000D03*
%TD*%
D14*
%TO.C,R21*%
X117870000Y-128875000D03*
X117870000Y-127225000D03*
%TD*%
D19*
%TO.C,D6*%
X132862500Y-150850000D03*
X134437500Y-150850000D03*
%TD*%
D18*
%TO.C,R1*%
X111475000Y-120550000D03*
X113125000Y-120550000D03*
%TD*%
D31*
%TO.C,Y1*%
X120000000Y-141300000D03*
X121400000Y-141300000D03*
X121400000Y-140200000D03*
X120000000Y-140200000D03*
%TD*%
D32*
%TO.C,C10*%
X133700000Y-123300000D03*
X126200000Y-123300000D03*
%TD*%
D10*
%TO.C,C12*%
X137600000Y-135775000D03*
X137600000Y-137325000D03*
%TD*%
D33*
%TO.C,D5*%
X109550000Y-121950000D03*
X107450000Y-121950000D03*
%TD*%
D32*
%TO.C,C3*%
X134100000Y-135350000D03*
X126600000Y-135350000D03*
%TD*%
D34*
%TO.C,Y2*%
X141650000Y-141550000D03*
X141650000Y-140150000D03*
X140550000Y-140150000D03*
X140550000Y-141550000D03*
%TD*%
D35*
%TO.C,C4*%
X121500000Y-128500000D03*
X119600000Y-128500000D03*
%TD*%
D13*
%TO.C,C16*%
X139000000Y-141625000D03*
X139000000Y-140075000D03*
%TD*%
D18*
%TO.C,R16*%
X104472000Y-127073000D03*
X106122000Y-127073000D03*
%TD*%
D29*
%TO.C,R12*%
X118224000Y-123498000D03*
X118224000Y-125148000D03*
%TD*%
D13*
%TO.C,C13*%
X122700000Y-137725000D03*
X122700000Y-136175000D03*
%TD*%
D29*
%TO.C,R2*%
X102400000Y-123825000D03*
X102400000Y-125475000D03*
%TD*%
D21*
%TO.C,R17*%
X106185000Y-122000000D03*
X104535000Y-122000000D03*
%TD*%
%TO.C,R26*%
X114325000Y-141950000D03*
X112675000Y-141950000D03*
%TD*%
D33*
%TO.C,D2*%
X124050000Y-108150000D03*
X121950000Y-108150000D03*
%TD*%
D27*
%TO.C,H1*%
X103000000Y-149000000D03*
%TD*%
D35*
%TO.C,C9*%
X145600000Y-127100000D03*
X143700000Y-127100000D03*
%TD*%
D36*
%TO.C,U3*%
X112362500Y-112475000D03*
X112362500Y-111525000D03*
X112362500Y-110575000D03*
X110087500Y-110575000D03*
X110087500Y-111525000D03*
X110087500Y-112475000D03*
%TD*%
D21*
%TO.C,R4*%
X126375000Y-146750000D03*
X124725000Y-146750000D03*
%TD*%
D37*
%TO.C,U4*%
X127100000Y-138625000D03*
X127100000Y-139275000D03*
X127100000Y-139925000D03*
X127100000Y-140575000D03*
X127100000Y-141225000D03*
X127100000Y-141875000D03*
X127100000Y-142525000D03*
X127100000Y-143175000D03*
X127100000Y-143825000D03*
X127100000Y-144475000D03*
X134100000Y-144475000D03*
X134100000Y-143825000D03*
X134100000Y-143175000D03*
X134100000Y-142525000D03*
X134100000Y-141875000D03*
X134100000Y-141225000D03*
X134100000Y-140575000D03*
X134100000Y-139925000D03*
X134100000Y-139275000D03*
X134100000Y-138625000D03*
%TD*%
D14*
%TO.C,R3*%
X121400000Y-111675000D03*
X121400000Y-110025000D03*
%TD*%
%TO.C,R13*%
X102874000Y-131793000D03*
X102874000Y-130143000D03*
%TD*%
D28*
%TO.C,C7*%
X145175000Y-128950000D03*
X143625000Y-128950000D03*
%TD*%
D20*
%TO.C,U6*%
X142622500Y-133670000D03*
X142622500Y-134620000D03*
X142622500Y-135570000D03*
X144897500Y-135570000D03*
X144897500Y-134620000D03*
X144897500Y-133670000D03*
%TD*%
D28*
%TO.C,C8*%
X145175000Y-130550000D03*
X143625000Y-130550000D03*
%TD*%
D21*
%TO.C,R15*%
X111950000Y-108950000D03*
X110300000Y-108950000D03*
%TD*%
D28*
%TO.C,C6*%
X121325000Y-131900000D03*
X119775000Y-131900000D03*
%TD*%
D38*
%TO.C,DCDC1*%
X124890000Y-127936600D03*
D39*
X127430000Y-127936600D03*
X132510000Y-127936600D03*
X135050000Y-127936600D03*
X137590000Y-127936600D03*
X140120000Y-127936600D03*
%TD*%
D40*
%TO.C,C1*%
X109825000Y-132975000D03*
X111375000Y-132975000D03*
%TD*%
D14*
%TO.C,R19*%
X119754000Y-125173000D03*
X119754000Y-123523000D03*
%TD*%
D18*
%TO.C,R11*%
X119175000Y-146750000D03*
X120825000Y-146750000D03*
%TD*%
D41*
%TO.C,U2*%
X121445000Y-114550000D03*
X118905000Y-114550000D03*
X118905000Y-120850000D03*
X121445000Y-120850000D03*
%TD*%
D29*
%TO.C,R5*%
X102400000Y-120725000D03*
X102400000Y-122375000D03*
%TD*%
D18*
%TO.C,R10*%
X140225000Y-146750000D03*
X141875000Y-146750000D03*
%TD*%
%TO.C,R22*%
X119725000Y-126750000D03*
X121375000Y-126750000D03*
%TD*%
D19*
%TO.C,D4*%
X119862500Y-150850000D03*
X121437500Y-150850000D03*
%TD*%
D42*
%TO.C,L1*%
X118900000Y-135150000D03*
X121100000Y-135150000D03*
%TD*%
D21*
%TO.C,R14*%
X113125000Y-122150000D03*
X111475000Y-122150000D03*
%TD*%
D19*
%TO.C,D3*%
X139262500Y-150850000D03*
X140837500Y-150850000D03*
%TD*%
D43*
%TO.C,U1*%
X113075000Y-131360000D03*
X113075000Y-130090000D03*
X113075000Y-128820000D03*
X113075000Y-127550000D03*
X113075000Y-126280000D03*
X113075000Y-125010000D03*
X113075000Y-123740000D03*
X108125000Y-123740000D03*
X108125000Y-125010000D03*
X108125000Y-126280000D03*
X108125000Y-127550000D03*
X108125000Y-128820000D03*
X108125000Y-130090000D03*
X108125000Y-131360000D03*
%TD*%
D27*
%TO.C,H4*%
X103000000Y-103000000D03*
%TD*%
M02*
