%TF.GenerationSoftware,KiCad,Pcbnew,7.0.9*%
%TF.CreationDate,2023-12-12T13:04:40+02:00*%
%TF.ProjectId,ADuM3165_USB_ISOLATION,4144754d-3331-4363-955f-5553425f4953,rev?*%
%TF.SameCoordinates,Original*%
%TF.FileFunction,Copper,L2,Bot*%
%TF.FilePolarity,Positive*%
%FSLAX46Y46*%
G04 Gerber Fmt 4.6, Leading zero omitted, Abs format (unit mm)*
G04 Created by KiCad (PCBNEW 7.0.9) date 2023-12-12 13:04:40*
%MOMM*%
%LPD*%
G01*
G04 APERTURE LIST*
%TA.AperFunction,ComponentPad*%
%ADD10C,2.100000*%
%TD*%
%TA.AperFunction,ComponentPad*%
%ADD11C,1.750000*%
%TD*%
%TA.AperFunction,ComponentPad*%
%ADD12R,1.524000X1.524000*%
%TD*%
%TA.AperFunction,ComponentPad*%
%ADD13C,1.524000*%
%TD*%
%TA.AperFunction,ComponentPad*%
%ADD14C,3.500000*%
%TD*%
%TA.AperFunction,ComponentPad*%
%ADD15O,2.100000X1.000000*%
%TD*%
%TA.AperFunction,ComponentPad*%
%ADD16O,1.800000X1.000000*%
%TD*%
%TA.AperFunction,ComponentPad*%
%ADD17C,2.000000*%
%TD*%
%TA.AperFunction,ComponentPad*%
%ADD18R,1.850000X1.850000*%
%TD*%
%TA.AperFunction,ComponentPad*%
%ADD19C,1.850000*%
%TD*%
%TA.AperFunction,ViaPad*%
%ADD20C,0.800000*%
%TD*%
%TA.AperFunction,Conductor*%
%ADD21C,0.300000*%
%TD*%
%TA.AperFunction,Conductor*%
%ADD22C,0.500000*%
%TD*%
%TA.AperFunction,Conductor*%
%ADD23C,0.600000*%
%TD*%
%TA.AperFunction,Conductor*%
%ADD24C,0.800000*%
%TD*%
%TA.AperFunction,Conductor*%
%ADD25C,0.400000*%
%TD*%
%TA.AperFunction,Conductor*%
%ADD26C,1.000000*%
%TD*%
G04 APERTURE END LIST*
D10*
%TO.P,SW1,*%
%TO.N,*%
X116400000Y-146510000D03*
X109390000Y-146510000D03*
D11*
%TO.P,SW1,1,1*%
%TO.N,GND1*%
X115150000Y-149000000D03*
%TO.P,SW1,2,2*%
%TO.N,Net-(D5-A)*%
X110650000Y-149000000D03*
%TD*%
D12*
%TO.P,J3,1,VBUS*%
%TO.N,VDDA*%
X148800000Y-136750000D03*
D13*
%TO.P,J3,2,D-*%
%TO.N,Net-(J3-D-)*%
X148800000Y-134250000D03*
%TO.P,J3,3,D+*%
%TO.N,Net-(J3-D+)*%
X148800000Y-132250000D03*
%TO.P,J3,4,GND*%
%TO.N,GND2*%
X148800000Y-129750000D03*
D14*
%TO.P,J3,5,Shield*%
X151510000Y-139820000D03*
X151510000Y-126680000D03*
%TD*%
D15*
%TO.P,J2,S1,SHIELD*%
%TO.N,GND1*%
X106105000Y-134630000D03*
D16*
X101925000Y-134630000D03*
D15*
X106105000Y-143270000D03*
D16*
X101925000Y-143270000D03*
%TD*%
D15*
%TO.P,J1,S1,SHIELD*%
%TO.N,GND2*%
X106105000Y-107430000D03*
D16*
X101925000Y-107430000D03*
D15*
X106105000Y-116070000D03*
D16*
X101925000Y-116070000D03*
%TD*%
D17*
%TO.P,C10,1*%
%TO.N,GND2*%
X133700000Y-123300000D03*
%TO.P,C10,2*%
%TO.N,Net-(DCDC1--Vin)*%
X126200000Y-123300000D03*
%TD*%
%TO.P,C3,1*%
%TO.N,VDDA*%
X134100000Y-135350000D03*
%TO.P,C3,2*%
%TO.N,Net-(DCDC1-+Vin)*%
X126600000Y-135350000D03*
%TD*%
D18*
%TO.P,DCDC1,1,+Vin*%
%TO.N,Net-(DCDC1-+Vin)*%
X124890000Y-127936600D03*
D19*
%TO.P,DCDC1,2,-Vin*%
%TO.N,Net-(DCDC1--Vin)*%
X127430000Y-127936600D03*
%TO.P,DCDC1,4,-Vout*%
%TO.N,GND2*%
X132510000Y-127936600D03*
%TO.P,DCDC1,5,-Vout*%
X135050000Y-127936600D03*
%TO.P,DCDC1,6,+Vout*%
%TO.N,VDDA*%
X137590000Y-127936600D03*
%TO.P,DCDC1,7,+Vout*%
X140120000Y-127936600D03*
%TD*%
D20*
%TO.N,GND1*%
X117800000Y-137900000D03*
X121600000Y-139000000D03*
X124200000Y-122450000D03*
X102000000Y-136250000D03*
X118375000Y-147834000D03*
X124175000Y-141550000D03*
X106650000Y-149500000D03*
X117100000Y-133550000D03*
X115700000Y-141950000D03*
X127900000Y-145550000D03*
X101000000Y-120750000D03*
X108700000Y-119350000D03*
X109000000Y-143850000D03*
X121600000Y-144850000D03*
X101900000Y-139000000D03*
X128700000Y-141450000D03*
X109500000Y-135050000D03*
X116500000Y-119250000D03*
X117900000Y-130050000D03*
X108600000Y-132750000D03*
X103495000Y-133102000D03*
X113800000Y-133450000D03*
X123150000Y-119350000D03*
X116300000Y-130050000D03*
X115800000Y-136850000D03*
X115300000Y-131550000D03*
X128100000Y-133150000D03*
X110400000Y-139400000D03*
X101900000Y-141850000D03*
X123500000Y-134950000D03*
X124300000Y-150100000D03*
%TO.N,VDD*%
X116750000Y-139400000D03*
X118900000Y-133075000D03*
X110700000Y-136450000D03*
X110700000Y-142350000D03*
X103900000Y-125850000D03*
X110600000Y-126750000D03*
X114900000Y-121350000D03*
X123400000Y-145250000D03*
X125425000Y-137625000D03*
%TO.N,VDDA*%
X135150000Y-137500000D03*
X146150000Y-134000000D03*
X143700000Y-131850000D03*
%TO.N,GND2*%
X144700000Y-148600000D03*
X157800000Y-126950000D03*
X144800000Y-104850000D03*
X132350000Y-139600000D03*
X132100000Y-133250000D03*
X127200000Y-114150000D03*
X107900000Y-102850000D03*
X156800000Y-135150000D03*
X113000000Y-114150000D03*
X137700000Y-141650000D03*
X113650000Y-111500000D03*
X115800000Y-115950000D03*
X119500000Y-105950000D03*
X142400000Y-115950000D03*
X150700000Y-117750000D03*
X135900000Y-145000000D03*
X134000000Y-108750000D03*
X139700000Y-122050000D03*
X156700000Y-141950000D03*
X132500000Y-118150000D03*
X136900000Y-149750000D03*
X157400000Y-115850000D03*
X113100000Y-108950000D03*
X103000000Y-111850000D03*
X149900000Y-110050000D03*
X131900000Y-148000000D03*
X151900000Y-133550000D03*
%TO.N,Net-(D2-A)*%
X108600000Y-111550000D03*
X139000000Y-146700000D03*
X108600000Y-108050000D03*
X108600000Y-114650000D03*
%TO.N,Net-(D5-A)*%
X105019000Y-119513000D03*
%TO.N,Net-(U4-UD-)*%
X105400000Y-138750000D03*
X109600000Y-140350000D03*
%TO.N,Net-(J3-D+)*%
X147400000Y-140250000D03*
%TO.N,Net-(Q1-G)*%
X102225000Y-128403000D03*
X120450000Y-120550000D03*
X110120000Y-120550000D03*
X106300000Y-120450000D03*
%TO.N,Net-(U1D--)*%
X123550000Y-146750000D03*
X109800000Y-123650000D03*
X103500000Y-122150000D03*
X106162000Y-130633500D03*
%TO.N,Net-(U4-PGOOD)*%
X132400000Y-142450000D03*
X132700000Y-145950000D03*
%TD*%
D21*
%TO.N,Net-(U4-UD-)*%
X108000000Y-138750000D02*
X109600000Y-140350000D01*
X105400000Y-138750000D02*
X108000000Y-138750000D01*
D22*
%TO.N,VDD*%
X119050000Y-138400000D02*
X118050000Y-139400000D01*
D23*
X112300000Y-139350000D02*
X112300000Y-137250000D01*
X110700000Y-142350000D02*
X111200000Y-142350000D01*
X112300000Y-137250000D02*
X111500000Y-136450000D01*
X112300000Y-141250000D02*
X112300000Y-139350000D01*
X111200000Y-142350000D02*
X112300000Y-141250000D01*
D21*
X123400000Y-142750000D02*
X119050000Y-138400000D01*
D22*
X118050000Y-139400000D02*
X116750000Y-139400000D01*
X112350000Y-139400000D02*
X112300000Y-139350000D01*
D24*
X114900000Y-124875000D02*
X118900000Y-128875000D01*
D21*
X123400000Y-145250000D02*
X123400000Y-142750000D01*
D23*
X111500000Y-136450000D02*
X110700000Y-136450000D01*
D22*
X110600000Y-126750000D02*
X104800000Y-126750000D01*
D24*
X114900000Y-121350000D02*
X114900000Y-124875000D01*
D22*
X119825000Y-137625000D02*
X119050000Y-138400000D01*
X116750000Y-139400000D02*
X112350000Y-139400000D01*
D24*
X118900000Y-128875000D02*
X118900000Y-133075000D01*
D22*
X125425000Y-137625000D02*
X119825000Y-137625000D01*
X104800000Y-126750000D02*
X103900000Y-125850000D01*
D21*
%TO.N,VDDA*%
X135950000Y-136700000D02*
X135150000Y-137500000D01*
D25*
X146150000Y-134000000D02*
X144000000Y-134000000D01*
D26*
X143700000Y-136700000D02*
X143700000Y-133700000D01*
X148750000Y-136700000D02*
X148800000Y-136750000D01*
X143700000Y-136700000D02*
X148750000Y-136700000D01*
X143700000Y-133700000D02*
X143700000Y-131850000D01*
D25*
X144000000Y-134000000D02*
X143700000Y-133700000D01*
D21*
X143700000Y-136700000D02*
X135950000Y-136700000D01*
D22*
%TO.N,Net-(D2-A)*%
X154900000Y-125250000D02*
X151400000Y-121750000D01*
X151400000Y-121750000D02*
X142700000Y-121750000D01*
X142700000Y-121750000D02*
X129300000Y-108350000D01*
X109300000Y-106650000D02*
X108600000Y-107350000D01*
X154900000Y-143750000D02*
X154900000Y-125250000D01*
X139000000Y-146700000D02*
X151950000Y-146700000D01*
X117800000Y-108350000D02*
X116100000Y-106650000D01*
X151950000Y-146700000D02*
X154900000Y-143750000D01*
X108600000Y-107350000D02*
X108600000Y-108050000D01*
X129300000Y-108350000D02*
X117800000Y-108350000D01*
D26*
X108600000Y-108050000D02*
X108600000Y-114650000D01*
D22*
X116100000Y-106650000D02*
X109300000Y-106650000D01*
D25*
%TO.N,Net-(D5-A)*%
X104222000Y-135042000D02*
X103400000Y-135864000D01*
X103400000Y-135864000D02*
X103400000Y-142987436D01*
X103241000Y-119513000D02*
X101727000Y-121027000D01*
X109412564Y-149000000D02*
X110650000Y-149000000D01*
X101727000Y-121051134D02*
X101463000Y-121315134D01*
X101463000Y-121315134D02*
X101463000Y-129165000D01*
X101463000Y-129165000D02*
X104222000Y-131924000D01*
X105019000Y-119513000D02*
X103241000Y-119513000D01*
X101727000Y-121027000D02*
X101727000Y-121051134D01*
X104222000Y-131924000D02*
X104222000Y-135042000D01*
X103400000Y-142987436D02*
X109412564Y-149000000D01*
D21*
%TO.N,Net-(J3-D+)*%
X149900000Y-132250000D02*
X148800000Y-132250000D01*
X150400000Y-137500000D02*
X150400000Y-132750000D01*
X147650000Y-140250000D02*
X150400000Y-137500000D01*
X150400000Y-132750000D02*
X149900000Y-132250000D01*
X147400000Y-140250000D02*
X147650000Y-140250000D01*
D22*
%TO.N,Net-(Q1-G)*%
X103550000Y-120450000D02*
X102225000Y-121775000D01*
D25*
X120450000Y-120550000D02*
X110120000Y-120550000D01*
D22*
X102225000Y-121775000D02*
X102225000Y-128403000D01*
X106300000Y-120450000D02*
X103550000Y-120450000D01*
%TO.N,Net-(U1D--)*%
X123550000Y-146750000D02*
X123050000Y-146250000D01*
X103100000Y-123450000D02*
X103500000Y-123050000D01*
X103100000Y-127250000D02*
X103100000Y-123450000D01*
X104400000Y-138250000D02*
X105150000Y-137500000D01*
X112100000Y-130925000D02*
X112100000Y-125950000D01*
X104400000Y-139500000D02*
X104400000Y-138250000D01*
X107650000Y-136500000D02*
X107650000Y-135375000D01*
X110400000Y-143750000D02*
X106900000Y-140250000D01*
X112100000Y-125950000D02*
X109800000Y-123650000D01*
X120150000Y-146250000D02*
X117650000Y-143750000D01*
X105150000Y-140250000D02*
X104400000Y-139500000D01*
X106162000Y-130633500D02*
X106162000Y-130312000D01*
X103500000Y-123050000D02*
X103500000Y-122150000D01*
X107650000Y-135375000D02*
X112100000Y-130925000D01*
X105150000Y-137500000D02*
X106650000Y-137500000D01*
X106162000Y-130312000D02*
X103100000Y-127250000D01*
X106650000Y-137500000D02*
X107650000Y-136500000D01*
X123050000Y-146250000D02*
X120150000Y-146250000D01*
X106900000Y-140250000D02*
X105150000Y-140250000D01*
X117650000Y-143750000D02*
X110400000Y-143750000D01*
D21*
%TO.N,Net-(U4-PGOOD)*%
X132400000Y-145650000D02*
X132700000Y-145950000D01*
X132400000Y-142450000D02*
X132400000Y-145650000D01*
%TD*%
%TA.AperFunction,Conductor*%
%TO.N,GND2*%
G36*
X159541621Y-100420502D02*
G01*
X159588114Y-100474158D01*
X159599500Y-100526500D01*
X159599500Y-151473500D01*
X159579498Y-151541621D01*
X159525842Y-151588114D01*
X159473500Y-151599500D01*
X131326000Y-151599500D01*
X131257879Y-151579498D01*
X131211386Y-151525842D01*
X131200000Y-151473500D01*
X131200000Y-149033637D01*
X155268687Y-149033637D01*
X155278847Y-149298701D01*
X155329348Y-149559097D01*
X155419011Y-149808747D01*
X155419015Y-149808755D01*
X155545728Y-150041775D01*
X155706530Y-150252728D01*
X155706534Y-150252733D01*
X155897657Y-150436670D01*
X156114617Y-150589277D01*
X156352331Y-150706976D01*
X156605225Y-150787009D01*
X156709721Y-150803149D01*
X156867361Y-150827499D01*
X156867370Y-150827499D01*
X156867372Y-150827500D01*
X156867373Y-150827500D01*
X157066219Y-150827500D01*
X157066220Y-150827500D01*
X157105669Y-150824471D01*
X157264469Y-150812280D01*
X157264470Y-150812279D01*
X157264478Y-150812279D01*
X157522756Y-150751839D01*
X157768782Y-150652682D01*
X157996788Y-150517131D01*
X158201430Y-150348364D01*
X158377912Y-150150336D01*
X158522096Y-149927690D01*
X158630604Y-149685643D01*
X158700892Y-149429869D01*
X158731313Y-149166363D01*
X158721153Y-148901301D01*
X158670650Y-148640897D01*
X158580989Y-148391254D01*
X158532415Y-148301929D01*
X158454271Y-148158224D01*
X158293469Y-147947271D01*
X158293466Y-147947267D01*
X158102343Y-147763330D01*
X157885383Y-147610723D01*
X157647669Y-147493024D01*
X157394775Y-147412991D01*
X157394773Y-147412990D01*
X157394771Y-147412990D01*
X157132638Y-147372500D01*
X157132628Y-147372500D01*
X156933780Y-147372500D01*
X156923374Y-147373298D01*
X156735530Y-147387719D01*
X156668082Y-147403502D01*
X156477244Y-147448161D01*
X156477241Y-147448161D01*
X156477237Y-147448163D01*
X156231223Y-147547315D01*
X156231213Y-147547320D01*
X156003217Y-147682865D01*
X156003210Y-147682870D01*
X155798576Y-147851629D01*
X155798570Y-147851635D01*
X155622086Y-148049666D01*
X155622084Y-148049669D01*
X155477903Y-148272310D01*
X155477901Y-148272313D01*
X155369397Y-148514353D01*
X155299109Y-148770125D01*
X155299107Y-148770132D01*
X155268687Y-149033635D01*
X155268687Y-149033637D01*
X131200000Y-149033637D01*
X131200000Y-142450002D01*
X131694355Y-142450002D01*
X131714859Y-142618871D01*
X131775179Y-142777925D01*
X131775181Y-142777929D01*
X131871816Y-142917928D01*
X131871821Y-142917933D01*
X131907051Y-142949143D01*
X131944778Y-143009286D01*
X131949500Y-143043457D01*
X131949500Y-145621156D01*
X131949104Y-145628212D01*
X131944730Y-145667035D01*
X131954359Y-145717929D01*
X131955788Y-145725478D01*
X131964653Y-145784291D01*
X131967160Y-145792421D01*
X131969979Y-145800477D01*
X131986125Y-145831027D01*
X132000271Y-145900600D01*
X131999808Y-145905088D01*
X131994356Y-145949997D01*
X131994355Y-145950003D01*
X132014859Y-146118871D01*
X132075179Y-146277925D01*
X132075181Y-146277929D01*
X132140163Y-146372070D01*
X132171817Y-146417929D01*
X132299148Y-146530734D01*
X132449775Y-146609790D01*
X132449776Y-146609790D01*
X132449778Y-146609791D01*
X132542393Y-146632618D01*
X132614944Y-146650500D01*
X132614947Y-146650500D01*
X132785053Y-146650500D01*
X132785056Y-146650500D01*
X132950225Y-146609790D01*
X133100852Y-146530734D01*
X133228183Y-146417929D01*
X133324818Y-146277930D01*
X133385140Y-146118872D01*
X133405645Y-145950000D01*
X133395556Y-145866914D01*
X133385140Y-145781128D01*
X133324820Y-145622074D01*
X133324818Y-145622070D01*
X133228183Y-145482071D01*
X133228181Y-145482069D01*
X133100857Y-145369270D01*
X133100851Y-145369265D01*
X132950225Y-145290210D01*
X132950214Y-145290206D01*
X132946336Y-145289250D01*
X132943801Y-145287773D01*
X132943095Y-145287506D01*
X132943139Y-145287388D01*
X132884985Y-145253522D01*
X132852689Y-145190296D01*
X132850500Y-145166914D01*
X132850500Y-143043457D01*
X132870502Y-142975336D01*
X132892949Y-142949143D01*
X132908864Y-142935044D01*
X132928183Y-142917929D01*
X133024818Y-142777930D01*
X133025816Y-142775300D01*
X133073145Y-142650500D01*
X133085140Y-142618872D01*
X133105645Y-142450000D01*
X133089608Y-142317929D01*
X133085140Y-142281128D01*
X133024820Y-142122074D01*
X133024818Y-142122070D01*
X132928183Y-141982071D01*
X132928181Y-141982069D01*
X132800857Y-141869270D01*
X132800851Y-141869265D01*
X132650225Y-141790210D01*
X132650221Y-141790208D01*
X132485059Y-141749500D01*
X132485056Y-141749500D01*
X132314944Y-141749500D01*
X132314940Y-141749500D01*
X132149778Y-141790208D01*
X132149774Y-141790210D01*
X131999148Y-141869265D01*
X131999142Y-141869270D01*
X131871818Y-141982069D01*
X131871816Y-141982071D01*
X131775181Y-142122070D01*
X131775179Y-142122074D01*
X131714859Y-142281128D01*
X131694355Y-142449997D01*
X131694355Y-142450002D01*
X131200000Y-142450002D01*
X131200000Y-137500000D01*
X134444355Y-137500000D01*
X134464859Y-137668871D01*
X134525179Y-137827925D01*
X134525181Y-137827929D01*
X134621816Y-137967928D01*
X134621818Y-137967930D01*
X134735758Y-138068872D01*
X134749148Y-138080734D01*
X134899775Y-138159790D01*
X134899776Y-138159790D01*
X134899778Y-138159791D01*
X135056461Y-138198409D01*
X135064944Y-138200500D01*
X135064947Y-138200500D01*
X135235053Y-138200500D01*
X135235056Y-138200500D01*
X135400225Y-138159790D01*
X135550852Y-138080734D01*
X135678183Y-137967929D01*
X135774818Y-137827930D01*
X135835140Y-137668872D01*
X135855645Y-137500000D01*
X135855619Y-137499789D01*
X135855645Y-137499635D01*
X135855645Y-137492378D01*
X135856851Y-137492378D01*
X135867258Y-137429756D01*
X135891601Y-137395500D01*
X136099699Y-137187404D01*
X136162011Y-137153379D01*
X136188794Y-137150500D01*
X142968227Y-137150500D01*
X143036348Y-137170502D01*
X143066739Y-137197942D01*
X143070187Y-137202266D01*
X143197737Y-137329816D01*
X143197739Y-137329817D01*
X143350474Y-137425787D01*
X143350475Y-137425787D01*
X143350478Y-137425789D01*
X143520745Y-137485368D01*
X143650608Y-137500000D01*
X143700000Y-137505565D01*
X143741441Y-137500895D01*
X143748496Y-137500500D01*
X147622331Y-137500500D01*
X147690452Y-137520502D01*
X147736945Y-137574158D01*
X147737595Y-137575606D01*
X147785793Y-137684764D01*
X147785795Y-137684767D01*
X147865232Y-137764204D01*
X147865234Y-137764205D01*
X147865235Y-137764206D01*
X147968009Y-137809585D01*
X147993135Y-137812500D01*
X149146206Y-137812499D01*
X149214327Y-137832501D01*
X149260820Y-137886157D01*
X149270924Y-137956431D01*
X149241431Y-138021011D01*
X149235301Y-138027594D01*
X147718494Y-139544401D01*
X147656182Y-139578427D01*
X147599246Y-139577645D01*
X147537866Y-139562516D01*
X147485057Y-139549500D01*
X147485056Y-139549500D01*
X147314944Y-139549500D01*
X147314940Y-139549500D01*
X147149778Y-139590208D01*
X147149774Y-139590210D01*
X146999148Y-139669265D01*
X146999142Y-139669270D01*
X146871818Y-139782069D01*
X146871816Y-139782071D01*
X146775181Y-139922070D01*
X146775179Y-139922074D01*
X146714859Y-140081128D01*
X146694355Y-140249997D01*
X146694355Y-140250002D01*
X146714859Y-140418871D01*
X146775179Y-140577925D01*
X146775181Y-140577929D01*
X146871816Y-140717928D01*
X146871818Y-140717930D01*
X146970497Y-140805352D01*
X146999148Y-140830734D01*
X147149775Y-140909790D01*
X147149776Y-140909790D01*
X147149778Y-140909791D01*
X147234749Y-140930734D01*
X147314944Y-140950500D01*
X147314947Y-140950500D01*
X147485053Y-140950500D01*
X147485056Y-140950500D01*
X147650225Y-140909790D01*
X147800852Y-140830734D01*
X147928183Y-140717929D01*
X148024818Y-140577930D01*
X148055332Y-140497468D01*
X148084046Y-140453056D01*
X149301307Y-139235794D01*
X149363615Y-139201773D01*
X149434430Y-139206837D01*
X149491266Y-139249384D01*
X149516077Y-139315904D01*
X149513763Y-139350528D01*
X149474347Y-139540213D01*
X149474346Y-139540219D01*
X149455210Y-139819995D01*
X149455210Y-139820004D01*
X149474346Y-140099780D01*
X149474347Y-140099786D01*
X149531405Y-140374369D01*
X149531407Y-140374377D01*
X149625325Y-140638637D01*
X149754345Y-140887630D01*
X149754353Y-140887643D01*
X149916075Y-141116753D01*
X149916076Y-141116754D01*
X149957142Y-141160723D01*
X149957144Y-141160723D01*
X150594795Y-140523071D01*
X150731931Y-140673501D01*
X150809814Y-140732316D01*
X150169761Y-141372369D01*
X150169761Y-141372370D01*
X150325035Y-141498696D01*
X150564665Y-141644419D01*
X150821886Y-141756145D01*
X151091943Y-141831812D01*
X151369765Y-141869999D01*
X151369776Y-141870000D01*
X151650224Y-141870000D01*
X151650234Y-141869999D01*
X151928056Y-141831812D01*
X152198113Y-141756145D01*
X152455334Y-141644419D01*
X152694964Y-141498696D01*
X152850237Y-141372370D01*
X152850237Y-141372368D01*
X152210185Y-140732316D01*
X152288069Y-140673501D01*
X152425203Y-140523072D01*
X153062855Y-141160724D01*
X153062856Y-141160723D01*
X153103922Y-141116754D01*
X153265652Y-140887633D01*
X153265654Y-140887630D01*
X153394674Y-140638637D01*
X153488592Y-140374377D01*
X153488594Y-140374369D01*
X153545652Y-140099786D01*
X153545653Y-140099780D01*
X153564790Y-139820004D01*
X153564790Y-139819995D01*
X153545653Y-139540219D01*
X153545652Y-139540213D01*
X153488594Y-139265630D01*
X153488592Y-139265622D01*
X153394674Y-139001362D01*
X153265654Y-138752369D01*
X153265646Y-138752356D01*
X153103924Y-138523246D01*
X153103923Y-138523245D01*
X153062856Y-138479275D01*
X153062854Y-138479275D01*
X152425202Y-139116926D01*
X152288069Y-138966499D01*
X152210184Y-138907683D01*
X152850238Y-138267630D01*
X152850237Y-138267628D01*
X152694964Y-138141303D01*
X152455334Y-137995580D01*
X152198113Y-137883854D01*
X151928056Y-137808187D01*
X151650234Y-137770000D01*
X151369765Y-137770000D01*
X151091941Y-137808188D01*
X150969037Y-137842624D01*
X150898046Y-137841742D01*
X150838801Y-137802620D01*
X150810112Y-137737678D01*
X150814641Y-137684157D01*
X150828006Y-137640827D01*
X150833544Y-137625000D01*
X150847646Y-137584700D01*
X150847646Y-137584690D01*
X150849229Y-137576325D01*
X150850500Y-137567901D01*
X150850500Y-137508426D01*
X150850782Y-137500896D01*
X150852724Y-137448990D01*
X150852722Y-137448984D01*
X150851667Y-137439608D01*
X150852528Y-137439510D01*
X150850500Y-137424102D01*
X150850500Y-132778842D01*
X150850896Y-132771782D01*
X150855270Y-132732965D01*
X150849740Y-132703738D01*
X150844211Y-132674512D01*
X150840859Y-132652280D01*
X150835348Y-132615713D01*
X150835345Y-132615708D01*
X150832824Y-132607532D01*
X150830023Y-132599527D01*
X150802222Y-132546926D01*
X150776426Y-132493360D01*
X150771628Y-132486322D01*
X150766562Y-132479458D01*
X150724516Y-132437413D01*
X150684054Y-132393804D01*
X150676674Y-132387919D01*
X150677213Y-132387242D01*
X150664880Y-132377777D01*
X150456369Y-132169266D01*
X150238942Y-131951839D01*
X150234239Y-131946576D01*
X150209880Y-131916031D01*
X150209881Y-131916031D01*
X150160728Y-131882519D01*
X150112879Y-131847204D01*
X150105330Y-131843214D01*
X150097674Y-131839528D01*
X150040822Y-131821992D01*
X149992392Y-131805046D01*
X149984699Y-131802354D01*
X149984698Y-131802353D01*
X149984696Y-131802353D01*
X149976320Y-131800767D01*
X149967905Y-131799500D01*
X149967902Y-131799500D01*
X149908426Y-131799500D01*
X149848990Y-131797276D01*
X149848989Y-131797276D01*
X149839555Y-131796923D01*
X149839641Y-131794598D01*
X149782672Y-131784619D01*
X149730464Y-131736507D01*
X149727375Y-131731057D01*
X149687710Y-131656849D01*
X149682604Y-131650627D01*
X149554936Y-131495064D01*
X149393150Y-131362289D01*
X149208569Y-131263628D01*
X149008286Y-131202873D01*
X149008285Y-131202872D01*
X149008279Y-131202871D01*
X148800003Y-131182359D01*
X148799997Y-131182359D01*
X148591720Y-131202871D01*
X148391430Y-131263628D01*
X148206849Y-131362289D01*
X148045064Y-131495064D01*
X147912289Y-131656849D01*
X147813628Y-131841430D01*
X147752871Y-132041720D01*
X147732359Y-132249996D01*
X147732359Y-132250003D01*
X147752871Y-132458279D01*
X147752872Y-132458285D01*
X147752873Y-132458286D01*
X147813628Y-132658569D01*
X147912289Y-132843150D01*
X148045064Y-133004936D01*
X148206850Y-133137711D01*
X148206852Y-133137712D01*
X148206851Y-133137712D01*
X148209036Y-133138880D01*
X148209965Y-133139792D01*
X148211995Y-133141149D01*
X148211737Y-133141534D01*
X148259683Y-133188633D01*
X148275391Y-133257870D01*
X148251173Y-133324608D01*
X148211870Y-133358664D01*
X148211995Y-133358851D01*
X148210507Y-133359844D01*
X148209036Y-133361120D01*
X148206851Y-133362287D01*
X148045064Y-133495064D01*
X147912289Y-133656849D01*
X147813628Y-133841430D01*
X147752871Y-134041720D01*
X147732359Y-134249996D01*
X147732359Y-134250003D01*
X147752871Y-134458279D01*
X147752872Y-134458285D01*
X147752873Y-134458286D01*
X147813628Y-134658569D01*
X147912289Y-134843150D01*
X148045064Y-135004936D01*
X148206850Y-135137711D01*
X148391431Y-135236372D01*
X148591714Y-135297127D01*
X148591718Y-135297127D01*
X148591720Y-135297128D01*
X148799997Y-135317641D01*
X148800000Y-135317641D01*
X148800003Y-135317641D01*
X149008279Y-135297128D01*
X149008280Y-135297127D01*
X149008286Y-135297127D01*
X149208569Y-135236372D01*
X149393150Y-135137711D01*
X149554936Y-135004936D01*
X149687711Y-134843150D01*
X149712378Y-134797000D01*
X149762130Y-134746353D01*
X149831367Y-134730643D01*
X149898106Y-134754859D01*
X149941158Y-134811313D01*
X149949500Y-134856397D01*
X149949500Y-135646338D01*
X149929498Y-135714459D01*
X149875842Y-135760952D01*
X149805568Y-135771056D01*
X149740988Y-135741562D01*
X149734869Y-135735865D01*
X149734765Y-135735794D01*
X149631989Y-135690414D01*
X149631990Y-135690414D01*
X149606868Y-135687500D01*
X147993140Y-135687500D01*
X147993133Y-135687501D01*
X147968009Y-135690414D01*
X147968005Y-135690416D01*
X147865234Y-135735793D01*
X147785795Y-135815232D01*
X147785793Y-135815236D01*
X147781750Y-135824393D01*
X147735938Y-135878631D01*
X147668075Y-135899490D01*
X147666486Y-135899500D01*
X144626500Y-135899500D01*
X144558379Y-135879498D01*
X144511886Y-135825842D01*
X144500500Y-135773500D01*
X144500500Y-134626500D01*
X144520502Y-134558379D01*
X144574158Y-134511886D01*
X144626500Y-134500500D01*
X145610797Y-134500500D01*
X145678918Y-134520502D01*
X145694346Y-134532184D01*
X145749148Y-134580734D01*
X145899775Y-134659790D01*
X145899776Y-134659790D01*
X145899778Y-134659791D01*
X146051807Y-134697262D01*
X146064944Y-134700500D01*
X146064947Y-134700500D01*
X146235053Y-134700500D01*
X146235056Y-134700500D01*
X146400225Y-134659790D01*
X146550852Y-134580734D01*
X146678183Y-134467929D01*
X146774818Y-134327930D01*
X146835140Y-134168872D01*
X146855645Y-134000000D01*
X146835140Y-133831128D01*
X146814965Y-133777930D01*
X146774820Y-133672074D01*
X146774818Y-133672070D01*
X146678183Y-133532071D01*
X146678181Y-133532069D01*
X146550857Y-133419270D01*
X146550851Y-133419265D01*
X146400225Y-133340210D01*
X146400221Y-133340208D01*
X146235059Y-133299500D01*
X146235056Y-133299500D01*
X146064944Y-133299500D01*
X146064940Y-133299500D01*
X145899778Y-133340208D01*
X145899774Y-133340210D01*
X145821813Y-133381128D01*
X145749148Y-133419266D01*
X145694348Y-133467813D01*
X145630096Y-133498013D01*
X145610797Y-133499500D01*
X144626500Y-133499500D01*
X144558379Y-133479498D01*
X144511886Y-133425842D01*
X144500500Y-133373500D01*
X144500500Y-131805045D01*
X144497852Y-131781543D01*
X144485368Y-131670745D01*
X144425789Y-131500478D01*
X144425787Y-131500475D01*
X144425787Y-131500474D01*
X144329817Y-131347739D01*
X144329816Y-131347737D01*
X144202262Y-131220183D01*
X144202260Y-131220182D01*
X144049525Y-131124212D01*
X144049522Y-131124211D01*
X143879255Y-131064632D01*
X143700000Y-131044435D01*
X143520745Y-131064632D01*
X143520742Y-131064632D01*
X143520742Y-131064633D01*
X143350477Y-131124211D01*
X143350474Y-131124212D01*
X143197739Y-131220182D01*
X143197737Y-131220183D01*
X143070183Y-131347737D01*
X143070182Y-131347739D01*
X142974212Y-131500474D01*
X142974211Y-131500477D01*
X142921672Y-131650627D01*
X142914632Y-131670745D01*
X142902148Y-131781543D01*
X142899500Y-131805045D01*
X142899500Y-136123500D01*
X142879498Y-136191621D01*
X142825842Y-136238114D01*
X142773500Y-136249500D01*
X135978844Y-136249500D01*
X135971787Y-136249104D01*
X135932965Y-136244730D01*
X135932964Y-136244730D01*
X135932962Y-136244730D01*
X135874508Y-136255788D01*
X135815715Y-136264651D01*
X135807538Y-136267173D01*
X135799526Y-136269976D01*
X135746915Y-136297783D01*
X135693361Y-136323573D01*
X135686293Y-136328391D01*
X135679462Y-136333433D01*
X135637400Y-136375495D01*
X135593808Y-136415941D01*
X135587923Y-136423322D01*
X135587247Y-136422783D01*
X135577784Y-136435110D01*
X135250302Y-136762595D01*
X135187990Y-136796620D01*
X135161206Y-136799500D01*
X135064940Y-136799500D01*
X134899778Y-136840208D01*
X134899774Y-136840210D01*
X134749148Y-136919265D01*
X134749142Y-136919270D01*
X134621818Y-137032069D01*
X134621816Y-137032071D01*
X134525181Y-137172070D01*
X134525179Y-137172074D01*
X134464859Y-137331128D01*
X134444355Y-137499997D01*
X134444355Y-137500000D01*
X131200000Y-137500000D01*
X131200000Y-135350000D01*
X132794532Y-135350000D01*
X132814365Y-135576695D01*
X132873260Y-135796493D01*
X132873262Y-135796498D01*
X132969433Y-136002737D01*
X133099948Y-136189134D01*
X133099957Y-136189144D01*
X133260855Y-136350042D01*
X133260865Y-136350051D01*
X133447262Y-136480566D01*
X133447261Y-136480566D01*
X133448252Y-136481028D01*
X133653504Y-136576739D01*
X133873308Y-136635635D01*
X134100000Y-136655468D01*
X134326692Y-136635635D01*
X134546496Y-136576739D01*
X134752734Y-136480568D01*
X134764552Y-136472293D01*
X134939134Y-136350051D01*
X134939136Y-136350048D01*
X134939139Y-136350047D01*
X135100047Y-136189139D01*
X135119171Y-136161828D01*
X135230566Y-136002737D01*
X135230566Y-136002736D01*
X135230568Y-136002734D01*
X135326739Y-135796496D01*
X135385635Y-135576692D01*
X135405468Y-135350000D01*
X135385635Y-135123308D01*
X135326739Y-134903504D01*
X135230568Y-134697266D01*
X135230567Y-134697265D01*
X135230566Y-134697262D01*
X135100051Y-134510865D01*
X135100042Y-134510855D01*
X134939144Y-134349957D01*
X134939134Y-134349948D01*
X134752737Y-134219433D01*
X134752738Y-134219433D01*
X134546498Y-134123262D01*
X134546493Y-134123260D01*
X134326695Y-134064365D01*
X134100000Y-134044532D01*
X133873304Y-134064365D01*
X133653506Y-134123260D01*
X133653501Y-134123262D01*
X133447262Y-134219433D01*
X133260865Y-134349948D01*
X133260855Y-134349957D01*
X133099957Y-134510855D01*
X133099948Y-134510865D01*
X132969433Y-134697262D01*
X132873262Y-134903501D01*
X132873260Y-134903506D01*
X132814365Y-135123304D01*
X132794532Y-135350000D01*
X131200000Y-135350000D01*
X131200000Y-129750003D01*
X147732861Y-129750003D01*
X147753364Y-129958181D01*
X147814092Y-130158376D01*
X147912706Y-130342871D01*
X147949798Y-130388067D01*
X148385329Y-129952536D01*
X148397128Y-129982598D01*
X148483586Y-130091013D01*
X148595094Y-130167037D01*
X148161930Y-130600200D01*
X148207125Y-130637291D01*
X148207125Y-130637292D01*
X148391623Y-130735907D01*
X148591818Y-130796635D01*
X148799997Y-130817139D01*
X148800003Y-130817139D01*
X149008181Y-130796635D01*
X149208376Y-130735907D01*
X149392866Y-130637296D01*
X149392872Y-130637292D01*
X149438067Y-130600200D01*
X149438068Y-130600199D01*
X149001428Y-130163559D01*
X149062054Y-130134363D01*
X149163705Y-130040045D01*
X149214388Y-129952257D01*
X149650199Y-130388068D01*
X149650200Y-130388067D01*
X149687292Y-130342872D01*
X149687296Y-130342866D01*
X149785907Y-130158376D01*
X149846635Y-129958181D01*
X149867139Y-129750003D01*
X149867139Y-129749996D01*
X149846635Y-129541818D01*
X149785907Y-129341623D01*
X149687291Y-129157125D01*
X149650200Y-129111930D01*
X149214669Y-129547461D01*
X149202872Y-129517402D01*
X149116414Y-129408987D01*
X149004905Y-129332962D01*
X149438067Y-128899798D01*
X149392871Y-128862706D01*
X149208376Y-128764092D01*
X149008181Y-128703364D01*
X148800003Y-128682861D01*
X148799997Y-128682861D01*
X148591818Y-128703364D01*
X148391623Y-128764092D01*
X148207128Y-128862706D01*
X148161930Y-128899799D01*
X148598571Y-129336440D01*
X148537946Y-129365637D01*
X148436295Y-129459955D01*
X148385611Y-129547742D01*
X147949799Y-129111930D01*
X147912706Y-129157128D01*
X147814092Y-129341623D01*
X147753364Y-129541818D01*
X147732861Y-129749996D01*
X147732861Y-129750003D01*
X131200000Y-129750003D01*
X131200000Y-128594241D01*
X131220002Y-128526120D01*
X131273658Y-128479627D01*
X131343932Y-128469523D01*
X131408512Y-128499017D01*
X131440196Y-128540994D01*
X131445064Y-128551435D01*
X131445067Y-128551440D01*
X131543066Y-128691398D01*
X131543068Y-128691398D01*
X132122410Y-128112055D01*
X132161882Y-128189523D01*
X132257077Y-128284718D01*
X132334542Y-128324188D01*
X131755200Y-128903530D01*
X131755200Y-128903531D01*
X131895161Y-129001533D01*
X131895160Y-129001533D01*
X132089421Y-129092118D01*
X132089426Y-129092120D01*
X132296469Y-129147596D01*
X132510000Y-129166278D01*
X132723530Y-129147596D01*
X132930573Y-129092120D01*
X132930578Y-129092118D01*
X133124839Y-129001533D01*
X133264798Y-128903531D01*
X133264798Y-128903529D01*
X132685457Y-128324188D01*
X132762923Y-128284718D01*
X132858118Y-128189523D01*
X132897588Y-128112057D01*
X133476929Y-128691398D01*
X133476931Y-128691398D01*
X133574933Y-128551439D01*
X133665805Y-128356563D01*
X133712722Y-128303278D01*
X133780999Y-128283817D01*
X133848959Y-128304359D01*
X133894195Y-128356563D01*
X133985066Y-128551438D01*
X133985067Y-128551440D01*
X134083066Y-128691398D01*
X134083068Y-128691398D01*
X134662410Y-128112055D01*
X134701882Y-128189523D01*
X134797077Y-128284718D01*
X134874542Y-128324188D01*
X134295200Y-128903530D01*
X134295200Y-128903531D01*
X134435161Y-129001533D01*
X134435160Y-129001533D01*
X134629421Y-129092118D01*
X134629426Y-129092120D01*
X134836469Y-129147596D01*
X135050000Y-129166278D01*
X135263530Y-129147596D01*
X135470573Y-129092120D01*
X135470578Y-129092118D01*
X135664839Y-129001533D01*
X135804798Y-128903531D01*
X135804798Y-128903529D01*
X135225457Y-128324188D01*
X135302923Y-128284718D01*
X135398118Y-128189523D01*
X135437588Y-128112057D01*
X136016929Y-128691398D01*
X136016931Y-128691398D01*
X136114933Y-128551438D01*
X136114935Y-128551435D01*
X136205528Y-128357156D01*
X136252445Y-128303870D01*
X136320722Y-128284409D01*
X136388682Y-128304950D01*
X136433918Y-128357155D01*
X136524514Y-128551438D01*
X136524632Y-128551691D01*
X136630835Y-128703364D01*
X136647627Y-128727345D01*
X136647630Y-128727349D01*
X136799250Y-128878969D01*
X136799254Y-128878972D01*
X136799255Y-128878973D01*
X136974909Y-129001968D01*
X137169253Y-129092592D01*
X137376381Y-129148092D01*
X137590000Y-129166781D01*
X137803619Y-129148092D01*
X138010747Y-129092592D01*
X138205091Y-129001968D01*
X138380745Y-128878973D01*
X138532373Y-128727345D01*
X138655368Y-128551691D01*
X138740805Y-128368469D01*
X138787722Y-128315185D01*
X138855999Y-128295724D01*
X138923959Y-128316266D01*
X138969194Y-128368469D01*
X139021028Y-128479627D01*
X139054512Y-128551435D01*
X139054632Y-128551691D01*
X139160835Y-128703364D01*
X139177627Y-128727345D01*
X139177630Y-128727349D01*
X139329250Y-128878969D01*
X139329254Y-128878972D01*
X139329255Y-128878973D01*
X139504909Y-129001968D01*
X139699253Y-129092592D01*
X139906381Y-129148092D01*
X140120000Y-129166781D01*
X140333619Y-129148092D01*
X140540747Y-129092592D01*
X140735091Y-129001968D01*
X140910745Y-128878973D01*
X141062373Y-128727345D01*
X141185368Y-128551691D01*
X141275992Y-128357347D01*
X141331492Y-128150219D01*
X141350181Y-127936600D01*
X141331492Y-127722981D01*
X141275992Y-127515853D01*
X141185368Y-127321510D01*
X141062373Y-127145855D01*
X140910745Y-126994227D01*
X140875668Y-126969666D01*
X140835599Y-126941609D01*
X140735091Y-126871232D01*
X140735087Y-126871230D01*
X140540750Y-126780609D01*
X140540745Y-126780607D01*
X140426517Y-126750000D01*
X140333619Y-126725108D01*
X140120000Y-126706419D01*
X139906381Y-126725108D01*
X139850882Y-126739978D01*
X139699254Y-126780607D01*
X139699250Y-126780609D01*
X139504909Y-126871232D01*
X139329258Y-126994224D01*
X139329252Y-126994229D01*
X139177629Y-127145852D01*
X139177624Y-127145858D01*
X139054632Y-127321509D01*
X138969195Y-127504729D01*
X138922277Y-127558014D01*
X138854000Y-127577475D01*
X138786040Y-127556933D01*
X138740805Y-127504729D01*
X138684699Y-127384410D01*
X138655368Y-127321510D01*
X138532373Y-127145855D01*
X138380745Y-126994227D01*
X138345668Y-126969666D01*
X138305599Y-126941609D01*
X138205091Y-126871232D01*
X138205087Y-126871230D01*
X138010750Y-126780609D01*
X138010745Y-126780607D01*
X137896517Y-126750000D01*
X137803619Y-126725108D01*
X137590000Y-126706419D01*
X137376381Y-126725108D01*
X137320882Y-126739978D01*
X137169254Y-126780607D01*
X137169250Y-126780609D01*
X136974909Y-126871232D01*
X136799258Y-126994224D01*
X136799252Y-126994229D01*
X136647629Y-127145852D01*
X136647624Y-127145858D01*
X136524630Y-127321511D01*
X136433917Y-127516045D01*
X136387000Y-127569329D01*
X136318723Y-127588790D01*
X136250763Y-127568248D01*
X136205528Y-127516044D01*
X136114933Y-127321762D01*
X136114932Y-127321760D01*
X136016932Y-127181800D01*
X136016930Y-127181800D01*
X135437588Y-127761142D01*
X135398118Y-127683677D01*
X135302923Y-127588482D01*
X135225455Y-127549010D01*
X135804798Y-126969668D01*
X135804798Y-126969666D01*
X135664840Y-126871667D01*
X135664838Y-126871666D01*
X135470578Y-126781081D01*
X135470573Y-126781079D01*
X135263530Y-126725603D01*
X135050000Y-126706921D01*
X134836469Y-126725603D01*
X134629426Y-126781079D01*
X134629422Y-126781081D01*
X134435157Y-126871668D01*
X134295200Y-126969666D01*
X134295200Y-126969667D01*
X134874543Y-127549010D01*
X134797077Y-127588482D01*
X134701882Y-127683677D01*
X134662410Y-127761143D01*
X134083067Y-127181800D01*
X134083066Y-127181800D01*
X133985068Y-127321757D01*
X133894195Y-127516636D01*
X133847278Y-127569921D01*
X133779000Y-127589382D01*
X133711040Y-127568840D01*
X133665805Y-127516636D01*
X133574933Y-127321762D01*
X133574932Y-127321760D01*
X133476932Y-127181800D01*
X133476930Y-127181800D01*
X132897588Y-127761142D01*
X132858118Y-127683677D01*
X132762923Y-127588482D01*
X132685455Y-127549010D01*
X133264798Y-126969668D01*
X133264798Y-126969666D01*
X133124840Y-126871667D01*
X133124838Y-126871666D01*
X132930578Y-126781081D01*
X132930573Y-126781079D01*
X132723530Y-126725603D01*
X132510000Y-126706921D01*
X132296469Y-126725603D01*
X132089426Y-126781079D01*
X132089422Y-126781081D01*
X131895157Y-126871668D01*
X131755200Y-126969666D01*
X131755200Y-126969667D01*
X132334543Y-127549010D01*
X132257077Y-127588482D01*
X132161882Y-127683677D01*
X132122410Y-127761143D01*
X131543067Y-127181800D01*
X131543066Y-127181800D01*
X131445068Y-127321757D01*
X131445065Y-127321763D01*
X131440193Y-127332211D01*
X131393275Y-127385495D01*
X131324997Y-127404954D01*
X131257038Y-127384410D01*
X131210973Y-127330386D01*
X131200000Y-127278958D01*
X131200000Y-126680004D01*
X149455210Y-126680004D01*
X149474346Y-126959780D01*
X149474347Y-126959786D01*
X149531405Y-127234369D01*
X149531407Y-127234377D01*
X149625325Y-127498637D01*
X149754345Y-127747630D01*
X149754353Y-127747643D01*
X149916075Y-127976753D01*
X149916076Y-127976754D01*
X149957142Y-128020723D01*
X149957144Y-128020723D01*
X150594795Y-127383071D01*
X150731931Y-127533501D01*
X150809814Y-127592316D01*
X150169761Y-128232369D01*
X150169761Y-128232370D01*
X150325035Y-128358696D01*
X150564665Y-128504419D01*
X150821886Y-128616145D01*
X151091943Y-128691812D01*
X151369765Y-128729999D01*
X151369776Y-128730000D01*
X151650224Y-128730000D01*
X151650234Y-128729999D01*
X151928056Y-128691812D01*
X152198113Y-128616145D01*
X152455334Y-128504419D01*
X152694964Y-128358696D01*
X152850237Y-128232370D01*
X152850237Y-128232368D01*
X152210185Y-127592316D01*
X152288069Y-127533501D01*
X152425203Y-127383072D01*
X153062855Y-128020724D01*
X153062856Y-128020723D01*
X153103922Y-127976754D01*
X153265652Y-127747633D01*
X153265654Y-127747630D01*
X153394674Y-127498637D01*
X153488592Y-127234377D01*
X153488594Y-127234369D01*
X153545652Y-126959786D01*
X153545653Y-126959780D01*
X153564790Y-126680004D01*
X153564790Y-126679995D01*
X153545653Y-126400219D01*
X153545652Y-126400213D01*
X153488594Y-126125630D01*
X153488592Y-126125622D01*
X153394674Y-125861362D01*
X153265654Y-125612369D01*
X153265646Y-125612356D01*
X153103924Y-125383246D01*
X153103923Y-125383245D01*
X153062856Y-125339275D01*
X153062854Y-125339275D01*
X152425202Y-125976926D01*
X152288069Y-125826499D01*
X152210185Y-125767683D01*
X152850238Y-125127630D01*
X152850237Y-125127628D01*
X152694964Y-125001303D01*
X152455334Y-124855580D01*
X152198113Y-124743854D01*
X151928056Y-124668187D01*
X151650234Y-124630000D01*
X151369765Y-124630000D01*
X151091943Y-124668187D01*
X150821886Y-124743854D01*
X150564665Y-124855580D01*
X150325040Y-125001300D01*
X150169761Y-125127628D01*
X150169760Y-125127629D01*
X150809814Y-125767683D01*
X150731931Y-125826499D01*
X150594796Y-125976927D01*
X149957144Y-125339275D01*
X149957142Y-125339275D01*
X149916073Y-125383250D01*
X149754353Y-125612356D01*
X149754345Y-125612369D01*
X149625325Y-125861362D01*
X149531407Y-126125622D01*
X149531405Y-126125630D01*
X149474347Y-126400213D01*
X149474346Y-126400219D01*
X149455210Y-126679995D01*
X149455210Y-126680004D01*
X131200000Y-126680004D01*
X131200000Y-123300000D01*
X132395034Y-123300000D01*
X132414859Y-123526602D01*
X132473732Y-123746323D01*
X132473734Y-123746328D01*
X132569866Y-123952483D01*
X132679215Y-124108650D01*
X133255183Y-123532681D01*
X133318239Y-123630798D01*
X133426900Y-123724952D01*
X133468281Y-123743850D01*
X132891348Y-124320782D01*
X132891348Y-124320783D01*
X133047516Y-124430133D01*
X133253671Y-124526265D01*
X133253676Y-124526267D01*
X133473397Y-124585140D01*
X133700000Y-124604965D01*
X133926602Y-124585140D01*
X134146323Y-124526267D01*
X134146328Y-124526265D01*
X134352482Y-124430134D01*
X134508650Y-124320782D01*
X134508650Y-124320781D01*
X133931719Y-123743850D01*
X133973100Y-123724952D01*
X134081761Y-123630798D01*
X134144814Y-123532683D01*
X134720781Y-124108650D01*
X134720782Y-124108650D01*
X134830134Y-123952482D01*
X134926265Y-123746328D01*
X134926267Y-123746323D01*
X134985140Y-123526602D01*
X135004965Y-123300000D01*
X134985140Y-123073397D01*
X134926267Y-122853676D01*
X134926265Y-122853671D01*
X134830133Y-122647516D01*
X134720783Y-122491348D01*
X134720782Y-122491348D01*
X134144814Y-123067316D01*
X134081761Y-122969202D01*
X133973100Y-122875048D01*
X133931716Y-122856148D01*
X134508650Y-122279215D01*
X134352483Y-122169866D01*
X134146328Y-122073734D01*
X134146323Y-122073732D01*
X133926602Y-122014859D01*
X133700000Y-121995034D01*
X133473397Y-122014859D01*
X133253676Y-122073732D01*
X133253671Y-122073734D01*
X133047513Y-122169867D01*
X132891348Y-122279214D01*
X132891348Y-122279215D01*
X133468281Y-122856149D01*
X133426900Y-122875048D01*
X133318239Y-122969202D01*
X133255184Y-123067316D01*
X132679215Y-122491348D01*
X132679214Y-122491348D01*
X132569867Y-122647513D01*
X132473734Y-122853671D01*
X132473732Y-122853676D01*
X132414859Y-123073397D01*
X132395034Y-123300000D01*
X131200000Y-123300000D01*
X131200000Y-120150001D01*
X131200000Y-120150000D01*
X128300000Y-117150000D01*
X128299999Y-117150000D01*
X100526500Y-117150000D01*
X100458379Y-117129998D01*
X100411886Y-117076342D01*
X100400500Y-117024000D01*
X100400500Y-116220000D01*
X100736840Y-116220000D01*
X100740123Y-116249142D01*
X100740124Y-116249148D01*
X100799663Y-116419302D01*
X100895576Y-116571948D01*
X101023051Y-116699423D01*
X101175697Y-116795336D01*
X101345854Y-116854875D01*
X101345853Y-116854875D01*
X101480074Y-116870000D01*
X101775000Y-116870000D01*
X101775000Y-116370000D01*
X102075000Y-116370000D01*
X102075000Y-116870000D01*
X102369926Y-116870000D01*
X102504146Y-116854875D01*
X102674302Y-116795336D01*
X102826948Y-116699423D01*
X102954423Y-116571948D01*
X103050336Y-116419302D01*
X103109875Y-116249148D01*
X103109876Y-116249142D01*
X103113160Y-116220000D01*
X104766840Y-116220000D01*
X104770123Y-116249142D01*
X104770124Y-116249148D01*
X104829663Y-116419302D01*
X104925576Y-116571948D01*
X105053051Y-116699423D01*
X105205697Y-116795336D01*
X105375854Y-116854875D01*
X105375853Y-116854875D01*
X105510074Y-116870000D01*
X105955000Y-116870000D01*
X105955000Y-116370000D01*
X106255000Y-116370000D01*
X106255000Y-116870000D01*
X106699926Y-116870000D01*
X106834146Y-116854875D01*
X107004302Y-116795336D01*
X107156948Y-116699423D01*
X107284423Y-116571948D01*
X107380336Y-116419302D01*
X107439875Y-116249148D01*
X107439876Y-116249142D01*
X107443160Y-116220000D01*
X106917657Y-116220000D01*
X106928201Y-116206038D01*
X106958895Y-116098160D01*
X106948546Y-115986479D01*
X106915443Y-115920000D01*
X107443160Y-115920000D01*
X107439876Y-115890857D01*
X107439875Y-115890851D01*
X107380336Y-115720697D01*
X107284423Y-115568051D01*
X107156948Y-115440576D01*
X107004302Y-115344663D01*
X106834145Y-115285124D01*
X106834146Y-115285124D01*
X106699926Y-115270000D01*
X106255000Y-115270000D01*
X106255000Y-115770000D01*
X105955000Y-115770000D01*
X105955000Y-115270000D01*
X105891739Y-115270000D01*
X105823618Y-115249998D01*
X105777125Y-115196342D01*
X105767021Y-115126068D01*
X105796515Y-115061488D01*
X105837070Y-115030478D01*
X105843305Y-115027475D01*
X105862781Y-115018096D01*
X105962775Y-114925316D01*
X106030978Y-114807184D01*
X106056593Y-114694954D01*
X107799500Y-114694954D01*
X107814632Y-114829255D01*
X107814633Y-114829257D01*
X107874211Y-114999522D01*
X107874212Y-114999525D01*
X107970182Y-115152260D01*
X107970183Y-115152262D01*
X108097737Y-115279816D01*
X108097739Y-115279817D01*
X108250474Y-115375787D01*
X108250475Y-115375787D01*
X108250478Y-115375789D01*
X108420745Y-115435368D01*
X108600000Y-115455565D01*
X108779255Y-115435368D01*
X108949522Y-115375789D01*
X109102262Y-115279816D01*
X109229816Y-115152262D01*
X109325789Y-114999522D01*
X109385368Y-114829255D01*
X109400500Y-114694954D01*
X109400500Y-108005046D01*
X109385368Y-107870745D01*
X109325789Y-107700478D01*
X109271402Y-107613922D01*
X109264355Y-107602706D01*
X109245050Y-107534384D01*
X109265746Y-107466471D01*
X109281939Y-107446584D01*
X109491121Y-107237402D01*
X109553431Y-107203379D01*
X109580214Y-107200500D01*
X115819785Y-107200500D01*
X115887906Y-107220502D01*
X115908880Y-107237405D01*
X116676521Y-108005045D01*
X117404079Y-108732603D01*
X117449320Y-108781044D01*
X117487103Y-108804019D01*
X117492424Y-108807641D01*
X117527658Y-108834361D01*
X117544198Y-108840883D01*
X117563429Y-108850435D01*
X117578618Y-108859672D01*
X117621203Y-108871603D01*
X117627300Y-108873654D01*
X117668436Y-108889876D01*
X117686117Y-108891693D01*
X117707217Y-108895704D01*
X117724335Y-108900500D01*
X117768547Y-108900500D01*
X117774995Y-108900831D01*
X117818970Y-108905352D01*
X117818970Y-108905351D01*
X117818972Y-108905352D01*
X117829356Y-108903561D01*
X117836489Y-108902332D01*
X117857896Y-108900500D01*
X129019785Y-108900500D01*
X129087906Y-108920502D01*
X129108880Y-108937405D01*
X142304093Y-122132618D01*
X142349320Y-122181044D01*
X142380437Y-122199966D01*
X142387089Y-122204012D01*
X142392423Y-122207641D01*
X142427658Y-122234361D01*
X142444203Y-122240885D01*
X142463429Y-122250435D01*
X142478618Y-122259672D01*
X142521203Y-122271603D01*
X142527300Y-122273654D01*
X142568436Y-122289876D01*
X142586117Y-122291693D01*
X142607217Y-122295704D01*
X142624335Y-122300500D01*
X142668547Y-122300500D01*
X142674995Y-122300831D01*
X142718970Y-122305352D01*
X142718970Y-122305351D01*
X142718972Y-122305352D01*
X142729356Y-122303561D01*
X142736489Y-122302332D01*
X142757896Y-122300500D01*
X151119785Y-122300500D01*
X151187906Y-122320502D01*
X151208880Y-122337405D01*
X154312595Y-125441119D01*
X154346621Y-125503431D01*
X154349500Y-125530214D01*
X154349500Y-143469785D01*
X154329498Y-143537906D01*
X154312595Y-143558880D01*
X151758880Y-146112595D01*
X151696568Y-146146621D01*
X151669785Y-146149500D01*
X139482765Y-146149500D01*
X139414644Y-146129498D01*
X139404011Y-146121446D01*
X139400851Y-146119265D01*
X139250225Y-146040210D01*
X139250221Y-146040208D01*
X139085059Y-145999500D01*
X139085056Y-145999500D01*
X138914944Y-145999500D01*
X138914940Y-145999500D01*
X138749778Y-146040208D01*
X138749774Y-146040210D01*
X138599148Y-146119265D01*
X138599142Y-146119270D01*
X138471818Y-146232069D01*
X138471816Y-146232071D01*
X138375181Y-146372070D01*
X138375179Y-146372074D01*
X138314859Y-146531128D01*
X138294355Y-146699997D01*
X138294355Y-146700002D01*
X138314859Y-146868871D01*
X138375179Y-147027925D01*
X138375181Y-147027929D01*
X138471816Y-147167928D01*
X138471818Y-147167930D01*
X138596016Y-147277960D01*
X138599148Y-147280734D01*
X138749775Y-147359790D01*
X138749776Y-147359790D01*
X138749778Y-147359791D01*
X138837455Y-147381401D01*
X138914944Y-147400500D01*
X138914947Y-147400500D01*
X139085053Y-147400500D01*
X139085056Y-147400500D01*
X139250225Y-147359790D01*
X139400852Y-147280734D01*
X139400858Y-147280729D01*
X139407126Y-147276403D01*
X139408201Y-147277960D01*
X139463471Y-147251986D01*
X139482765Y-147250500D01*
X151940603Y-147250500D01*
X152006826Y-147252762D01*
X152032730Y-147246448D01*
X152049772Y-147242296D01*
X152056116Y-147241090D01*
X152061444Y-147240357D01*
X152099920Y-147235070D01*
X152116225Y-147227986D01*
X152136590Y-147221138D01*
X152153852Y-147216933D01*
X152192402Y-147195256D01*
X152198167Y-147192394D01*
X152238720Y-147174780D01*
X152252506Y-147163563D01*
X152270264Y-147151477D01*
X152285759Y-147142766D01*
X152317033Y-147111490D01*
X152321805Y-147107184D01*
X152356108Y-147079278D01*
X152366360Y-147064752D01*
X152380197Y-147048326D01*
X155282618Y-144145906D01*
X155331044Y-144100680D01*
X155354021Y-144062894D01*
X155357637Y-144057581D01*
X155384361Y-144022342D01*
X155390880Y-144005809D01*
X155400441Y-143986561D01*
X155409672Y-143971382D01*
X155421603Y-143928795D01*
X155423649Y-143922710D01*
X155439876Y-143881564D01*
X155441694Y-143863879D01*
X155445704Y-143842779D01*
X155450500Y-143825665D01*
X155450500Y-143781452D01*
X155450831Y-143775004D01*
X155455352Y-143731029D01*
X155452332Y-143713511D01*
X155450500Y-143692104D01*
X155450500Y-125259396D01*
X155452762Y-125193174D01*
X155442295Y-125150225D01*
X155441090Y-125143885D01*
X155438856Y-125127629D01*
X155435070Y-125100080D01*
X155427988Y-125083778D01*
X155421137Y-125063403D01*
X155416934Y-125046153D01*
X155416933Y-125046148D01*
X155395258Y-125007598D01*
X155392401Y-125001848D01*
X155374780Y-124961280D01*
X155363561Y-124947491D01*
X155351474Y-124929731D01*
X155342765Y-124914241D01*
X155342762Y-124914238D01*
X155342760Y-124914235D01*
X155311512Y-124882987D01*
X155307187Y-124878196D01*
X155279278Y-124843892D01*
X155279276Y-124843890D01*
X155264751Y-124833637D01*
X155248319Y-124819795D01*
X151795907Y-121367382D01*
X151750683Y-121318958D01*
X151750682Y-121318957D01*
X151742311Y-121313866D01*
X151712899Y-121295980D01*
X151707575Y-121292356D01*
X151672339Y-121265637D01*
X151655806Y-121259117D01*
X151636568Y-121249562D01*
X151621383Y-121240328D01*
X151621380Y-121240327D01*
X151600412Y-121234452D01*
X151578802Y-121228397D01*
X151572695Y-121226343D01*
X151531566Y-121210124D01*
X151519456Y-121208878D01*
X151513873Y-121208304D01*
X151492784Y-121204296D01*
X151475665Y-121199500D01*
X151475662Y-121199500D01*
X151431453Y-121199500D01*
X151425005Y-121199169D01*
X151381029Y-121194647D01*
X151363511Y-121197668D01*
X151342104Y-121199500D01*
X142980215Y-121199500D01*
X142912094Y-121179498D01*
X142891120Y-121162595D01*
X129695906Y-107967381D01*
X129650683Y-107918958D01*
X129650682Y-107918957D01*
X129642311Y-107913866D01*
X129612899Y-107895980D01*
X129607575Y-107892356D01*
X129572339Y-107865637D01*
X129555806Y-107859117D01*
X129536568Y-107849562D01*
X129521383Y-107840328D01*
X129521380Y-107840327D01*
X129500412Y-107834452D01*
X129478802Y-107828397D01*
X129472695Y-107826343D01*
X129431566Y-107810124D01*
X129419456Y-107808878D01*
X129413873Y-107808304D01*
X129392784Y-107804296D01*
X129375665Y-107799500D01*
X129375662Y-107799500D01*
X129331453Y-107799500D01*
X129325005Y-107799169D01*
X129281029Y-107794647D01*
X129263511Y-107797668D01*
X129242104Y-107799500D01*
X118080214Y-107799500D01*
X118012093Y-107779498D01*
X117991123Y-107762599D01*
X116495907Y-106267382D01*
X116472964Y-106242816D01*
X116450683Y-106218958D01*
X116450682Y-106218957D01*
X116442311Y-106213866D01*
X116412899Y-106195980D01*
X116407575Y-106192356D01*
X116372339Y-106165637D01*
X116355806Y-106159117D01*
X116336568Y-106149562D01*
X116321383Y-106140328D01*
X116321380Y-106140327D01*
X116295468Y-106133067D01*
X116278802Y-106128397D01*
X116272695Y-106126343D01*
X116231566Y-106110124D01*
X116219456Y-106108878D01*
X116213873Y-106108304D01*
X116192784Y-106104296D01*
X116175665Y-106099500D01*
X116175662Y-106099500D01*
X116131453Y-106099500D01*
X116125005Y-106099169D01*
X116081029Y-106094647D01*
X116063511Y-106097668D01*
X116042104Y-106099500D01*
X109309397Y-106099500D01*
X109243174Y-106097238D01*
X109243173Y-106097238D01*
X109200218Y-106107705D01*
X109193878Y-106108910D01*
X109150087Y-106114928D01*
X109150075Y-106114931D01*
X109133768Y-106122014D01*
X109113413Y-106128858D01*
X109096154Y-106133064D01*
X109096145Y-106133067D01*
X109057612Y-106154733D01*
X109051834Y-106157603D01*
X109011280Y-106175219D01*
X108997486Y-106186441D01*
X108979733Y-106198524D01*
X108964238Y-106207236D01*
X108932980Y-106238494D01*
X108928190Y-106242816D01*
X108893893Y-106270720D01*
X108893890Y-106270723D01*
X108883640Y-106285244D01*
X108869800Y-106301673D01*
X108217382Y-106954092D01*
X108168959Y-106999317D01*
X108168953Y-106999323D01*
X108145985Y-107037091D01*
X108142356Y-107042424D01*
X108115639Y-107077656D01*
X108109115Y-107094199D01*
X108099564Y-107113428D01*
X108090328Y-107128617D01*
X108078397Y-107171194D01*
X108076341Y-107177309D01*
X108060124Y-107218435D01*
X108060123Y-107218441D01*
X108058304Y-107236122D01*
X108054296Y-107257212D01*
X108049500Y-107274333D01*
X108049500Y-107318547D01*
X108049169Y-107324995D01*
X108044647Y-107368969D01*
X108047668Y-107386487D01*
X108049500Y-107407895D01*
X108049500Y-107416231D01*
X108029498Y-107484352D01*
X108012595Y-107505326D01*
X107970183Y-107547737D01*
X107970182Y-107547739D01*
X107874212Y-107700474D01*
X107874211Y-107700477D01*
X107839562Y-107799500D01*
X107814632Y-107870745D01*
X107799500Y-108005046D01*
X107799500Y-114694954D01*
X106056593Y-114694954D01*
X106061331Y-114674197D01*
X106051138Y-114538172D01*
X106001303Y-114411195D01*
X105916255Y-114304547D01*
X105803550Y-114227707D01*
X105803548Y-114227706D01*
X105803546Y-114227705D01*
X105710616Y-114199040D01*
X105673203Y-114187500D01*
X105571090Y-114187500D01*
X105503774Y-114197646D01*
X105470115Y-114202719D01*
X105347219Y-114261903D01*
X105247223Y-114354686D01*
X105247223Y-114354687D01*
X105179023Y-114472811D01*
X105179021Y-114472818D01*
X105148669Y-114605800D01*
X105148669Y-114605801D01*
X105158862Y-114741829D01*
X105208697Y-114868805D01*
X105253762Y-114925316D01*
X105293745Y-114975453D01*
X105406450Y-115052293D01*
X105406451Y-115052293D01*
X105414251Y-115057611D01*
X105412410Y-115060310D01*
X105452885Y-115096843D01*
X105471504Y-115165355D01*
X105450127Y-115233057D01*
X105395541Y-115278454D01*
X105382512Y-115282719D01*
X105382536Y-115282786D01*
X105205697Y-115344663D01*
X105053051Y-115440576D01*
X104925576Y-115568051D01*
X104829663Y-115720697D01*
X104770124Y-115890851D01*
X104770123Y-115890857D01*
X104766840Y-115920000D01*
X105292343Y-115920000D01*
X105281799Y-115933962D01*
X105251105Y-116041840D01*
X105261454Y-116153521D01*
X105294557Y-116220000D01*
X104766840Y-116220000D01*
X103113160Y-116220000D01*
X102587657Y-116220000D01*
X102598201Y-116206038D01*
X102628895Y-116098160D01*
X102618546Y-115986479D01*
X102585443Y-115920000D01*
X103113160Y-115920000D01*
X103109876Y-115890857D01*
X103109875Y-115890851D01*
X103050336Y-115720697D01*
X102954423Y-115568051D01*
X102826948Y-115440576D01*
X102674302Y-115344663D01*
X102504145Y-115285124D01*
X102504146Y-115285124D01*
X102369926Y-115270000D01*
X102075000Y-115270000D01*
X102075000Y-115770000D01*
X101775000Y-115770000D01*
X101775000Y-115270000D01*
X101480074Y-115270000D01*
X101345853Y-115285124D01*
X101175697Y-115344663D01*
X101023051Y-115440576D01*
X100895576Y-115568051D01*
X100799663Y-115720697D01*
X100740124Y-115890851D01*
X100740123Y-115890857D01*
X100736840Y-115920000D01*
X101262343Y-115920000D01*
X101251799Y-115933962D01*
X101221105Y-116041840D01*
X101231454Y-116153521D01*
X101264557Y-116220000D01*
X100736840Y-116220000D01*
X100400500Y-116220000D01*
X100400500Y-107580000D01*
X100736840Y-107580000D01*
X100740123Y-107609142D01*
X100740124Y-107609148D01*
X100799663Y-107779302D01*
X100895576Y-107931948D01*
X101023051Y-108059423D01*
X101175697Y-108155336D01*
X101345854Y-108214875D01*
X101345853Y-108214875D01*
X101480074Y-108230000D01*
X101775000Y-108230000D01*
X101775000Y-107730000D01*
X102075000Y-107730000D01*
X102075000Y-108230000D01*
X102369926Y-108230000D01*
X102504146Y-108214875D01*
X102674302Y-108155336D01*
X102826948Y-108059423D01*
X102954423Y-107931948D01*
X103050336Y-107779302D01*
X103109875Y-107609148D01*
X103109876Y-107609142D01*
X103113160Y-107580000D01*
X104766840Y-107580000D01*
X104770123Y-107609142D01*
X104770124Y-107609148D01*
X104829663Y-107779302D01*
X104925576Y-107931948D01*
X105053051Y-108059423D01*
X105205697Y-108155336D01*
X105375851Y-108214875D01*
X105381560Y-108216178D01*
X105443521Y-108250838D01*
X105476909Y-108313494D01*
X105471121Y-108384255D01*
X105427996Y-108440653D01*
X105408191Y-108452541D01*
X105347220Y-108481903D01*
X105247223Y-108574686D01*
X105247223Y-108574687D01*
X105179023Y-108692811D01*
X105179021Y-108692818D01*
X105148669Y-108825800D01*
X105148669Y-108825801D01*
X105158862Y-108961829D01*
X105208697Y-109088805D01*
X105253762Y-109145316D01*
X105293745Y-109195453D01*
X105406450Y-109272293D01*
X105536797Y-109312500D01*
X105536798Y-109312500D01*
X105638906Y-109312500D01*
X105638910Y-109312500D01*
X105739883Y-109297281D01*
X105862781Y-109238096D01*
X105962775Y-109145316D01*
X106030978Y-109027184D01*
X106061331Y-108894197D01*
X106051138Y-108758172D01*
X106001303Y-108631195D01*
X105916255Y-108524547D01*
X105821736Y-108460105D01*
X105776720Y-108405207D01*
X105768530Y-108334684D01*
X105799768Y-108270929D01*
X105860516Y-108234183D01*
X105892714Y-108230000D01*
X105955000Y-108230000D01*
X105955000Y-107730000D01*
X106255000Y-107730000D01*
X106255000Y-108230000D01*
X106699926Y-108230000D01*
X106834146Y-108214875D01*
X107004302Y-108155336D01*
X107156948Y-108059423D01*
X107284423Y-107931948D01*
X107380336Y-107779302D01*
X107439875Y-107609148D01*
X107439876Y-107609142D01*
X107443160Y-107580000D01*
X106917657Y-107580000D01*
X106928201Y-107566038D01*
X106958895Y-107458160D01*
X106948546Y-107346479D01*
X106915443Y-107280000D01*
X107443160Y-107280000D01*
X107439876Y-107250857D01*
X107439875Y-107250851D01*
X107380336Y-107080697D01*
X107284423Y-106928051D01*
X107156948Y-106800576D01*
X107004302Y-106704663D01*
X106834145Y-106645124D01*
X106834146Y-106645124D01*
X106699926Y-106630000D01*
X106255000Y-106630000D01*
X106255000Y-107130000D01*
X105955000Y-107130000D01*
X105955000Y-106630000D01*
X105510074Y-106630000D01*
X105375853Y-106645124D01*
X105205697Y-106704663D01*
X105053051Y-106800576D01*
X104925576Y-106928051D01*
X104829663Y-107080697D01*
X104770124Y-107250851D01*
X104770123Y-107250857D01*
X104766840Y-107280000D01*
X105292343Y-107280000D01*
X105281799Y-107293962D01*
X105251105Y-107401840D01*
X105261454Y-107513521D01*
X105294557Y-107580000D01*
X104766840Y-107580000D01*
X103113160Y-107580000D01*
X102587657Y-107580000D01*
X102598201Y-107566038D01*
X102628895Y-107458160D01*
X102618546Y-107346479D01*
X102585443Y-107280000D01*
X103113160Y-107280000D01*
X103109876Y-107250857D01*
X103109875Y-107250851D01*
X103050336Y-107080697D01*
X102954423Y-106928051D01*
X102826948Y-106800576D01*
X102674302Y-106704663D01*
X102504145Y-106645124D01*
X102504146Y-106645124D01*
X102369926Y-106630000D01*
X102075000Y-106630000D01*
X102075000Y-107130000D01*
X101775000Y-107130000D01*
X101775000Y-106630000D01*
X101480074Y-106630000D01*
X101345853Y-106645124D01*
X101175697Y-106704663D01*
X101023051Y-106800576D01*
X100895576Y-106928051D01*
X100799663Y-107080697D01*
X100740124Y-107250851D01*
X100740123Y-107250857D01*
X100736840Y-107280000D01*
X101262343Y-107280000D01*
X101251799Y-107293962D01*
X101221105Y-107401840D01*
X101231454Y-107513521D01*
X101264557Y-107580000D01*
X100736840Y-107580000D01*
X100400500Y-107580000D01*
X100400500Y-102933637D01*
X101268687Y-102933637D01*
X101278847Y-103198701D01*
X101329348Y-103459097D01*
X101419011Y-103708747D01*
X101419015Y-103708755D01*
X101545728Y-103941775D01*
X101545729Y-103941776D01*
X101706534Y-104152733D01*
X101897657Y-104336670D01*
X102114617Y-104489277D01*
X102352331Y-104606976D01*
X102605225Y-104687009D01*
X102709721Y-104703149D01*
X102867361Y-104727499D01*
X102867370Y-104727499D01*
X102867372Y-104727500D01*
X102867373Y-104727500D01*
X103066219Y-104727500D01*
X103066220Y-104727500D01*
X103105669Y-104724471D01*
X103264469Y-104712280D01*
X103264470Y-104712279D01*
X103264478Y-104712279D01*
X103522756Y-104651839D01*
X103768782Y-104552682D01*
X103996788Y-104417131D01*
X104201430Y-104248364D01*
X104377912Y-104050336D01*
X104522096Y-103827690D01*
X104630604Y-103585643D01*
X104700892Y-103329869D01*
X104731313Y-103066363D01*
X104726226Y-102933637D01*
X155268687Y-102933637D01*
X155278847Y-103198701D01*
X155329348Y-103459097D01*
X155419011Y-103708747D01*
X155419015Y-103708755D01*
X155545728Y-103941775D01*
X155545729Y-103941776D01*
X155706534Y-104152733D01*
X155897657Y-104336670D01*
X156114617Y-104489277D01*
X156352331Y-104606976D01*
X156605225Y-104687009D01*
X156709721Y-104703149D01*
X156867361Y-104727499D01*
X156867370Y-104727499D01*
X156867372Y-104727500D01*
X156867373Y-104727500D01*
X157066219Y-104727500D01*
X157066220Y-104727500D01*
X157105669Y-104724471D01*
X157264469Y-104712280D01*
X157264470Y-104712279D01*
X157264478Y-104712279D01*
X157522756Y-104651839D01*
X157768782Y-104552682D01*
X157996788Y-104417131D01*
X158201430Y-104248364D01*
X158377912Y-104050336D01*
X158522096Y-103827690D01*
X158630604Y-103585643D01*
X158700892Y-103329869D01*
X158731313Y-103066363D01*
X158721153Y-102801301D01*
X158670650Y-102540897D01*
X158580989Y-102291254D01*
X158454271Y-102058224D01*
X158293466Y-101847267D01*
X158102343Y-101663330D01*
X157885383Y-101510723D01*
X157647669Y-101393024D01*
X157394775Y-101312991D01*
X157394773Y-101312990D01*
X157394771Y-101312990D01*
X157132638Y-101272500D01*
X157132628Y-101272500D01*
X156933780Y-101272500D01*
X156923374Y-101273298D01*
X156735530Y-101287719D01*
X156668082Y-101303502D01*
X156477244Y-101348161D01*
X156477241Y-101348161D01*
X156477237Y-101348163D01*
X156231223Y-101447315D01*
X156231213Y-101447320D01*
X156003217Y-101582865D01*
X156003210Y-101582870D01*
X155798576Y-101751629D01*
X155798570Y-101751635D01*
X155622086Y-101949666D01*
X155622084Y-101949669D01*
X155477903Y-102172310D01*
X155477901Y-102172313D01*
X155369397Y-102414353D01*
X155299109Y-102670125D01*
X155299107Y-102670132D01*
X155268687Y-102933635D01*
X155268687Y-102933637D01*
X104726226Y-102933637D01*
X104721153Y-102801301D01*
X104670650Y-102540897D01*
X104580989Y-102291254D01*
X104454271Y-102058224D01*
X104293466Y-101847267D01*
X104102343Y-101663330D01*
X103885383Y-101510723D01*
X103647669Y-101393024D01*
X103394775Y-101312991D01*
X103394773Y-101312990D01*
X103394771Y-101312990D01*
X103132638Y-101272500D01*
X103132628Y-101272500D01*
X102933780Y-101272500D01*
X102923374Y-101273298D01*
X102735530Y-101287719D01*
X102668082Y-101303502D01*
X102477244Y-101348161D01*
X102477241Y-101348161D01*
X102477237Y-101348163D01*
X102231223Y-101447315D01*
X102231213Y-101447320D01*
X102003217Y-101582865D01*
X102003210Y-101582870D01*
X101798576Y-101751629D01*
X101798570Y-101751635D01*
X101622086Y-101949666D01*
X101622084Y-101949669D01*
X101477903Y-102172310D01*
X101477901Y-102172313D01*
X101369397Y-102414353D01*
X101299109Y-102670125D01*
X101299107Y-102670132D01*
X101268687Y-102933635D01*
X101268687Y-102933637D01*
X100400500Y-102933637D01*
X100400500Y-100526500D01*
X100420502Y-100458379D01*
X100474158Y-100411886D01*
X100526500Y-100400500D01*
X159473500Y-100400500D01*
X159541621Y-100420502D01*
G37*
%TD.AperFunction*%
%TD*%
%TA.AperFunction,Conductor*%
%TO.N,GND1*%
G36*
X104559770Y-118770002D02*
G01*
X104606263Y-118823658D01*
X104616367Y-118893932D01*
X104586873Y-118958512D01*
X104575203Y-118970312D01*
X104563351Y-118980812D01*
X104499098Y-119011013D01*
X104479797Y-119012500D01*
X103308358Y-119012500D01*
X103281573Y-119009620D01*
X103277073Y-119008641D01*
X103277072Y-119008641D01*
X103225366Y-119012339D01*
X103220870Y-119012500D01*
X103205201Y-119012500D01*
X103189690Y-119014729D01*
X103185223Y-119015209D01*
X103133516Y-119018909D01*
X103133512Y-119018909D01*
X103129186Y-119020523D01*
X103103117Y-119027176D01*
X103098548Y-119027833D01*
X103098544Y-119027834D01*
X103051389Y-119049369D01*
X103047239Y-119051087D01*
X103040862Y-119053466D01*
X102998670Y-119069202D01*
X102998665Y-119069205D01*
X102994969Y-119071972D01*
X102971824Y-119085705D01*
X102967628Y-119087621D01*
X102928446Y-119121571D01*
X102924948Y-119124390D01*
X102912405Y-119133780D01*
X102901327Y-119144858D01*
X102898039Y-119147919D01*
X102858858Y-119181870D01*
X102858854Y-119181874D01*
X102856358Y-119185759D01*
X102839461Y-119206724D01*
X101420721Y-120625463D01*
X101399758Y-120642359D01*
X101395873Y-120644856D01*
X101395868Y-120644859D01*
X101361925Y-120684031D01*
X101358866Y-120687317D01*
X101347778Y-120698408D01*
X101347775Y-120698411D01*
X101338384Y-120710955D01*
X101335564Y-120714454D01*
X101301621Y-120753627D01*
X101299707Y-120757820D01*
X101285965Y-120780979D01*
X101281317Y-120787188D01*
X101269544Y-120800775D01*
X101156719Y-120913599D01*
X101135752Y-120930497D01*
X101131871Y-120932991D01*
X101097924Y-120972166D01*
X101094865Y-120975452D01*
X101083778Y-120986542D01*
X101083775Y-120986545D01*
X101074384Y-120999089D01*
X101071564Y-121002588D01*
X101037623Y-121041759D01*
X101035709Y-121045952D01*
X101021969Y-121069109D01*
X101019202Y-121072804D01*
X101001090Y-121121368D01*
X100999369Y-121125523D01*
X100977834Y-121172678D01*
X100977833Y-121172682D01*
X100977176Y-121177251D01*
X100970523Y-121203320D01*
X100968909Y-121207646D01*
X100968909Y-121207650D01*
X100965209Y-121259357D01*
X100964729Y-121263824D01*
X100962500Y-121279335D01*
X100962500Y-121295001D01*
X100962339Y-121299497D01*
X100958727Y-121350000D01*
X100958641Y-121351207D01*
X100959620Y-121355710D01*
X100962500Y-121382491D01*
X100962500Y-129097640D01*
X100959621Y-129124420D01*
X100958641Y-129128923D01*
X100958641Y-129128928D01*
X100962339Y-129180634D01*
X100962500Y-129185130D01*
X100962500Y-129200799D01*
X100964729Y-129216311D01*
X100965209Y-129220778D01*
X100968908Y-129272480D01*
X100968910Y-129272488D01*
X100970521Y-129276808D01*
X100977177Y-129302883D01*
X100977834Y-129307455D01*
X100977836Y-129307462D01*
X100999365Y-129354603D01*
X101001086Y-129358757D01*
X101010983Y-129385291D01*
X101019204Y-129407331D01*
X101019205Y-129407332D01*
X101021968Y-129411024D01*
X101035706Y-129434178D01*
X101037619Y-129438367D01*
X101037621Y-129438370D01*
X101037622Y-129438371D01*
X101037623Y-129438373D01*
X101071565Y-129477544D01*
X101074379Y-129481036D01*
X101083779Y-129493593D01*
X101094865Y-129504679D01*
X101097919Y-129507959D01*
X101131872Y-129547143D01*
X101135751Y-129549635D01*
X101156723Y-129566537D01*
X103684595Y-132094409D01*
X103718621Y-132156721D01*
X103721500Y-132183504D01*
X103721500Y-134782494D01*
X103701498Y-134850615D01*
X103684595Y-134871590D01*
X103093718Y-135462466D01*
X103072755Y-135479361D01*
X103068873Y-135481856D01*
X103068868Y-135481859D01*
X103034925Y-135521031D01*
X103031866Y-135524317D01*
X103020778Y-135535408D01*
X103020775Y-135535411D01*
X103011384Y-135547955D01*
X103008564Y-135551454D01*
X102974623Y-135590625D01*
X102972709Y-135594818D01*
X102958969Y-135617975D01*
X102956202Y-135621670D01*
X102938090Y-135670234D01*
X102936369Y-135674389D01*
X102914834Y-135721544D01*
X102914833Y-135721548D01*
X102914176Y-135726117D01*
X102907523Y-135752186D01*
X102905909Y-135756512D01*
X102905909Y-135756516D01*
X102902209Y-135808223D01*
X102901729Y-135812690D01*
X102899500Y-135828201D01*
X102899500Y-135843867D01*
X102899339Y-135848363D01*
X102896160Y-135892811D01*
X102895641Y-135900073D01*
X102896620Y-135904576D01*
X102899500Y-135931357D01*
X102899500Y-142458184D01*
X102879498Y-142526305D01*
X102825842Y-142572798D01*
X102755568Y-142582902D01*
X102706466Y-142564873D01*
X102674300Y-142544663D01*
X102504145Y-142485124D01*
X102504146Y-142485124D01*
X102369926Y-142470000D01*
X102075000Y-142470000D01*
X102075000Y-142970000D01*
X101775000Y-142970000D01*
X101775000Y-142470000D01*
X101480074Y-142470000D01*
X101345853Y-142485124D01*
X101175697Y-142544663D01*
X101023051Y-142640576D01*
X100895576Y-142768051D01*
X100799663Y-142920697D01*
X100740124Y-143090851D01*
X100740123Y-143090857D01*
X100736840Y-143120000D01*
X101262343Y-143120000D01*
X101251799Y-143133962D01*
X101221105Y-143241840D01*
X101231454Y-143353521D01*
X101264557Y-143420000D01*
X100736840Y-143420000D01*
X100740123Y-143449142D01*
X100740124Y-143449148D01*
X100799663Y-143619302D01*
X100895576Y-143771948D01*
X101023051Y-143899423D01*
X101175697Y-143995336D01*
X101345854Y-144054875D01*
X101345853Y-144054875D01*
X101480074Y-144070000D01*
X101775000Y-144070000D01*
X101775000Y-143570000D01*
X102075000Y-143570000D01*
X102075000Y-144070000D01*
X102369926Y-144070000D01*
X102504146Y-144054875D01*
X102674302Y-143995336D01*
X102826948Y-143899423D01*
X102954423Y-143771948D01*
X103050334Y-143619305D01*
X103055056Y-143605812D01*
X103096435Y-143548120D01*
X103162435Y-143521957D01*
X103232102Y-143535629D01*
X103263081Y-143558331D01*
X109011025Y-149306275D01*
X109027926Y-149327246D01*
X109030420Y-149331127D01*
X109069602Y-149365078D01*
X109072881Y-149368131D01*
X109083971Y-149379221D01*
X109096527Y-149388620D01*
X109100020Y-149391435D01*
X109139191Y-149425377D01*
X109143378Y-149427289D01*
X109166539Y-149441031D01*
X109170233Y-149443796D01*
X109170236Y-149443798D01*
X109203473Y-149456193D01*
X109218810Y-149461914D01*
X109222940Y-149463624D01*
X109270107Y-149485165D01*
X109274671Y-149485821D01*
X109300766Y-149492481D01*
X109305081Y-149494091D01*
X109356792Y-149497789D01*
X109361221Y-149498264D01*
X109376765Y-149500500D01*
X109392434Y-149500500D01*
X109396930Y-149500661D01*
X109413111Y-149501817D01*
X109448637Y-149504359D01*
X109453137Y-149503379D01*
X109479922Y-149500500D01*
X109508035Y-149500500D01*
X109576156Y-149520502D01*
X109620825Y-149570336D01*
X109646288Y-149621472D01*
X109646289Y-149621473D01*
X109777571Y-149795321D01*
X109938568Y-149942088D01*
X109938569Y-149942089D01*
X110123780Y-150056767D01*
X110123787Y-150056770D01*
X110123790Y-150056772D01*
X110123794Y-150056773D01*
X110123795Y-150056774D01*
X110326926Y-150135468D01*
X110326931Y-150135470D01*
X110541074Y-150175500D01*
X110541076Y-150175500D01*
X110758924Y-150175500D01*
X110758926Y-150175500D01*
X110973069Y-150135470D01*
X111176210Y-150056772D01*
X111176215Y-150056768D01*
X111176219Y-150056767D01*
X111361430Y-149942089D01*
X111361429Y-149942089D01*
X111361432Y-149942088D01*
X111522427Y-149795322D01*
X111653712Y-149621472D01*
X111750817Y-149426459D01*
X111810435Y-149216923D01*
X111830536Y-149000000D01*
X113969966Y-149000000D01*
X113990058Y-149216832D01*
X114049649Y-149426272D01*
X114146716Y-149621209D01*
X114219834Y-149718032D01*
X114708802Y-149229063D01*
X114772057Y-149327489D01*
X114879631Y-149420702D01*
X114922054Y-149440076D01*
X114429231Y-149932899D01*
X114438871Y-149941687D01*
X114624010Y-150056320D01*
X114624019Y-150056325D01*
X114827063Y-150134985D01*
X114827062Y-150134985D01*
X115041122Y-150175000D01*
X115258878Y-150175000D01*
X115472937Y-150134985D01*
X115675980Y-150056325D01*
X115675989Y-150056320D01*
X115861128Y-149941687D01*
X115870766Y-149932899D01*
X115870766Y-149932897D01*
X115377945Y-149440076D01*
X115420369Y-149420702D01*
X115527943Y-149327489D01*
X115591196Y-149229065D01*
X116080163Y-149718032D01*
X116080164Y-149718032D01*
X116153285Y-149621205D01*
X116250350Y-149426272D01*
X116309941Y-149216832D01*
X116330033Y-149000000D01*
X116309941Y-148783167D01*
X116250350Y-148573727D01*
X116153283Y-148378790D01*
X116080164Y-148281966D01*
X115591196Y-148770934D01*
X115527943Y-148672511D01*
X115420369Y-148579298D01*
X115377944Y-148559923D01*
X115870767Y-148067099D01*
X115861128Y-148058312D01*
X115675989Y-147943679D01*
X115675980Y-147943674D01*
X115472936Y-147865014D01*
X115472937Y-147865014D01*
X115258878Y-147825000D01*
X115041122Y-147825000D01*
X114827062Y-147865014D01*
X114624019Y-147943674D01*
X114624010Y-147943679D01*
X114438875Y-148058310D01*
X114438871Y-148058313D01*
X114429231Y-148067100D01*
X114922054Y-148559923D01*
X114879631Y-148579298D01*
X114772057Y-148672511D01*
X114708803Y-148770934D01*
X114219835Y-148281966D01*
X114219833Y-148281966D01*
X114146716Y-148378789D01*
X114049649Y-148573727D01*
X113990058Y-148783167D01*
X113969966Y-149000000D01*
X111830536Y-149000000D01*
X111824646Y-148936440D01*
X111810435Y-148783078D01*
X111750819Y-148573549D01*
X111750817Y-148573541D01*
X111653712Y-148378528D01*
X111587806Y-148291254D01*
X111522428Y-148204678D01*
X111361431Y-148057911D01*
X111361430Y-148057910D01*
X111176219Y-147943232D01*
X111176204Y-147943225D01*
X110973073Y-147864531D01*
X110973074Y-147864531D01*
X110973069Y-147864530D01*
X110758926Y-147824500D01*
X110541074Y-147824500D01*
X110379479Y-147854707D01*
X110326925Y-147864531D01*
X110123795Y-147943225D01*
X110123780Y-147943232D01*
X109938569Y-148057910D01*
X109938568Y-148057911D01*
X109777571Y-148204678D01*
X109670134Y-148346948D01*
X109613120Y-148389256D01*
X109542283Y-148394023D01*
X109480489Y-148360111D01*
X109192093Y-148071715D01*
X109158067Y-148009403D01*
X109163132Y-147938588D01*
X109205679Y-147881752D01*
X109272199Y-147856941D01*
X109292170Y-147857100D01*
X109322229Y-147859729D01*
X109390000Y-147865659D01*
X109625408Y-147845063D01*
X109853663Y-147783903D01*
X110067830Y-147684035D01*
X110261401Y-147548495D01*
X110428495Y-147381401D01*
X110564035Y-147187830D01*
X110663903Y-146973663D01*
X110725063Y-146745408D01*
X110745659Y-146510000D01*
X115044341Y-146510000D01*
X115064937Y-146745411D01*
X115126096Y-146973661D01*
X115126098Y-146973665D01*
X115225965Y-147187830D01*
X115326027Y-147330734D01*
X115361505Y-147381401D01*
X115528599Y-147548495D01*
X115722170Y-147684035D01*
X115936337Y-147783903D01*
X116164592Y-147845063D01*
X116400000Y-147865659D01*
X116635408Y-147845063D01*
X116863663Y-147783903D01*
X117077830Y-147684035D01*
X117271401Y-147548495D01*
X117438495Y-147381401D01*
X117574035Y-147187830D01*
X117673903Y-146973663D01*
X117735063Y-146745408D01*
X117755659Y-146510000D01*
X117735063Y-146274592D01*
X117673903Y-146046337D01*
X117574035Y-145832171D01*
X117574034Y-145832170D01*
X117574033Y-145832167D01*
X117438501Y-145638607D01*
X117438498Y-145638603D01*
X117438495Y-145638599D01*
X117271401Y-145471505D01*
X117196233Y-145418872D01*
X117077830Y-145335965D01*
X116893478Y-145250000D01*
X116863663Y-145236097D01*
X116863661Y-145236096D01*
X116635411Y-145174937D01*
X116400000Y-145154341D01*
X116164588Y-145174937D01*
X115936338Y-145236096D01*
X115936334Y-145236098D01*
X115722167Y-145335966D01*
X115528607Y-145471498D01*
X115528596Y-145471507D01*
X115361507Y-145638596D01*
X115361498Y-145638607D01*
X115225966Y-145832167D01*
X115126098Y-146046334D01*
X115126096Y-146046338D01*
X115064937Y-146274588D01*
X115044341Y-146510000D01*
X110745659Y-146510000D01*
X110725063Y-146274592D01*
X110663903Y-146046337D01*
X110564035Y-145832171D01*
X110564034Y-145832170D01*
X110564033Y-145832167D01*
X110428501Y-145638607D01*
X110428498Y-145638603D01*
X110428495Y-145638599D01*
X110261401Y-145471505D01*
X110186233Y-145418872D01*
X110067830Y-145335965D01*
X109883478Y-145250000D01*
X109853663Y-145236097D01*
X109853661Y-145236096D01*
X109625411Y-145174937D01*
X109390000Y-145154341D01*
X109154588Y-145174937D01*
X108926338Y-145236096D01*
X108926334Y-145236098D01*
X108712167Y-145335966D01*
X108518607Y-145471498D01*
X108518596Y-145471507D01*
X108351507Y-145638596D01*
X108351498Y-145638607D01*
X108215966Y-145832167D01*
X108116098Y-146046334D01*
X108116096Y-146046338D01*
X108054937Y-146274588D01*
X108034341Y-146510000D01*
X108042900Y-146607830D01*
X108028910Y-146677435D01*
X107979511Y-146728427D01*
X107910385Y-146744617D01*
X107843479Y-146720864D01*
X107828284Y-146707906D01*
X105404403Y-144284025D01*
X105370377Y-144221713D01*
X105375442Y-144150898D01*
X105417989Y-144094062D01*
X105484509Y-144069251D01*
X105507608Y-144069723D01*
X105510066Y-144070000D01*
X105955000Y-144070000D01*
X105955000Y-143570000D01*
X106255000Y-143570000D01*
X106255000Y-144070000D01*
X106699926Y-144070000D01*
X106834146Y-144054875D01*
X107004302Y-143995336D01*
X107156948Y-143899423D01*
X107284423Y-143771948D01*
X107380336Y-143619302D01*
X107439875Y-143449148D01*
X107439876Y-143449142D01*
X107443160Y-143420000D01*
X106917657Y-143420000D01*
X106928201Y-143406038D01*
X106958895Y-143298160D01*
X106948546Y-143186479D01*
X106915443Y-143120000D01*
X107443160Y-143120000D01*
X107439876Y-143090857D01*
X107439875Y-143090851D01*
X107380336Y-142920697D01*
X107284423Y-142768051D01*
X107156948Y-142640576D01*
X107004302Y-142544663D01*
X106834145Y-142485124D01*
X106834146Y-142485124D01*
X106699926Y-142470000D01*
X106255000Y-142470000D01*
X106255000Y-142970000D01*
X105955000Y-142970000D01*
X105955000Y-142470000D01*
X105891739Y-142470000D01*
X105823618Y-142449998D01*
X105777125Y-142396342D01*
X105767021Y-142326068D01*
X105796515Y-142261488D01*
X105837070Y-142230478D01*
X105843305Y-142227475D01*
X105862781Y-142218096D01*
X105962775Y-142125316D01*
X106030978Y-142007184D01*
X106061331Y-141874197D01*
X106051138Y-141738172D01*
X106001303Y-141611195D01*
X105916255Y-141504547D01*
X105803550Y-141427707D01*
X105803548Y-141427706D01*
X105803546Y-141427705D01*
X105710616Y-141399040D01*
X105673203Y-141387500D01*
X105571090Y-141387500D01*
X105503774Y-141397646D01*
X105470115Y-141402719D01*
X105347219Y-141461903D01*
X105259831Y-141542986D01*
X105249214Y-141552839D01*
X105247223Y-141554686D01*
X105247223Y-141554687D01*
X105179023Y-141672811D01*
X105179021Y-141672818D01*
X105148669Y-141805800D01*
X105148669Y-141805801D01*
X105158862Y-141941829D01*
X105208697Y-142068805D01*
X105253762Y-142125316D01*
X105293745Y-142175453D01*
X105406450Y-142252293D01*
X105406451Y-142252293D01*
X105414251Y-142257611D01*
X105412410Y-142260310D01*
X105452885Y-142296843D01*
X105471504Y-142365355D01*
X105450127Y-142433057D01*
X105395541Y-142478454D01*
X105382512Y-142482719D01*
X105382536Y-142482786D01*
X105205697Y-142544663D01*
X105053051Y-142640576D01*
X104925576Y-142768051D01*
X104829663Y-142920697D01*
X104770124Y-143090851D01*
X104770123Y-143090857D01*
X104766840Y-143120000D01*
X105292343Y-143120000D01*
X105281799Y-143133962D01*
X105251105Y-143241840D01*
X105261454Y-143353521D01*
X105294557Y-143420000D01*
X104766838Y-143420000D01*
X104748774Y-143440214D01*
X104688468Y-143477680D01*
X104617480Y-143476594D01*
X104565728Y-143445350D01*
X103937405Y-142817027D01*
X103903379Y-142754715D01*
X103900500Y-142727932D01*
X103900500Y-140083215D01*
X103920502Y-140015094D01*
X103974158Y-139968601D01*
X104044432Y-139958497D01*
X104109012Y-139987991D01*
X104115595Y-139994120D01*
X104438732Y-140317256D01*
X104754079Y-140632603D01*
X104799320Y-140681044D01*
X104837103Y-140704019D01*
X104842424Y-140707641D01*
X104877658Y-140734361D01*
X104894198Y-140740883D01*
X104913429Y-140750435D01*
X104928618Y-140759672D01*
X104971203Y-140771603D01*
X104977300Y-140773654D01*
X105018436Y-140789876D01*
X105036117Y-140791693D01*
X105057217Y-140795704D01*
X105074335Y-140800500D01*
X105118547Y-140800500D01*
X105124995Y-140800831D01*
X105168970Y-140805352D01*
X105168970Y-140805351D01*
X105168972Y-140805352D01*
X105179356Y-140803561D01*
X105186489Y-140802332D01*
X105207896Y-140800500D01*
X106619785Y-140800500D01*
X106687906Y-140820502D01*
X106708880Y-140837405D01*
X108356600Y-142485124D01*
X110004079Y-144132603D01*
X110049320Y-144181044D01*
X110087089Y-144204012D01*
X110092422Y-144207642D01*
X110110978Y-144221713D01*
X110127657Y-144234361D01*
X110144186Y-144240879D01*
X110163434Y-144250439D01*
X110178616Y-144259671D01*
X110178618Y-144259672D01*
X110221199Y-144271602D01*
X110227302Y-144273655D01*
X110268435Y-144289876D01*
X110286106Y-144291692D01*
X110307216Y-144295703D01*
X110324335Y-144300500D01*
X110368554Y-144300500D01*
X110375001Y-144300831D01*
X110418969Y-144305351D01*
X110418969Y-144305350D01*
X110418971Y-144305351D01*
X110430441Y-144303373D01*
X110436483Y-144302332D01*
X110457889Y-144300500D01*
X117369785Y-144300500D01*
X117437906Y-144320502D01*
X117458880Y-144337405D01*
X119754093Y-146632618D01*
X119799320Y-146681044D01*
X119830437Y-146699966D01*
X119837089Y-146704012D01*
X119842423Y-146707641D01*
X119877658Y-146734361D01*
X119894203Y-146740885D01*
X119913429Y-146750435D01*
X119928618Y-146759672D01*
X119971203Y-146771603D01*
X119977300Y-146773654D01*
X120018436Y-146789876D01*
X120036117Y-146791693D01*
X120057217Y-146795704D01*
X120074335Y-146800500D01*
X120118547Y-146800500D01*
X120124995Y-146800831D01*
X120168970Y-146805352D01*
X120168970Y-146805351D01*
X120168972Y-146805352D01*
X120179356Y-146803561D01*
X120186489Y-146802332D01*
X120207896Y-146800500D01*
X122738860Y-146800500D01*
X122806981Y-146820502D01*
X122853474Y-146874158D01*
X122863941Y-146911309D01*
X122864859Y-146918871D01*
X122925179Y-147077925D01*
X122925181Y-147077929D01*
X122936965Y-147095000D01*
X123021817Y-147217929D01*
X123149148Y-147330734D01*
X123299775Y-147409790D01*
X123299776Y-147409790D01*
X123299778Y-147409791D01*
X123452022Y-147447315D01*
X123464944Y-147450500D01*
X123464947Y-147450500D01*
X123635053Y-147450500D01*
X123635056Y-147450500D01*
X123800225Y-147409790D01*
X123950852Y-147330734D01*
X124078183Y-147217929D01*
X124174818Y-147077930D01*
X124177050Y-147072046D01*
X124203815Y-147001470D01*
X124235140Y-146918872D01*
X124245573Y-146832952D01*
X124255645Y-146750002D01*
X124255645Y-146749997D01*
X124235140Y-146581128D01*
X124174820Y-146422074D01*
X124174818Y-146422070D01*
X124078183Y-146282071D01*
X124078181Y-146282069D01*
X123950857Y-146169270D01*
X123950851Y-146169265D01*
X123800225Y-146090210D01*
X123800219Y-146090208D01*
X123786823Y-146086906D01*
X123725470Y-146051181D01*
X123693170Y-145987958D01*
X123700179Y-145917308D01*
X123744271Y-145861663D01*
X123758413Y-145853007D01*
X123800852Y-145830734D01*
X123928183Y-145717929D01*
X124024818Y-145577930D01*
X124085140Y-145418872D01*
X124105645Y-145250000D01*
X124085140Y-145081128D01*
X124024818Y-144922070D01*
X123928183Y-144782071D01*
X123892945Y-144750853D01*
X123855221Y-144690709D01*
X123850500Y-144656542D01*
X123850500Y-142778842D01*
X123850896Y-142771783D01*
X123851317Y-142768051D01*
X123855270Y-142732965D01*
X123851423Y-142712637D01*
X123844212Y-142674521D01*
X123839095Y-142640576D01*
X123835348Y-142615713D01*
X123835344Y-142615705D01*
X123832824Y-142607534D01*
X123830023Y-142599531D01*
X123830023Y-142599528D01*
X123821236Y-142582902D01*
X123802223Y-142546927D01*
X123785634Y-142512482D01*
X123776425Y-142493358D01*
X123776423Y-142493356D01*
X123776423Y-142493355D01*
X123771619Y-142486308D01*
X123766567Y-142479465D01*
X123766566Y-142479462D01*
X123724503Y-142437399D01*
X123684055Y-142393806D01*
X123684051Y-142393803D01*
X123676672Y-142387918D01*
X123677211Y-142387241D01*
X123664883Y-142377779D01*
X119846909Y-138559805D01*
X119812883Y-138497493D01*
X119817948Y-138426678D01*
X119846906Y-138381617D01*
X120016121Y-138212404D01*
X120078434Y-138178379D01*
X120105216Y-138175500D01*
X124942235Y-138175500D01*
X125010356Y-138195502D01*
X125020988Y-138203553D01*
X125024148Y-138205734D01*
X125174775Y-138284790D01*
X125174776Y-138284790D01*
X125174778Y-138284791D01*
X125325711Y-138321992D01*
X125339944Y-138325500D01*
X125339947Y-138325500D01*
X125510053Y-138325500D01*
X125510056Y-138325500D01*
X125675225Y-138284790D01*
X125825852Y-138205734D01*
X125953183Y-138092929D01*
X126049818Y-137952930D01*
X126110140Y-137793872D01*
X126126590Y-137658397D01*
X126130645Y-137625002D01*
X126130645Y-137624997D01*
X126110140Y-137456128D01*
X126049820Y-137297074D01*
X126049818Y-137297070D01*
X125953183Y-137157071D01*
X125953181Y-137157069D01*
X125825857Y-137044270D01*
X125825851Y-137044265D01*
X125675225Y-136965210D01*
X125675221Y-136965208D01*
X125510059Y-136924500D01*
X125510056Y-136924500D01*
X125339944Y-136924500D01*
X125339940Y-136924500D01*
X125174778Y-136965208D01*
X125174774Y-136965210D01*
X125024148Y-137044265D01*
X125017874Y-137048597D01*
X125016798Y-137047039D01*
X124961529Y-137073014D01*
X124942235Y-137074500D01*
X119834427Y-137074500D01*
X119768174Y-137072237D01*
X119768173Y-137072237D01*
X119725209Y-137082705D01*
X119718871Y-137083910D01*
X119675085Y-137089928D01*
X119675077Y-137089930D01*
X119658779Y-137097010D01*
X119638418Y-137103857D01*
X119621149Y-137108065D01*
X119621146Y-137108066D01*
X119582604Y-137129737D01*
X119576826Y-137132607D01*
X119536278Y-137150220D01*
X119522492Y-137161436D01*
X119504739Y-137173518D01*
X119489245Y-137182230D01*
X119489243Y-137182232D01*
X119457974Y-137213499D01*
X119453185Y-137217821D01*
X119418893Y-137245720D01*
X119418892Y-137245721D01*
X119408640Y-137260244D01*
X119394802Y-137276671D01*
X119266702Y-137404772D01*
X118714241Y-137957234D01*
X118255445Y-138416030D01*
X117858880Y-138812595D01*
X117796568Y-138846621D01*
X117769785Y-138849500D01*
X117232765Y-138849500D01*
X117164644Y-138829498D01*
X117154011Y-138821446D01*
X117150851Y-138819265D01*
X117000225Y-138740210D01*
X117000221Y-138740208D01*
X116835059Y-138699500D01*
X116835056Y-138699500D01*
X116664944Y-138699500D01*
X116664940Y-138699500D01*
X116499778Y-138740208D01*
X116499774Y-138740210D01*
X116349148Y-138819265D01*
X116342874Y-138823597D01*
X116341798Y-138822039D01*
X116286529Y-138848014D01*
X116267235Y-138849500D01*
X113026500Y-138849500D01*
X112958379Y-138829498D01*
X112911886Y-138775842D01*
X112900500Y-138723500D01*
X112900500Y-137293494D01*
X112901040Y-137285262D01*
X112905682Y-137250000D01*
X112905682Y-137249999D01*
X112892583Y-137150500D01*
X112885044Y-137093238D01*
X112824536Y-136947159D01*
X112795987Y-136909953D01*
X112728282Y-136821718D01*
X112721168Y-136816259D01*
X112700055Y-136800058D01*
X112693861Y-136794626D01*
X111955367Y-136056132D01*
X111949940Y-136049944D01*
X111928282Y-136021718D01*
X111928280Y-136021717D01*
X111928280Y-136021716D01*
X111810521Y-135931357D01*
X111802841Y-135925464D01*
X111784368Y-135917812D01*
X111656760Y-135864955D01*
X111539361Y-135849500D01*
X111500000Y-135844318D01*
X111499999Y-135844318D01*
X111464738Y-135848960D01*
X111456506Y-135849500D01*
X111094248Y-135849500D01*
X111035693Y-135835067D01*
X110950229Y-135790212D01*
X110950221Y-135790208D01*
X110785059Y-135749500D01*
X110785056Y-135749500D01*
X110614944Y-135749500D01*
X110614940Y-135749500D01*
X110449778Y-135790208D01*
X110449774Y-135790210D01*
X110299148Y-135869265D01*
X110299142Y-135869270D01*
X110171818Y-135982069D01*
X110171816Y-135982071D01*
X110075181Y-136122070D01*
X110075179Y-136122074D01*
X110014859Y-136281128D01*
X109994355Y-136449997D01*
X109994355Y-136450002D01*
X110014859Y-136618871D01*
X110075179Y-136777925D01*
X110075181Y-136777929D01*
X110171816Y-136917928D01*
X110171818Y-136917930D01*
X110292922Y-137025219D01*
X110299148Y-137030734D01*
X110449775Y-137109790D01*
X110449776Y-137109790D01*
X110449778Y-137109791D01*
X110542348Y-137132607D01*
X110614944Y-137150500D01*
X110614947Y-137150500D01*
X110785053Y-137150500D01*
X110785056Y-137150500D01*
X110950225Y-137109790D01*
X110997588Y-137084931D01*
X111035693Y-137064933D01*
X111094248Y-137050500D01*
X111199075Y-137050500D01*
X111267196Y-137070502D01*
X111288170Y-137087405D01*
X111662595Y-137461830D01*
X111696621Y-137524142D01*
X111699500Y-137550925D01*
X111699500Y-140949073D01*
X111679498Y-141017194D01*
X111662595Y-141038169D01*
X111048874Y-141651889D01*
X110986562Y-141685914D01*
X110929626Y-141685132D01*
X110785059Y-141649500D01*
X110785056Y-141649500D01*
X110614944Y-141649500D01*
X110614940Y-141649500D01*
X110449778Y-141690208D01*
X110449774Y-141690210D01*
X110299148Y-141769265D01*
X110299142Y-141769270D01*
X110171818Y-141882069D01*
X110171816Y-141882071D01*
X110075181Y-142022070D01*
X110075179Y-142022074D01*
X110014859Y-142181128D01*
X110002177Y-142285570D01*
X109974110Y-142350783D01*
X109915241Y-142390469D01*
X109844261Y-142392029D01*
X109788001Y-142359477D01*
X108643261Y-141214737D01*
X107295907Y-139867382D01*
X107276457Y-139846556D01*
X107250683Y-139818958D01*
X107250682Y-139818957D01*
X107231302Y-139807172D01*
X107212899Y-139795980D01*
X107207575Y-139792356D01*
X107177125Y-139769266D01*
X107172342Y-139765639D01*
X107172341Y-139765638D01*
X107172339Y-139765637D01*
X107155806Y-139759117D01*
X107136568Y-139749562D01*
X107121383Y-139740328D01*
X107121380Y-139740327D01*
X107100412Y-139734452D01*
X107078802Y-139728397D01*
X107072695Y-139726343D01*
X107031566Y-139710124D01*
X107019456Y-139708878D01*
X107013873Y-139708304D01*
X106992784Y-139704296D01*
X106975665Y-139699500D01*
X106975662Y-139699500D01*
X106931453Y-139699500D01*
X106925005Y-139699169D01*
X106881029Y-139694647D01*
X106863511Y-139697668D01*
X106842104Y-139699500D01*
X105512528Y-139699500D01*
X105444407Y-139679498D01*
X105397914Y-139625842D01*
X105387810Y-139555568D01*
X105417304Y-139490988D01*
X105477030Y-139452604D01*
X105482375Y-139451161D01*
X105650221Y-139409791D01*
X105650221Y-139409790D01*
X105650225Y-139409790D01*
X105800852Y-139330734D01*
X105912089Y-139232187D01*
X105976342Y-139201987D01*
X105995642Y-139200500D01*
X107761206Y-139200500D01*
X107829327Y-139220502D01*
X107850301Y-139237405D01*
X108858395Y-140245498D01*
X108892420Y-140307810D01*
X108894036Y-140342379D01*
X108894355Y-140342379D01*
X108894355Y-140349196D01*
X108894382Y-140349774D01*
X108894355Y-140349996D01*
X108894355Y-140350002D01*
X108914859Y-140518871D01*
X108975179Y-140677925D01*
X108975181Y-140677929D01*
X109071816Y-140817928D01*
X109071818Y-140817930D01*
X109114467Y-140855714D01*
X109199148Y-140930734D01*
X109349775Y-141009790D01*
X109349776Y-141009790D01*
X109349778Y-141009791D01*
X109506461Y-141048409D01*
X109514944Y-141050500D01*
X109514947Y-141050500D01*
X109685053Y-141050500D01*
X109685056Y-141050500D01*
X109850225Y-141009790D01*
X110000852Y-140930734D01*
X110128183Y-140817929D01*
X110224818Y-140677930D01*
X110285140Y-140518872D01*
X110293895Y-140446766D01*
X110305645Y-140350002D01*
X110305645Y-140349997D01*
X110285140Y-140181128D01*
X110224820Y-140022074D01*
X110224818Y-140022070D01*
X110128183Y-139882071D01*
X110128181Y-139882069D01*
X110000857Y-139769270D01*
X110000851Y-139769265D01*
X109850225Y-139690210D01*
X109850221Y-139690208D01*
X109685059Y-139649500D01*
X109685056Y-139649500D01*
X109588793Y-139649500D01*
X109520672Y-139629498D01*
X109499698Y-139612595D01*
X108955611Y-139068508D01*
X108338942Y-138451839D01*
X108334239Y-138446576D01*
X108309880Y-138416031D01*
X108309881Y-138416031D01*
X108260728Y-138382519D01*
X108212879Y-138347204D01*
X108205330Y-138343214D01*
X108197674Y-138339528D01*
X108140822Y-138321992D01*
X108084696Y-138302353D01*
X108076320Y-138300767D01*
X108067905Y-138299500D01*
X108067902Y-138299500D01*
X108008426Y-138299500D01*
X107948990Y-138297276D01*
X107948989Y-138297276D01*
X107939610Y-138298333D01*
X107939512Y-138297471D01*
X107924103Y-138299500D01*
X106743551Y-138299500D01*
X106675430Y-138279498D01*
X106628937Y-138225842D01*
X106618833Y-138155568D01*
X106648327Y-138090988D01*
X106708053Y-138052604D01*
X106713716Y-138051083D01*
X106749772Y-138042296D01*
X106756116Y-138041090D01*
X106761444Y-138040357D01*
X106799920Y-138035070D01*
X106816225Y-138027986D01*
X106836590Y-138021138D01*
X106853852Y-138016933D01*
X106892402Y-137995256D01*
X106898167Y-137992394D01*
X106938720Y-137974780D01*
X106952506Y-137963563D01*
X106970264Y-137951477D01*
X106985759Y-137942766D01*
X107017033Y-137911490D01*
X107021805Y-137907184D01*
X107056108Y-137879278D01*
X107066360Y-137864752D01*
X107080192Y-137848331D01*
X108032618Y-136895906D01*
X108081044Y-136850680D01*
X108104021Y-136812894D01*
X108107637Y-136807581D01*
X108134361Y-136772342D01*
X108140880Y-136755809D01*
X108150441Y-136736561D01*
X108159672Y-136721382D01*
X108171603Y-136678795D01*
X108173649Y-136672710D01*
X108189876Y-136631564D01*
X108191694Y-136613879D01*
X108195704Y-136592779D01*
X108200500Y-136575665D01*
X108200500Y-136531452D01*
X108200831Y-136525004D01*
X108205352Y-136481029D01*
X108202332Y-136463511D01*
X108200500Y-136442104D01*
X108200500Y-135655214D01*
X108220502Y-135587093D01*
X108237405Y-135566119D01*
X108453524Y-135350000D01*
X125294532Y-135350000D01*
X125314365Y-135576695D01*
X125373260Y-135796493D01*
X125373262Y-135796498D01*
X125469433Y-136002737D01*
X125599948Y-136189134D01*
X125599957Y-136189144D01*
X125760855Y-136350042D01*
X125760865Y-136350051D01*
X125947262Y-136480566D01*
X125947261Y-136480566D01*
X125983107Y-136497281D01*
X126153504Y-136576739D01*
X126373308Y-136635635D01*
X126600000Y-136655468D01*
X126826692Y-136635635D01*
X127046496Y-136576739D01*
X127252734Y-136480568D01*
X127264552Y-136472293D01*
X127439134Y-136350051D01*
X127439136Y-136350048D01*
X127439139Y-136350047D01*
X127600047Y-136189139D01*
X127612995Y-136170648D01*
X127730566Y-136002737D01*
X127730566Y-136002736D01*
X127730568Y-136002734D01*
X127826739Y-135796496D01*
X127885635Y-135576692D01*
X127905468Y-135350000D01*
X127885635Y-135123308D01*
X127826739Y-134903504D01*
X127730568Y-134697266D01*
X127730567Y-134697265D01*
X127730566Y-134697262D01*
X127600051Y-134510865D01*
X127600042Y-134510855D01*
X127439144Y-134349957D01*
X127439134Y-134349948D01*
X127252737Y-134219433D01*
X127252738Y-134219433D01*
X127046498Y-134123262D01*
X127046493Y-134123260D01*
X126826695Y-134064365D01*
X126600000Y-134044532D01*
X126373304Y-134064365D01*
X126153506Y-134123260D01*
X126153501Y-134123262D01*
X125947262Y-134219433D01*
X125760865Y-134349948D01*
X125760855Y-134349957D01*
X125599957Y-134510855D01*
X125599948Y-134510865D01*
X125469433Y-134697262D01*
X125373262Y-134903501D01*
X125373260Y-134903506D01*
X125314365Y-135123304D01*
X125294532Y-135350000D01*
X108453524Y-135350000D01*
X112482604Y-131320920D01*
X112531043Y-131275681D01*
X112554015Y-131237903D01*
X112557650Y-131232563D01*
X112584361Y-131197342D01*
X112590880Y-131180809D01*
X112600437Y-131161566D01*
X112609672Y-131146382D01*
X112621606Y-131103785D01*
X112623646Y-131097718D01*
X112639876Y-131056565D01*
X112641694Y-131038878D01*
X112645704Y-131017779D01*
X112650500Y-131000665D01*
X112650500Y-130956453D01*
X112650831Y-130950005D01*
X112655352Y-130906030D01*
X112652332Y-130888512D01*
X112650500Y-130867105D01*
X112650500Y-125959397D01*
X112651555Y-125928506D01*
X112652762Y-125893174D01*
X112642295Y-125850225D01*
X112641090Y-125843885D01*
X112636450Y-125810124D01*
X112635070Y-125800080D01*
X112627988Y-125783778D01*
X112621137Y-125763403D01*
X112616934Y-125746153D01*
X112616933Y-125746148D01*
X112595258Y-125707598D01*
X112592401Y-125701848D01*
X112574780Y-125661280D01*
X112563561Y-125647491D01*
X112551474Y-125629731D01*
X112542765Y-125614241D01*
X112542762Y-125614238D01*
X112542760Y-125614235D01*
X112511512Y-125582987D01*
X112507187Y-125578196D01*
X112479278Y-125543892D01*
X112479276Y-125543890D01*
X112464751Y-125533637D01*
X112448319Y-125519795D01*
X110526317Y-123597792D01*
X110492291Y-123535480D01*
X110490333Y-123523904D01*
X110485140Y-123481128D01*
X110454631Y-123400681D01*
X110424820Y-123322074D01*
X110424818Y-123322070D01*
X110328183Y-123182071D01*
X110328181Y-123182069D01*
X110200857Y-123069270D01*
X110200851Y-123069265D01*
X110050225Y-122990210D01*
X110050221Y-122990208D01*
X109885059Y-122949500D01*
X109885056Y-122949500D01*
X109714944Y-122949500D01*
X109714940Y-122949500D01*
X109549778Y-122990208D01*
X109549774Y-122990210D01*
X109399148Y-123069265D01*
X109399142Y-123069270D01*
X109271818Y-123182069D01*
X109271816Y-123182071D01*
X109175181Y-123322070D01*
X109175179Y-123322074D01*
X109114859Y-123481128D01*
X109094355Y-123649997D01*
X109094355Y-123650002D01*
X109114859Y-123818871D01*
X109175179Y-123977925D01*
X109175181Y-123977929D01*
X109271816Y-124117928D01*
X109271818Y-124117930D01*
X109295752Y-124139134D01*
X109399148Y-124230734D01*
X109549775Y-124309790D01*
X109549776Y-124309790D01*
X109549778Y-124309791D01*
X109690171Y-124344394D01*
X109749113Y-124377638D01*
X111512595Y-126141119D01*
X111546620Y-126203431D01*
X111549500Y-126230214D01*
X111549500Y-126675297D01*
X111529498Y-126743418D01*
X111521736Y-126750143D01*
X111547793Y-126804035D01*
X111549500Y-126824702D01*
X111549500Y-130644784D01*
X111529498Y-130712905D01*
X111512595Y-130733879D01*
X107660908Y-134585564D01*
X107598596Y-134619590D01*
X107527780Y-134614525D01*
X107470945Y-134571978D01*
X107446605Y-134510576D01*
X107439876Y-134450854D01*
X107380336Y-134280697D01*
X107284423Y-134128051D01*
X107156948Y-134000576D01*
X107004302Y-133904663D01*
X106834145Y-133845124D01*
X106834146Y-133845124D01*
X106699926Y-133830000D01*
X106255000Y-133830000D01*
X106255000Y-134330000D01*
X105955000Y-134330000D01*
X105955000Y-133830000D01*
X105510074Y-133830000D01*
X105375853Y-133845124D01*
X105205697Y-133904663D01*
X105053051Y-134000576D01*
X105053049Y-134000578D01*
X104937595Y-134116033D01*
X104875283Y-134150059D01*
X104804468Y-134144994D01*
X104747632Y-134102447D01*
X104722821Y-134035927D01*
X104722500Y-134026938D01*
X104722500Y-131991357D01*
X104725379Y-131964576D01*
X104726359Y-131960073D01*
X104724214Y-131930084D01*
X104722661Y-131908363D01*
X104722500Y-131903867D01*
X104722500Y-131888201D01*
X104722348Y-131887147D01*
X104720264Y-131872657D01*
X104719788Y-131868216D01*
X104716091Y-131816520D01*
X104716091Y-131816517D01*
X104714481Y-131812202D01*
X104707821Y-131786107D01*
X104707165Y-131781543D01*
X104685624Y-131734376D01*
X104683910Y-131730237D01*
X104665798Y-131681672D01*
X104665796Y-131681669D01*
X104663031Y-131677975D01*
X104649289Y-131654814D01*
X104647377Y-131650627D01*
X104613435Y-131611456D01*
X104610620Y-131607963D01*
X104601221Y-131595407D01*
X104590131Y-131584317D01*
X104587078Y-131581038D01*
X104557790Y-131547238D01*
X104553128Y-131541857D01*
X104553127Y-131541856D01*
X104549246Y-131539362D01*
X104528275Y-131522461D01*
X102306978Y-129301164D01*
X102272952Y-129238852D01*
X102278017Y-129168037D01*
X102320564Y-129111201D01*
X102365917Y-129089731D01*
X102475225Y-129062790D01*
X102625852Y-128983734D01*
X102753183Y-128870929D01*
X102849818Y-128730930D01*
X102910140Y-128571872D01*
X102930645Y-128403000D01*
X102925995Y-128364708D01*
X102910140Y-128234128D01*
X102876672Y-128145879D01*
X102871218Y-128075092D01*
X102904901Y-128012594D01*
X102967025Y-127978227D01*
X103037867Y-127982903D01*
X103083579Y-128012104D01*
X105439893Y-130368418D01*
X105473919Y-130430730D01*
X105475879Y-130472700D01*
X105456355Y-130633496D01*
X105456355Y-130633502D01*
X105476859Y-130802371D01*
X105537179Y-130961425D01*
X105537181Y-130961429D01*
X105633816Y-131101428D01*
X105633818Y-131101430D01*
X105742080Y-131197342D01*
X105761148Y-131214234D01*
X105911775Y-131293290D01*
X105911776Y-131293290D01*
X105911778Y-131293291D01*
X106068461Y-131331909D01*
X106076944Y-131334000D01*
X106076947Y-131334000D01*
X106247053Y-131334000D01*
X106247056Y-131334000D01*
X106412225Y-131293290D01*
X106562852Y-131214234D01*
X106690183Y-131101429D01*
X106786818Y-130961430D01*
X106847140Y-130802372D01*
X106867645Y-130633500D01*
X106847140Y-130464628D01*
X106786818Y-130305570D01*
X106715375Y-130202068D01*
X106697741Y-130164476D01*
X106697069Y-130162078D01*
X106689988Y-130145778D01*
X106683137Y-130125403D01*
X106678934Y-130108153D01*
X106678933Y-130108148D01*
X106657257Y-130069597D01*
X106654397Y-130063838D01*
X106646709Y-130046140D01*
X106636782Y-130023283D01*
X106636778Y-130023277D01*
X106625564Y-130009493D01*
X106613475Y-129991731D01*
X106604765Y-129976240D01*
X106604761Y-129976235D01*
X106573507Y-129944981D01*
X106569182Y-129940190D01*
X106541281Y-129905895D01*
X106541273Y-129905888D01*
X106526751Y-129895637D01*
X106510321Y-129881796D01*
X103687405Y-127058880D01*
X103653379Y-126996568D01*
X103650500Y-126969785D01*
X103650500Y-126683215D01*
X103670502Y-126615094D01*
X103724158Y-126568601D01*
X103794432Y-126558497D01*
X103859012Y-126587991D01*
X103865595Y-126594120D01*
X104404079Y-127132603D01*
X104449320Y-127181044D01*
X104487103Y-127204019D01*
X104492424Y-127207641D01*
X104527658Y-127234361D01*
X104544198Y-127240883D01*
X104563429Y-127250435D01*
X104578618Y-127259672D01*
X104621203Y-127271603D01*
X104627300Y-127273654D01*
X104668436Y-127289876D01*
X104686117Y-127291693D01*
X104707217Y-127295704D01*
X104724335Y-127300500D01*
X104768547Y-127300500D01*
X104774995Y-127300831D01*
X104818970Y-127305352D01*
X104818970Y-127305351D01*
X104818972Y-127305352D01*
X104829356Y-127303561D01*
X104836489Y-127302332D01*
X104857896Y-127300500D01*
X110117235Y-127300500D01*
X110185356Y-127320502D01*
X110195988Y-127328553D01*
X110199148Y-127330734D01*
X110349775Y-127409790D01*
X110349776Y-127409790D01*
X110349778Y-127409791D01*
X110506461Y-127448409D01*
X110514944Y-127450500D01*
X110514947Y-127450500D01*
X110685053Y-127450500D01*
X110685056Y-127450500D01*
X110850225Y-127409790D01*
X111000852Y-127330734D01*
X111128183Y-127217929D01*
X111224818Y-127077930D01*
X111285140Y-126918872D01*
X111290925Y-126871230D01*
X111298419Y-126809515D01*
X111325543Y-126746489D01*
X111302604Y-126710795D01*
X111298419Y-126690485D01*
X111285140Y-126581128D01*
X111224820Y-126422074D01*
X111224818Y-126422070D01*
X111128183Y-126282071D01*
X111128181Y-126282069D01*
X111000857Y-126169270D01*
X111000851Y-126169265D01*
X110850225Y-126090210D01*
X110850221Y-126090208D01*
X110685059Y-126049500D01*
X110685056Y-126049500D01*
X110514944Y-126049500D01*
X110514940Y-126049500D01*
X110349778Y-126090208D01*
X110349774Y-126090210D01*
X110199148Y-126169265D01*
X110192874Y-126173597D01*
X110191798Y-126172039D01*
X110136529Y-126198014D01*
X110117235Y-126199500D01*
X105080214Y-126199500D01*
X105012093Y-126179498D01*
X104991119Y-126162595D01*
X104626317Y-125797793D01*
X104592291Y-125735481D01*
X104590333Y-125723902D01*
X104585140Y-125681128D01*
X104556973Y-125606856D01*
X104524820Y-125522074D01*
X104524818Y-125522070D01*
X104428183Y-125382071D01*
X104428181Y-125382069D01*
X104300857Y-125269270D01*
X104300851Y-125269265D01*
X104150225Y-125190210D01*
X104150221Y-125190208D01*
X103985059Y-125149500D01*
X103985056Y-125149500D01*
X103814944Y-125149500D01*
X103814941Y-125149500D01*
X103806650Y-125151544D01*
X103735722Y-125148423D01*
X103677741Y-125107451D01*
X103651115Y-125041637D01*
X103650500Y-125029204D01*
X103650500Y-123730214D01*
X103670502Y-123662093D01*
X103687405Y-123641119D01*
X103882604Y-123445920D01*
X103931043Y-123400681D01*
X103954015Y-123362903D01*
X103957650Y-123357563D01*
X103984361Y-123322342D01*
X103990880Y-123305809D01*
X104000437Y-123286566D01*
X104009672Y-123271382D01*
X104021601Y-123228803D01*
X104023658Y-123222688D01*
X104039876Y-123181565D01*
X104041692Y-123163889D01*
X104045704Y-123142778D01*
X104050500Y-123125665D01*
X104050500Y-123081445D01*
X104050831Y-123074997D01*
X104055351Y-123031030D01*
X104052332Y-123013517D01*
X104050500Y-122992111D01*
X104050500Y-122624861D01*
X104070502Y-122556740D01*
X104072804Y-122553285D01*
X104087287Y-122532301D01*
X104124818Y-122477930D01*
X104185140Y-122318872D01*
X104191975Y-122262581D01*
X104205645Y-122150002D01*
X104205645Y-122149997D01*
X104185140Y-121981128D01*
X104124820Y-121822074D01*
X104124818Y-121822070D01*
X104028183Y-121682071D01*
X104028181Y-121682069D01*
X103900857Y-121569270D01*
X103900851Y-121569265D01*
X103750225Y-121490210D01*
X103750223Y-121490209D01*
X103596563Y-121452336D01*
X103535209Y-121416613D01*
X103502908Y-121353390D01*
X103509915Y-121282740D01*
X103537619Y-121240905D01*
X103741121Y-121037404D01*
X103803433Y-121003379D01*
X103830216Y-121000500D01*
X105817235Y-121000500D01*
X105885356Y-121020502D01*
X105895988Y-121028553D01*
X105899148Y-121030734D01*
X106049775Y-121109790D01*
X106049776Y-121109790D01*
X106049778Y-121109791D01*
X106134749Y-121130734D01*
X106214944Y-121150500D01*
X106214947Y-121150500D01*
X106385053Y-121150500D01*
X106385056Y-121150500D01*
X106550225Y-121109790D01*
X106700852Y-121030734D01*
X106828183Y-120917929D01*
X106924818Y-120777930D01*
X106985140Y-120618872D01*
X106993502Y-120550002D01*
X109414355Y-120550002D01*
X109434859Y-120718871D01*
X109495179Y-120877925D01*
X109495181Y-120877929D01*
X109591816Y-121017928D01*
X109591818Y-121017930D01*
X109708896Y-121121652D01*
X109719148Y-121130734D01*
X109869775Y-121209790D01*
X109869776Y-121209790D01*
X109869778Y-121209791D01*
X109995999Y-121240901D01*
X110034944Y-121250500D01*
X110034947Y-121250500D01*
X110205053Y-121250500D01*
X110205056Y-121250500D01*
X110370225Y-121209790D01*
X110520852Y-121130734D01*
X110575651Y-121082186D01*
X110639904Y-121051987D01*
X110659203Y-121050500D01*
X114088496Y-121050500D01*
X114156617Y-121070502D01*
X114203110Y-121124158D01*
X114213577Y-121191687D01*
X114194355Y-121349996D01*
X114194355Y-121350000D01*
X114199040Y-121388582D01*
X114199500Y-121396183D01*
X114199500Y-124851928D01*
X114199385Y-124855733D01*
X114195642Y-124917605D01*
X114206816Y-124978586D01*
X114207389Y-124982348D01*
X114214858Y-125043868D01*
X114218388Y-125053176D01*
X114224508Y-125075130D01*
X114226304Y-125084929D01*
X114226305Y-125084933D01*
X114251749Y-125141469D01*
X114253205Y-125144983D01*
X114265813Y-125178228D01*
X114275182Y-125202930D01*
X114280835Y-125211120D01*
X114292037Y-125230981D01*
X114296122Y-125240057D01*
X114296123Y-125240059D01*
X114334347Y-125288848D01*
X114336603Y-125291914D01*
X114371814Y-125342926D01*
X114371817Y-125342929D01*
X114418227Y-125384045D01*
X114420972Y-125386629D01*
X116294015Y-127259672D01*
X118162595Y-129128252D01*
X118196621Y-129190564D01*
X118199500Y-129217347D01*
X118199500Y-133028814D01*
X118199040Y-133036415D01*
X118194355Y-133074998D01*
X118194355Y-133075001D01*
X118201998Y-133137944D01*
X118214859Y-133243871D01*
X118275179Y-133402925D01*
X118275181Y-133402929D01*
X118371816Y-133542928D01*
X118371818Y-133542930D01*
X118485453Y-133643602D01*
X118499148Y-133655734D01*
X118649775Y-133734790D01*
X118649776Y-133734790D01*
X118649778Y-133734791D01*
X118803271Y-133772623D01*
X118814944Y-133775500D01*
X118814947Y-133775500D01*
X118985053Y-133775500D01*
X118985056Y-133775500D01*
X119150225Y-133734790D01*
X119300852Y-133655734D01*
X119428183Y-133542929D01*
X119524818Y-133402930D01*
X119585140Y-133243872D01*
X119598002Y-133137944D01*
X119605645Y-133075000D01*
X119600960Y-133036415D01*
X119600500Y-133028814D01*
X119600500Y-128906459D01*
X123664500Y-128906459D01*
X123664501Y-128906466D01*
X123667414Y-128931590D01*
X123667416Y-128931594D01*
X123712793Y-129034365D01*
X123792232Y-129113804D01*
X123792234Y-129113805D01*
X123792235Y-129113806D01*
X123895009Y-129159185D01*
X123920135Y-129162100D01*
X125859864Y-129162099D01*
X125884991Y-129159185D01*
X125987765Y-129113806D01*
X126067206Y-129034365D01*
X126112585Y-128931591D01*
X126115500Y-128906465D01*
X126115499Y-128585772D01*
X126135501Y-128517655D01*
X126189156Y-128471162D01*
X126259430Y-128461057D01*
X126324011Y-128490550D01*
X126355692Y-128532522D01*
X126364627Y-128551682D01*
X126364629Y-128551685D01*
X126364632Y-128551691D01*
X126466255Y-128696823D01*
X126487627Y-128727345D01*
X126487630Y-128727349D01*
X126639250Y-128878969D01*
X126639254Y-128878972D01*
X126639255Y-128878973D01*
X126814909Y-129001968D01*
X127009253Y-129092592D01*
X127216381Y-129148092D01*
X127430000Y-129166781D01*
X127643619Y-129148092D01*
X127850747Y-129092592D01*
X128045091Y-129001968D01*
X128220745Y-128878973D01*
X128372373Y-128727345D01*
X128495368Y-128551691D01*
X128585992Y-128357347D01*
X128641492Y-128150219D01*
X128660181Y-127936600D01*
X128641492Y-127722981D01*
X128585992Y-127515853D01*
X128495368Y-127321510D01*
X128372373Y-127145855D01*
X128220745Y-126994227D01*
X128185838Y-126969785D01*
X128145593Y-126941605D01*
X128045091Y-126871232D01*
X128045087Y-126871230D01*
X127850750Y-126780609D01*
X127850745Y-126780607D01*
X127754617Y-126754849D01*
X127643619Y-126725108D01*
X127430000Y-126706419D01*
X127216381Y-126725108D01*
X127160882Y-126739978D01*
X127009254Y-126780607D01*
X127009250Y-126780609D01*
X126814909Y-126871232D01*
X126639258Y-126994224D01*
X126639252Y-126994229D01*
X126487629Y-127145852D01*
X126487624Y-127145858D01*
X126364630Y-127321511D01*
X126355693Y-127340678D01*
X126308776Y-127393963D01*
X126240498Y-127413423D01*
X126172539Y-127392881D01*
X126126473Y-127338857D01*
X126115499Y-127287427D01*
X126115499Y-126966740D01*
X126115499Y-126966736D01*
X126112585Y-126941609D01*
X126067206Y-126838835D01*
X126067206Y-126838834D01*
X125987767Y-126759395D01*
X125987765Y-126759394D01*
X125884989Y-126714014D01*
X125884990Y-126714014D01*
X125859868Y-126711100D01*
X123920140Y-126711100D01*
X123920133Y-126711101D01*
X123895009Y-126714014D01*
X123895005Y-126714016D01*
X123792234Y-126759393D01*
X123712795Y-126838832D01*
X123712794Y-126838834D01*
X123667414Y-126941609D01*
X123664500Y-126966729D01*
X123664500Y-128906459D01*
X119600500Y-128906459D01*
X119600500Y-128898060D01*
X119600615Y-128894255D01*
X119601539Y-128878973D01*
X119604357Y-128832394D01*
X119593180Y-128771405D01*
X119592613Y-128767682D01*
X119585140Y-128706128D01*
X119581611Y-128696823D01*
X119575487Y-128674854D01*
X119573694Y-128665070D01*
X119573694Y-128665068D01*
X119548250Y-128608537D01*
X119546808Y-128605056D01*
X119524818Y-128547070D01*
X119523364Y-128544963D01*
X119519161Y-128538874D01*
X119507957Y-128519009D01*
X119503877Y-128509943D01*
X119465635Y-128461131D01*
X119463400Y-128458092D01*
X119428183Y-128407071D01*
X119428181Y-128407069D01*
X119381788Y-128365969D01*
X119379033Y-128363376D01*
X115637405Y-124621748D01*
X115603379Y-124559436D01*
X115600500Y-124532653D01*
X115600500Y-123300000D01*
X124894532Y-123300000D01*
X124914365Y-123526695D01*
X124973260Y-123746493D01*
X124973262Y-123746498D01*
X125069433Y-123952737D01*
X125199948Y-124139134D01*
X125199957Y-124139144D01*
X125360855Y-124300042D01*
X125360865Y-124300051D01*
X125547262Y-124430566D01*
X125547261Y-124430566D01*
X125620580Y-124464755D01*
X125753504Y-124526739D01*
X125973308Y-124585635D01*
X126200000Y-124605468D01*
X126426692Y-124585635D01*
X126646496Y-124526739D01*
X126852734Y-124430568D01*
X126967084Y-124350500D01*
X127039134Y-124300051D01*
X127039136Y-124300048D01*
X127039139Y-124300047D01*
X127200047Y-124139139D01*
X127214899Y-124117929D01*
X127330566Y-123952737D01*
X127330566Y-123952736D01*
X127330568Y-123952734D01*
X127426739Y-123746496D01*
X127485635Y-123526692D01*
X127505468Y-123300000D01*
X127485635Y-123073308D01*
X127426739Y-122853504D01*
X127330568Y-122647266D01*
X127330567Y-122647265D01*
X127330566Y-122647262D01*
X127200051Y-122460865D01*
X127200042Y-122460855D01*
X127039144Y-122299957D01*
X127039134Y-122299948D01*
X126852737Y-122169433D01*
X126852738Y-122169433D01*
X126646498Y-122073262D01*
X126646493Y-122073260D01*
X126426695Y-122014365D01*
X126200000Y-121994532D01*
X125973304Y-122014365D01*
X125753506Y-122073260D01*
X125753501Y-122073262D01*
X125547262Y-122169433D01*
X125360865Y-122299948D01*
X125360855Y-122299957D01*
X125199957Y-122460855D01*
X125199948Y-122460865D01*
X125069433Y-122647262D01*
X124973262Y-122853501D01*
X124973260Y-122853506D01*
X124914365Y-123073304D01*
X124894532Y-123300000D01*
X115600500Y-123300000D01*
X115600500Y-121396183D01*
X115600960Y-121388582D01*
X115605645Y-121350000D01*
X115605645Y-121349996D01*
X115586423Y-121191687D01*
X115598068Y-121121652D01*
X115645728Y-121069031D01*
X115711504Y-121050500D01*
X119910797Y-121050500D01*
X119978918Y-121070502D01*
X119994346Y-121082184D01*
X120049148Y-121130734D01*
X120199775Y-121209790D01*
X120199776Y-121209790D01*
X120199778Y-121209791D01*
X120325999Y-121240901D01*
X120364944Y-121250500D01*
X120364947Y-121250500D01*
X120535053Y-121250500D01*
X120535056Y-121250500D01*
X120700225Y-121209790D01*
X120850852Y-121130734D01*
X120978183Y-121017929D01*
X121074818Y-120877930D01*
X121135140Y-120718872D01*
X121144127Y-120644856D01*
X121155645Y-120550002D01*
X121155645Y-120549997D01*
X121135140Y-120381128D01*
X121074820Y-120222074D01*
X121074818Y-120222070D01*
X120978183Y-120082071D01*
X120978181Y-120082069D01*
X120850857Y-119969270D01*
X120850851Y-119969265D01*
X120700225Y-119890210D01*
X120700221Y-119890208D01*
X120535059Y-119849500D01*
X120535056Y-119849500D01*
X120364944Y-119849500D01*
X120364940Y-119849500D01*
X120199778Y-119890208D01*
X120199774Y-119890210D01*
X120062177Y-119962427D01*
X120049148Y-119969266D01*
X119994348Y-120017813D01*
X119930096Y-120048013D01*
X119910797Y-120049500D01*
X110659203Y-120049500D01*
X110591082Y-120029498D01*
X110575653Y-120017815D01*
X110520852Y-119969266D01*
X110370225Y-119890210D01*
X110370221Y-119890208D01*
X110205059Y-119849500D01*
X110205056Y-119849500D01*
X110034944Y-119849500D01*
X110034940Y-119849500D01*
X109869778Y-119890208D01*
X109869774Y-119890210D01*
X109719148Y-119969265D01*
X109719142Y-119969270D01*
X109591818Y-120082069D01*
X109591816Y-120082071D01*
X109495181Y-120222070D01*
X109495179Y-120222074D01*
X109434859Y-120381128D01*
X109414355Y-120549997D01*
X109414355Y-120550002D01*
X106993502Y-120550002D01*
X107005645Y-120450000D01*
X106997282Y-120381128D01*
X106985140Y-120281128D01*
X106924820Y-120122074D01*
X106924818Y-120122070D01*
X106828183Y-119982071D01*
X106828181Y-119982069D01*
X106700857Y-119869270D01*
X106700851Y-119869265D01*
X106550225Y-119790210D01*
X106550221Y-119790208D01*
X106385059Y-119749500D01*
X106385056Y-119749500D01*
X106214944Y-119749500D01*
X106214940Y-119749500D01*
X106049778Y-119790208D01*
X106049774Y-119790210D01*
X105899148Y-119869265D01*
X105892874Y-119873597D01*
X105891798Y-119872039D01*
X105836529Y-119898014D01*
X105817235Y-119899500D01*
X105804148Y-119899500D01*
X105736027Y-119879498D01*
X105689534Y-119825842D01*
X105679430Y-119755568D01*
X105686336Y-119728821D01*
X105704140Y-119681873D01*
X105704140Y-119681872D01*
X105724645Y-119513002D01*
X105724645Y-119512997D01*
X105704140Y-119344128D01*
X105643820Y-119185074D01*
X105643818Y-119185070D01*
X105547184Y-119045072D01*
X105547183Y-119045071D01*
X105462796Y-118970311D01*
X105425072Y-118910168D01*
X105425852Y-118839176D01*
X105464890Y-118779875D01*
X105529791Y-118751093D01*
X105546351Y-118750000D01*
X127197810Y-118750000D01*
X127265931Y-118770002D01*
X127286905Y-118786905D01*
X129213095Y-120713095D01*
X129247121Y-120775407D01*
X129250000Y-120802190D01*
X129250000Y-151473500D01*
X129229998Y-151541621D01*
X129176342Y-151588114D01*
X129124000Y-151599500D01*
X100526500Y-151599500D01*
X100458379Y-151579498D01*
X100411886Y-151525842D01*
X100400500Y-151473500D01*
X100400500Y-148933637D01*
X101268687Y-148933637D01*
X101278847Y-149198701D01*
X101329348Y-149459097D01*
X101419011Y-149708747D01*
X101419015Y-149708755D01*
X101545728Y-149941775D01*
X101693375Y-150135470D01*
X101706534Y-150152733D01*
X101897657Y-150336670D01*
X102114617Y-150489277D01*
X102352331Y-150606976D01*
X102605225Y-150687009D01*
X102709721Y-150703149D01*
X102867361Y-150727499D01*
X102867370Y-150727499D01*
X102867372Y-150727500D01*
X102867373Y-150727500D01*
X103066219Y-150727500D01*
X103066220Y-150727500D01*
X103105669Y-150724471D01*
X103264469Y-150712280D01*
X103264470Y-150712279D01*
X103264478Y-150712279D01*
X103522756Y-150651839D01*
X103768782Y-150552682D01*
X103996788Y-150417131D01*
X104201430Y-150248364D01*
X104377912Y-150050336D01*
X104522096Y-149827690D01*
X104630604Y-149585643D01*
X104700892Y-149329869D01*
X104731313Y-149066363D01*
X104721153Y-148801301D01*
X104670650Y-148540897D01*
X104580989Y-148291254D01*
X104575938Y-148281966D01*
X104454271Y-148058224D01*
X104293469Y-147847271D01*
X104293466Y-147847267D01*
X104102343Y-147663330D01*
X103885383Y-147510723D01*
X103647669Y-147393024D01*
X103394775Y-147312991D01*
X103394773Y-147312990D01*
X103394771Y-147312990D01*
X103132638Y-147272500D01*
X103132628Y-147272500D01*
X102933780Y-147272500D01*
X102923374Y-147273298D01*
X102735530Y-147287719D01*
X102668082Y-147303502D01*
X102477244Y-147348161D01*
X102477241Y-147348161D01*
X102477237Y-147348163D01*
X102231223Y-147447315D01*
X102231213Y-147447320D01*
X102003217Y-147582865D01*
X102003210Y-147582870D01*
X101798576Y-147751629D01*
X101798570Y-147751635D01*
X101622086Y-147949666D01*
X101622084Y-147949669D01*
X101477903Y-148172310D01*
X101477901Y-148172313D01*
X101369397Y-148414353D01*
X101299109Y-148670125D01*
X101299107Y-148670132D01*
X101268687Y-148933635D01*
X101268687Y-148933637D01*
X100400500Y-148933637D01*
X100400500Y-134780000D01*
X100736840Y-134780000D01*
X100740123Y-134809142D01*
X100740124Y-134809148D01*
X100799663Y-134979302D01*
X100895576Y-135131948D01*
X101023051Y-135259423D01*
X101175697Y-135355336D01*
X101345854Y-135414875D01*
X101345853Y-135414875D01*
X101480074Y-135430000D01*
X101775000Y-135430000D01*
X101775000Y-134930000D01*
X102075000Y-134930000D01*
X102075000Y-135430000D01*
X102369926Y-135430000D01*
X102504146Y-135414875D01*
X102674302Y-135355336D01*
X102826948Y-135259423D01*
X102954423Y-135131948D01*
X103050336Y-134979302D01*
X103109875Y-134809148D01*
X103109876Y-134809142D01*
X103113160Y-134780000D01*
X102587657Y-134780000D01*
X102598201Y-134766038D01*
X102628895Y-134658160D01*
X102618546Y-134546479D01*
X102585443Y-134480000D01*
X103113160Y-134480000D01*
X103109876Y-134450857D01*
X103109875Y-134450851D01*
X103050336Y-134280697D01*
X102954423Y-134128051D01*
X102826948Y-134000576D01*
X102674302Y-133904663D01*
X102504145Y-133845124D01*
X102504146Y-133845124D01*
X102369926Y-133830000D01*
X102075000Y-133830000D01*
X102075000Y-134330000D01*
X101775000Y-134330000D01*
X101775000Y-133830000D01*
X101480074Y-133830000D01*
X101345853Y-133845124D01*
X101175697Y-133904663D01*
X101023051Y-134000576D01*
X100895576Y-134128051D01*
X100799663Y-134280697D01*
X100740124Y-134450851D01*
X100740123Y-134450857D01*
X100736840Y-134480000D01*
X101262343Y-134480000D01*
X101251799Y-134493962D01*
X101221105Y-134601840D01*
X101231454Y-134713521D01*
X101264557Y-134780000D01*
X100736840Y-134780000D01*
X100400500Y-134780000D01*
X100400500Y-118876000D01*
X100420502Y-118807879D01*
X100474158Y-118761386D01*
X100526500Y-118750000D01*
X104491649Y-118750000D01*
X104559770Y-118770002D01*
G37*
%TD.AperFunction*%
%TA.AperFunction,Conductor*%
G36*
X119164742Y-139167947D02*
G01*
X119209802Y-139196906D01*
X121051066Y-141038169D01*
X122912595Y-142899698D01*
X122946621Y-142962010D01*
X122949500Y-142988793D01*
X122949500Y-144656542D01*
X122929498Y-144724663D01*
X122907054Y-144750854D01*
X122871815Y-144782072D01*
X122775181Y-144922070D01*
X122775179Y-144922074D01*
X122714859Y-145081128D01*
X122694355Y-145249997D01*
X122694355Y-145250002D01*
X122714859Y-145418871D01*
X122756557Y-145528820D01*
X122762011Y-145599607D01*
X122728328Y-145662105D01*
X122666204Y-145696472D01*
X122638745Y-145699500D01*
X120430215Y-145699500D01*
X120362094Y-145679498D01*
X120341120Y-145662595D01*
X118045906Y-143367381D01*
X118000683Y-143318958D01*
X118000682Y-143318957D01*
X117992311Y-143313866D01*
X117962899Y-143295980D01*
X117957575Y-143292356D01*
X117922339Y-143265637D01*
X117905806Y-143259117D01*
X117886568Y-143249562D01*
X117871383Y-143240328D01*
X117871380Y-143240327D01*
X117850412Y-143234452D01*
X117828802Y-143228397D01*
X117822695Y-143226343D01*
X117781566Y-143210124D01*
X117769456Y-143208878D01*
X117763873Y-143208304D01*
X117742784Y-143204296D01*
X117725665Y-143199500D01*
X117725662Y-143199500D01*
X117681453Y-143199500D01*
X117675005Y-143199169D01*
X117631029Y-143194647D01*
X117613511Y-143197668D01*
X117592104Y-143199500D01*
X111270407Y-143199500D01*
X111202286Y-143179498D01*
X111155793Y-143125842D01*
X111145689Y-143055568D01*
X111175183Y-142990988D01*
X111234909Y-142952604D01*
X111253961Y-142948578D01*
X111273798Y-142945966D01*
X111356762Y-142935044D01*
X111502841Y-142874536D01*
X111538797Y-142846946D01*
X111628282Y-142778282D01*
X111649940Y-142750054D01*
X111655361Y-142743872D01*
X112693872Y-141705361D01*
X112700054Y-141699940D01*
X112728282Y-141678282D01*
X112824536Y-141552841D01*
X112885044Y-141406762D01*
X112900500Y-141289361D01*
X112905682Y-141250000D01*
X112901040Y-141214737D01*
X112900500Y-141206505D01*
X112900500Y-140076500D01*
X112920502Y-140008379D01*
X112974158Y-139961886D01*
X113026500Y-139950500D01*
X116267235Y-139950500D01*
X116335356Y-139970502D01*
X116345988Y-139978553D01*
X116349148Y-139980734D01*
X116499775Y-140059790D01*
X116499776Y-140059790D01*
X116499778Y-140059791D01*
X116594815Y-140083215D01*
X116664944Y-140100500D01*
X116664947Y-140100500D01*
X116835053Y-140100500D01*
X116835056Y-140100500D01*
X117000225Y-140059790D01*
X117150852Y-139980734D01*
X117150855Y-139980730D01*
X117157126Y-139976403D01*
X117158201Y-139977960D01*
X117213471Y-139951986D01*
X117232765Y-139950500D01*
X118040603Y-139950500D01*
X118106826Y-139952762D01*
X118132730Y-139946448D01*
X118149772Y-139942296D01*
X118156116Y-139941090D01*
X118161444Y-139940357D01*
X118199920Y-139935070D01*
X118216225Y-139927986D01*
X118236590Y-139921138D01*
X118253852Y-139916933D01*
X118292402Y-139895256D01*
X118298167Y-139892394D01*
X118338720Y-139874780D01*
X118352506Y-139863563D01*
X118370264Y-139851477D01*
X118385759Y-139842766D01*
X118417033Y-139811490D01*
X118421805Y-139807184D01*
X118456108Y-139779278D01*
X118466360Y-139764752D01*
X118480197Y-139748326D01*
X119031617Y-139196906D01*
X119093927Y-139162882D01*
X119164742Y-139167947D01*
G37*
%TD.AperFunction*%
%TA.AperFunction,Conductor*%
G36*
X106255000Y-135430000D02*
G01*
X106699926Y-135430000D01*
X106834144Y-135414875D01*
X106931884Y-135380675D01*
X107002789Y-135377055D01*
X107064394Y-135412344D01*
X107097141Y-135475337D01*
X107099500Y-135499604D01*
X107099500Y-136219785D01*
X107079498Y-136287906D01*
X107062595Y-136308880D01*
X106458880Y-136912595D01*
X106396568Y-136946621D01*
X106369785Y-136949500D01*
X105159397Y-136949500D01*
X105093174Y-136947238D01*
X105093173Y-136947238D01*
X105050218Y-136957705D01*
X105043878Y-136958910D01*
X105000087Y-136964928D01*
X105000075Y-136964931D01*
X104983768Y-136972014D01*
X104963413Y-136978858D01*
X104946154Y-136983064D01*
X104946145Y-136983067D01*
X104907612Y-137004733D01*
X104901834Y-137007603D01*
X104861280Y-137025219D01*
X104847486Y-137036441D01*
X104829733Y-137048524D01*
X104814238Y-137057236D01*
X104782980Y-137088494D01*
X104778190Y-137092816D01*
X104743893Y-137120720D01*
X104743890Y-137120723D01*
X104733640Y-137135244D01*
X104719800Y-137151673D01*
X104115595Y-137755878D01*
X104053283Y-137789904D01*
X103982468Y-137784839D01*
X103925632Y-137742292D01*
X103900821Y-137675772D01*
X103900500Y-137666783D01*
X103900500Y-136123504D01*
X103920502Y-136055383D01*
X103937400Y-136034413D01*
X104528280Y-135443532D01*
X104549258Y-135426629D01*
X104553128Y-135424143D01*
X104587086Y-135384951D01*
X104590126Y-135381686D01*
X104601221Y-135370593D01*
X104610613Y-135358045D01*
X104613432Y-135354547D01*
X104618848Y-135348296D01*
X104647377Y-135315373D01*
X104649289Y-135311183D01*
X104663036Y-135288017D01*
X104665796Y-135284331D01*
X104683918Y-135235739D01*
X104685616Y-135231640D01*
X104707165Y-135184457D01*
X104707165Y-135184455D01*
X104708925Y-135178464D01*
X104747309Y-135118737D01*
X104811889Y-135089244D01*
X104882163Y-135099348D01*
X104919225Y-135128292D01*
X104920573Y-135126945D01*
X105053051Y-135259423D01*
X105205697Y-135355336D01*
X105375851Y-135414875D01*
X105381560Y-135416178D01*
X105443521Y-135450838D01*
X105476909Y-135513494D01*
X105471121Y-135584255D01*
X105427996Y-135640653D01*
X105408191Y-135652541D01*
X105347220Y-135681903D01*
X105247223Y-135774686D01*
X105247223Y-135774687D01*
X105179023Y-135892811D01*
X105179023Y-135892813D01*
X105179022Y-135892815D01*
X105179022Y-135892816D01*
X105177366Y-135900073D01*
X105148669Y-136025800D01*
X105148669Y-136025801D01*
X105158862Y-136161829D01*
X105208697Y-136288805D01*
X105257538Y-136350051D01*
X105293745Y-136395453D01*
X105406450Y-136472293D01*
X105536797Y-136512500D01*
X105536798Y-136512500D01*
X105638906Y-136512500D01*
X105638910Y-136512500D01*
X105739883Y-136497281D01*
X105862781Y-136438096D01*
X105962775Y-136345316D01*
X106030978Y-136227184D01*
X106061331Y-136094197D01*
X106051138Y-135958172D01*
X106001303Y-135831195D01*
X105916255Y-135724547D01*
X105821736Y-135660105D01*
X105776720Y-135605207D01*
X105768530Y-135534684D01*
X105799768Y-135470929D01*
X105860516Y-135434183D01*
X105892714Y-135430000D01*
X105955000Y-135430000D01*
X105955000Y-134930000D01*
X106255000Y-134930000D01*
X106255000Y-135430000D01*
G37*
%TD.AperFunction*%
%TD*%
M02*
